absolutetime;channel;note;time;type;velocity
0;9;39;0;note_on;80
0;0;58;0;note_on;80
0;0;46;0;note_on;80
0;0;61;0;note_on;80
0;0;70;0;note_on;80
240;0;70;0;note_on;80
240;0;70;240;note_off;64
240;0;61;0;note_off;64
240;0;58;0;note_off;64
240;0;46;0;note_off;64
240;0;61;0;note_on;80
240;0;46;0;note_on;80
240;0;58;0;note_on;80
480;9;39;0;note_on;80
480;9;39;480;note_off;64
720;0;46;0;note_on;80
720;0;61;0;note_on;80
720;0;70;480;note_off;64
720;0;61;0;note_off;64
720;0;58;0;note_off;64
720;0;46;0;note_off;64
720;0;70;0;note_on;80
720;0;58;0;note_on;80
960;9;39;480;note_off;64
960;9;39;0;note_on;80
1200;0;58;0;note_on;80
1200;0;61;0;note_on;80
1200;0;70;0;note_on;80
1200;0;46;0;note_off;64
1200;0;46;0;note_on;80
1200;0;70;480;note_off;64
1200;0;61;0;note_off;64
1200;0;58;0;note_off;64
1440;9;39;0;note_on;80
1440;9;39;480;note_off;64
1680;0;58;0;note_off;64
1680;0;61;0;note_on;80
1680;0;58;0;note_on;80
1680;0;46;0;note_on;80
1680;0;70;0;note_on;80
1680;0;61;0;note_off;64
1680;0;46;0;note_off;64
1680;0;70;480;note_off;64
1920;9;39;480;note_off;64
1920;9;39;0;note_on;80
1920;0;70;240;note_off;64
1920;0;61;0;note_off;64
1920;0;58;0;note_off;64
1920;0;46;0;note_off;64
2160;0;70;240;note_on;80
2160;0;61;0;note_on;80
2160;0;58;0;note_on;80
2160;0;46;0;note_on;80
2400;9;39;480;note_off;64
2400;9;39;0;note_on;80
2640;0;70;0;note_on;80
2640;0;46;0;note_off;64
2640;0;61;0;note_on;80
2640;0;61;0;note_off;64
2640;0;70;480;note_off;64
2640;0;58;0;note_off;64
2640;0;58;0;note_on;80
2640;0;46;0;note_on;80
2880;9;39;480;note_off;64
2880;9;39;0;note_on;80
3120;0;46;0;note_on;80
3120;0;58;0;note_on;80
3120;0;61;0;note_on;80
3120;0;70;0;note_on;80
3120;0;46;0;note_off;64
3120;0;58;0;note_off;64
3120;0;61;0;note_off;64
3120;0;70;480;note_off;64
3360;9;39;480;note_off;64
3360;9;39;0;note_on;80
3600;0;61;0;note_off;64
3600;0;58;0;note_on;80
3600;0;70;480;note_off;64
3600;0;70;0;note_on;80
3600;0;58;0;note_off;64
3600;0;46;0;note_off;64
3600;0;61;0;note_on;80
3600;0;46;0;note_on;80
3720;9;39;0;note_on;80
3720;9;39;360;note_off;64
3840;0;70;0;note_on;80
3840;0;61;0;note_on;80
3840;0;58;0;note_on;80
3840;0;58;0;note_off;64
3840;9;39;120;note_off;64
3840;0;61;0;note_off;64
3840;0;70;240;note_off;64
3840;9;39;0;note_on;80
3840;0;46;0;note_off;64
3840;0;46;0;note_on;80
4080;0;61;0;note_on;80
4080;0;58;0;note_on;80
4080;0;46;0;note_off;64
4080;0;46;0;note_on;80
4080;0;58;0;note_off;64
4080;0;61;0;note_off;64
4080;0;70;240;note_off;64
4080;0;70;0;note_on;80
4320;9;39;0;note_on;80
4320;9;39;480;note_off;64
4560;0;58;0;note_on;80
4560;0;61;0;note_on;80
4560;0;70;0;note_on;80
4560;0;46;0;note_off;64
4560;0;58;0;note_off;64
4560;0;61;0;note_off;64
4560;0;46;0;note_on;80
4560;0;70;480;note_off;64
4800;9;39;480;note_off;64
4800;9;39;0;note_on;80
5040;0;46;0;note_on;80
5040;0;58;0;note_on;80
5040;0;70;0;note_on;80
5040;0;46;0;note_off;64
5040;0;58;0;note_off;64
5040;0;61;0;note_off;64
5040;0;70;480;note_off;64
5040;0;61;0;note_on;80
5280;9;39;480;note_off;64
5280;9;39;0;note_on;80
5520;0;46;0;note_on;80
5520;0;58;0;note_on;80
5520;0;61;0;note_on;80
5520;0;70;0;note_on;80
5520;0;46;0;note_off;64
5520;0;58;0;note_off;64
5520;0;61;0;note_off;64
5520;0;70;480;note_off;64
5760;9;39;480;note_off;64
5760;9;39;0;note_on;80
5760;0;61;0;note_off;64
5760;0;70;240;note_off;64
5760;0;58;0;note_off;64
5760;0;46;0;note_off;64
6000;0;70;240;note_on;80
6000;0;61;0;note_on;80
6000;0;58;0;note_on;80
6000;0;46;0;note_on;80
6240;9;39;0;note_on;80
6240;9;39;480;note_off;64
6480;0;70;480;note_off;64
6480;0;61;0;note_off;64
6480;0;70;0;note_on;80
6480;0;58;0;note_off;64
6480;0;46;0;note_off;64
6480;0;61;0;note_on;80
6480;0;58;0;note_on;80
6480;0;46;0;note_on;80
6720;9;39;480;note_off;64
6720;9;39;0;note_on;80
6960;0;46;0;note_on;80
6960;0;58;0;note_on;80
6960;0;70;0;note_on;80
6960;0;61;0;note_on;80
6960;0;70;480;note_off;64
6960;0;61;0;note_off;64
6960;0;58;0;note_off;64
6960;0;46;0;note_off;64
7200;9;39;0;note_on;80
7200;9;39;480;note_off;64
7440;0;58;0;note_on;80
7440;0;70;480;note_off;64
7440;0;61;0;note_off;64
7440;0;58;0;note_off;64
7440;0;46;0;note_off;64
7440;0;70;0;note_on;80
7440;0;46;0;note_on;80
7440;0;61;0;note_on;80
7560;9;39;0;note_on;80
7560;9;39;360;note_off;64
7680;0;46;0;note_on;80
7680;0;58;0;note_on;80
7680;0;61;0;note_on;80
7680;0;70;0;note_on;80
7680;0;46;0;note_off;64
7680;0;58;0;note_off;64
7680;0;61;0;note_off;64
7680;0;70;240;note_off;64
7680;9;39;0;note_on;80
7680;9;39;120;note_off;64
7920;0;70;240;note_off;64
7920;0;61;0;note_off;64
7920;0;46;0;note_on;80
7920;0;61;0;note_on;80
7920;0;70;0;note_on;80
7920;0;46;0;note_off;64
7920;0;58;0;note_off;64
7920;0;58;0;note_on;80
8160;9;39;480;note_off;64
8160;9;39;0;note_on;80
8400;0;70;480;note_off;64
8400;0;61;0;note_off;64
8400;0;46;0;note_off;64
8400;0;70;0;note_on;80
8400;0;61;0;note_on;80
8400;0;58;0;note_on;80
8400;0;46;0;note_on;80
8400;0;58;0;note_off;64
8640;9;39;480;note_off;64
8640;9;39;0;note_on;80
8880;0;46;0;note_on;80
8880;0;58;0;note_on;80
8880;0;61;0;note_on;80
8880;0;70;480;note_off;64
8880;0;46;0;note_off;64
8880;0;58;0;note_off;64
8880;0;61;0;note_off;64
8880;0;70;0;note_on;80
9120;9;39;480;note_off;64
9120;9;39;0;note_on;80
9360;0;70;480;note_off;64
9360;0;58;0;note_off;64
9360;0;46;0;note_off;64
9360;0;70;0;note_on;80
9360;0;61;0;note_on;80
9360;0;58;0;note_on;80
9360;0;46;0;note_on;80
9360;0;61;0;note_off;64
9600;9;39;0;note_on;80
9600;9;39;480;note_off;64
9600;0;70;240;note_off;64
9600;0;61;0;note_off;64
9600;0;58;0;note_off;64
9600;0;46;0;note_off;64
9840;0;61;0;note_on;80
9840;0;70;240;note_on;80
9840;0;46;0;note_on;80
9840;0;58;0;note_on;80
10080;9;39;0;note_on;80
10080;9;39;480;note_off;64
10320;0;46;0;note_off;64
10320;0;70;0;note_on;80
10320;0;61;0;note_on;80
10320;0;58;0;note_on;80
10320;0;61;0;note_off;64
10320;0;70;480;note_off;64
10320;0;58;0;note_off;64
10320;0;46;0;note_on;80
10560;9;39;0;note_on;80
10560;9;39;480;note_off;64
10800;0;70;480;note_off;64
10800;0;58;0;note_off;64
10800;0;61;0;note_off;64
10800;0;46;0;note_on;80
10800;0;58;0;note_on;80
10800;0;61;0;note_on;80
10800;0;70;0;note_on;80
10800;0;46;0;note_off;64
11040;9;39;480;note_off;64
11040;9;39;0;note_on;80
11280;0;70;0;note_on;80
11280;0;61;0;note_on;80
11280;0;46;0;note_on;80
11280;0;46;0;note_off;64
11280;0;58;0;note_off;64
11280;0;61;0;note_off;64
11280;0;58;0;note_on;80
11280;0;70;480;note_off;64
11400;9;39;360;note_off;64
11400;9;39;0;note_on;80
11520;0;70;0;note_on;80
11520;0;70;240;note_off;64
11520;0;61;0;note_off;64
11520;0;58;0;note_off;64
11520;0;46;0;note_off;64
11520;9;39;120;note_off;64
11520;0;61;0;note_on;80
11520;0;58;0;note_on;80
11520;2;34;11520;note_on;80
11520;0;46;0;note_on;80
11760;0;46;0;note_on;80
11760;0;61;0;note_off;64
11760;2;34;240;note_off;64
11760;0;46;0;note_off;64
11760;0;70;0;note_on;80
11760;0;61;0;note_on;80
11760;0;58;0;note_on;80
11760;0;70;240;note_off;64
11760;0;58;0;note_off;64
12000;2;34;240;note_on;80
12000;9;39;480;note_on;80
12240;0;46;0;note_on;80
12240;2;34;240;note_off;64
12240;0;61;0;note_on;80
12240;0;70;0;note_on;80
12240;0;46;0;note_off;64
12240;0;58;0;note_off;64
12240;0;58;0;note_on;80
12240;0;70;480;note_off;64
12240;0;61;0;note_off;64
12480;2;34;240;note_on;80
12480;9;39;480;note_off;64
12720;2;34;240;note_off;64
12720;0;46;0;note_on;80
12720;0;61;0;note_off;64
12720;0;58;0;note_off;64
12720;0;46;0;note_off;64
12720;0;70;0;note_on;80
12720;0;61;0;note_on;80
12720;0;58;0;note_on;80
12720;0;70;480;note_off;64
12960;9;39;480;note_on;80
12960;2;34;240;note_on;80
13200;0;46;0;note_on;80
13200;0;58;0;note_on;80
13200;0;61;0;note_on;80
13200;0;70;0;note_on;80
13200;0;46;0;note_off;64
13200;0;58;0;note_off;64
13200;0;61;0;note_off;64
13200;0;70;480;note_off;64
13200;2;34;240;note_off;64
13440;9;39;480;note_off;64
13440;2;34;240;note_on;80
13440;0;61;0;note_off;64
13440;0;70;240;note_off;64
13440;0;46;0;note_off;64
13440;0;58;0;note_off;64
13680;0;61;0;note_on;80
13680;0;70;240;note_on;80
13680;2;34;240;note_off;64
13680;0;58;0;note_on;80
13680;0;46;0;note_on;80
13920;2;34;240;note_on;80
13920;9;39;480;note_on;80
14160;2;34;240;note_off;64
14160;0;70;480;note_off;64
14160;0;58;0;note_on;80
14160;0;61;0;note_on;80
14160;0;70;0;note_on;80
14160;0;46;0;note_off;64
14160;0;58;0;note_off;64
14160;0;61;0;note_off;64
14160;0;46;0;note_on;80
14400;2;34;240;note_on;80
14400;9;39;480;note_off;64
14640;2;34;240;note_off;64
14640;0;70;0;note_on;80
14640;0;58;0;note_on;80
14640;0;70;480;note_off;64
14640;0;61;0;note_off;64
14640;0;58;0;note_off;64
14640;0;46;0;note_off;64
14640;0;46;0;note_on;80
14640;0;61;0;note_on;80
14880;2;34;240;note_on;80
14880;9;39;480;note_on;80
15120;0;58;0;note_on;80
15120;0;70;480;note_off;64
15120;0;61;0;note_off;64
15120;0;58;0;note_off;64
15120;0;70;0;note_on;80
15120;0;46;0;note_on;80
15120;0;61;0;note_on;80
15120;0;46;0;note_off;64
15120;2;34;240;note_off;64
15120;9;39;240;note_off;64
15240;9;39;120;note_on;80
15360;0;46;0;note_off;64
15360;9;39;120;note_off;64
15360;9;39;0;note_on;80
15360;0;58;0;note_on;80
15360;0;61;0;note_on;80
15360;0;70;0;note_on;80
15360;0;58;0;note_off;64
15360;0;61;0;note_off;64
15360;0;70;240;note_off;64
15360;0;46;0;note_on;80
15600;0;70;240;note_off;64
15600;0;61;0;note_off;64
15600;0;58;0;note_off;64
15600;0;70;0;note_on;80
15600;0;61;0;note_on;80
15600;0;58;0;note_on;80
15600;0;46;0;note_on;80
15600;0;46;0;note_off;64
15840;9;39;0;note_on;80
15840;9;39;480;note_off;64
15840;6;49;15840;note_on;80
16080;0;70;0;note_on;80
16080;0;46;0;note_off;64
16080;0;58;0;note_off;64
16080;0;61;0;note_on;80
16080;0;58;0;note_on;80
16080;0;46;0;note_on;80
16080;0;70;480;note_off;64
16080;0;61;0;note_off;64
16080;6;49;0;note_on;80
16080;6;49;240;note_off;64
16320;0;46;0;note_on;80
16320;0;58;0;note_on;80
16320;9;39;480;note_off;64
16320;0;70;0;note_on;80
16320;0;46;0;note_off;64
16320;0;58;0;note_off;64
16320;0;61;0;note_off;64
16320;0;70;240;note_off;64
16320;9;39;0;note_on;80
16320;0;61;0;note_on;80
16320;6;49;0;note_on;80
16320;6;49;240;note_off;64
16560;0;61;0;note_off;64
16560;0;46;0;note_off;64
16560;0;70;0;note_on;80
16560;0;61;0;note_on;80
16560;0;58;0;note_on;80
16560;6;49;0;note_on;80
16560;6;49;240;note_off;64
16560;0;58;0;note_off;64
16560;0;70;240;note_off;64
16560;0;46;0;note_on;80
16800;9;39;0;note_on;80
16800;6;49;240;note_off;64
16800;6;51;0;note_on;80
16800;9;39;480;note_off;64
17040;0;61;0;note_on;80
17040;0;70;0;note_on;80
17040;0;46;0;note_off;64
17040;0;58;0;note_off;64
17040;0;61;0;note_off;64
17040;0;70;480;note_off;64
17040;0;46;0;note_on;80
17040;6;51;240;note_off;64
17040;6;51;0;note_on;80
17040;0;58;0;note_on;80
17280;0;46;0;note_off;64
17280;0;61;0;note_off;64
17280;9;39;0;note_on;80
17280;0;70;240;note_off;64
17280;9;39;480;note_off;64
17280;6;48;0;note_on;80
17280;6;51;240;note_off;64
17280;0;56;0;note_on;80
17280;0;58;0;note_off;64
17280;0;60;0;note_on;80
17280;0;51;0;note_on;80
17280;0;44;0;note_on;80
17520;6;48;240;note_off;64
17520;6;46;0;note_on;80
17520;0;60;240;note_off;64
17520;0;51;0;note_on;80
17520;0;60;0;note_on;80
17520;0;44;0;note_off;64
17520;0;51;0;note_off;64
17520;0;56;0;note_off;64
17520;0;44;0;note_on;80
17520;0;56;0;note_on;80
17760;9;39;480;note_off;64
17760;9;39;0;note_on;80
17760;6;44;0;note_on;80
17760;6;46;240;note_off;64
18000;0;51;0;note_on;80
18000;0;56;0;note_on;80
18000;0;60;0;note_on;80
18000;0;44;0;note_off;64
18000;0;51;0;note_off;64
18000;0;60;480;note_off;64
18000;0;44;0;note_on;80
18000;0;56;0;note_off;64
18240;0;60;240;note_off;64
18240;0;44;0;note_off;64
18240;0;58;0;note_on;80
18240;0;55;0;note_on;80
18240;0;51;0;note_on;80
18240;6;46;0;note_on;80
18240;6;44;480;note_off;64
18240;0;43;0;note_on;80
18240;0;51;0;note_off;64
18240;0;56;0;note_off;64
18240;9;39;0;note_on;80
18240;9;39;480;note_off;64
18480;0;58;240;note_off;64
18480;0;43;0;note_off;64
18480;0;58;0;note_on;80
18480;0;55;0;note_on;80
18480;0;51;0;note_on;80
18480;0;43;0;note_on;80
18480;0;51;0;note_off;64
18480;0;55;0;note_off;64
18720;9;39;480;note_off;64
18720;9;39;0;note_on;80
18960;0;55;0;note_off;64
18960;0;58;0;note_on;80
18960;0;43;0;note_on;80
18960;6;44;0;note_on;80
18960;6;46;720;note_off;64
18960;0;43;0;note_off;64
18960;0;58;480;note_off;64
18960;0;51;0;note_off;64
18960;0;51;0;note_on;80
18960;0;55;0;note_on;80
19080;9;39;360;note_off;64
19080;9;39;0;note_on;80
19200;0;58;240;note_off;64
19200;0;46;0;note_on;80
19200;0;58;0;note_on;80
19200;9;39;120;note_off;64
19200;0;61;0;note_on;80
19200;0;70;0;note_on;80
19200;0;43;0;note_off;64
19200;6;44;240;note_off;64
19200;0;51;0;note_off;64
19200;9;39;0;note_on;80
19200;0;55;0;note_off;64
19440;0;70;0;note_on;80
19440;0;70;240;note_off;64
19440;0;61;0;note_off;64
19440;0;58;0;note_off;64
19440;0;46;0;note_on;80
19440;0;58;0;note_on;80
19440;0;61;0;note_on;80
19440;0;46;0;note_off;64
19680;6;49;480;note_on;80
19680;9;39;0;note_on;80
19680;9;39;480;note_off;64
19920;6;49;240;note_off;64
19920;0;46;0;note_on;80
19920;0;58;0;note_on;80
19920;0;61;0;note_on;80
19920;0;70;0;note_on;80
19920;0;46;0;note_off;64
19920;0;58;0;note_off;64
19920;0;61;0;note_off;64
19920;0;70;480;note_off;64
19920;6;49;0;note_on;80
20160;6;49;0;note_on;80
20160;9;39;480;note_off;64
20160;9;39;0;note_on;80
20160;6;49;240;note_off;64
20160;0;46;0;note_on;80
20160;0;58;0;note_on;80
20160;0;61;0;note_on;80
20160;0;70;0;note_on;80
20160;0;46;0;note_off;64
20160;0;58;0;note_off;64
20160;0;70;240;note_off;64
20160;0;61;0;note_off;64
20400;0;46;0;note_on;80
20400;6;49;0;note_on;80
20400;0;70;0;note_on;80
20400;0;46;0;note_off;64
20400;0;58;0;note_on;80
20400;0;61;0;note_on;80
20400;0;70;240;note_off;64
20400;0;61;0;note_off;64
20400;0;58;0;note_off;64
20400;6;49;240;note_off;64
20640;9;39;480;note_off;64
20640;9;39;0;note_on;80
20640;6;51;0;note_on;80
20640;6;49;240;note_off;64
20880;0;58;0;note_on;80
20880;0;70;0;note_on;80
20880;0;46;0;note_off;64
20880;0;58;0;note_off;64
20880;0;61;0;note_off;64
20880;0;70;480;note_off;64
20880;0;46;0;note_on;80
20880;0;61;0;note_on;80
21120;0;56;0;note_on;80
21120;0;60;0;note_on;80
21120;6;48;0;note_on;80
21120;0;61;0;note_off;64
21120;6;51;480;note_off;64
21120;0;51;0;note_on;80
21120;0;70;240;note_off;64
21120;0;44;0;note_on;80
21120;0;46;0;note_off;64
21120;9;39;480;note_off;64
21120;0;58;0;note_off;64
21120;9;39;0;note_on;80
21360;0;51;0;note_off;64
21360;0;51;0;note_on;80
21360;6;46;0;note_on;80
21360;6;48;240;note_off;64
21360;0;56;0;note_on;80
21360;0;60;0;note_on;80
21360;0;44;0;note_off;64
21360;0;44;0;note_on;80
21360;0;60;240;note_off;64
21360;0;56;0;note_off;64
21600;9;39;480;note_off;64
21600;9;39;0;note_on;80
21600;6;44;0;note_on;80
21600;6;46;240;note_off;64
21840;0;56;0;note_on;80
21840;0;44;0;note_off;64
21840;0;51;0;note_off;64
21840;0;60;0;note_on;80
21840;0;60;480;note_off;64
21840;0;51;0;note_on;80
21840;0;56;0;note_off;64
21840;0;44;0;note_on;80
22080;9;39;480;note_off;64
22080;9;39;0;note_on;80
22080;6;44;480;note_off;64
22080;0;56;0;note_off;64
22080;0;51;0;note_off;64
22080;0;44;0;note_off;64
22080;0;58;0;note_on;80
22080;0;55;0;note_on;80
22080;0;51;0;note_on;80
22080;0;43;0;note_on;80
22080;0;60;240;note_off;64
22320;0;43;0;note_on;80
22320;0;51;0;note_on;80
22320;0;55;0;note_on;80
22320;0;43;0;note_off;64
22320;0;51;0;note_off;64
22320;0;55;0;note_off;64
22320;0;58;240;note_off;64
22320;0;58;0;note_on;80
22560;9;39;0;note_on;80
22560;9;39;480;note_off;64
22800;0;43;0;note_on;80
22800;0;51;0;note_on;80
22800;0;55;0;note_on;80
22800;0;58;0;note_on;80
22800;0;58;480;note_off;64
22800;0;43;0;note_off;64
22800;0;51;0;note_off;64
22800;0;55;0;note_off;64
22920;9;39;360;note_off;64
22920;9;39;0;note_on;80
23040;9;39;120;note_off;64
23040;9;39;0;note_on;80
23040;0;55;0;note_off;64
23040;0;70;0;note_on;80
23040;0;58;240;note_off;64
23040;0;43;0;note_off;64
23040;0;51;0;note_off;64
23040;0;61;0;note_on;80
23040;0;58;0;note_on;80
23040;0;46;0;note_on;80
23280;0;58;0;note_on;80
23280;0;70;240;note_off;64
23280;0;61;0;note_off;64
23280;0;58;0;note_off;64
23280;0;46;0;note_off;64
23280;0;70;0;note_on;80
23280;0;61;0;note_on;80
23280;0;46;0;note_on;80
23520;9;39;0;note_on;80
23520;6;49;1440;note_on;80
23520;9;39;480;note_off;64
23760;0;61;0;note_on;80
23760;0;46;0;note_on;80
23760;0;70;480;note_off;64
23760;0;61;0;note_off;64
23760;0;58;0;note_off;64
23760;0;46;0;note_off;64
23760;0;70;0;note_on;80
23760;6;49;240;note_off;64
23760;6;49;0;note_on;80
23760;0;58;0;note_on;80
24000;0;61;0;note_off;64
24000;6;49;0;note_on;80
24000;6;49;240;note_off;64
24000;9;39;0;note_on;80
24000;9;39;480;note_off;64
24000;0;46;0;note_on;80
24000;0;61;0;note_on;80
24000;0;70;0;note_on;80
24000;0;46;0;note_off;64
24000;0;58;0;note_off;64
24000;0;70;240;note_off;64
24000;0;58;0;note_on;80
24240;0;46;0;note_on;80
24240;6;49;0;note_on;80
24240;0;61;0;note_on;80
24240;0;70;0;note_on;80
24240;0;46;0;note_off;64
24240;6;49;240;note_off;64
24240;0;61;0;note_off;64
24240;0;70;240;note_off;64
24240;0;58;0;note_off;64
24240;0;58;0;note_on;80
24480;6;49;240;note_off;64
24480;9;39;480;note_off;64
24480;9;39;0;note_on;80
24480;6;51;0;note_on;80
24720;0;61;0;note_off;64
24720;0;58;0;note_off;64
24720;0;46;0;note_off;64
24720;0;61;0;note_on;80
24720;0;58;0;note_on;80
24720;0;46;0;note_on;80
24720;0;70;480;note_off;64
24720;0;70;0;note_on;80
24720;6;51;240;note_off;64
24720;6;51;0;note_on;80
24960;0;44;0;note_on;80
24960;0;51;0;note_on;80
24960;0;56;0;note_on;80
24960;0;60;0;note_on;80
24960;0;46;0;note_off;64
24960;0;58;0;note_off;64
24960;0;70;240;note_off;64
24960;0;61;0;note_off;64
24960;6;48;0;note_on;80
24960;6;51;240;note_off;64
24960;9;39;480;note_off;64
24960;9;39;0;note_on;80
25200;6;48;240;note_off;64
25200;0;60;0;note_on;80
25200;6;46;0;note_on;80
25200;0;51;0;note_on;80
25200;0;60;240;note_off;64
25200;0;56;0;note_off;64
25200;0;51;0;note_off;64
25200;0;44;0;note_off;64
25200;0;44;0;note_on;80
25200;0;56;0;note_on;80
25440;9;39;480;note_off;64
25440;6;44;0;note_on;80
25440;9;39;0;note_on;80
25440;6;46;240;note_off;64
25680;0;60;480;note_off;64
25680;0;56;0;note_off;64
25680;0;51;0;note_off;64
25680;0;44;0;note_off;64
25680;0;60;0;note_on;80
25680;0;56;0;note_on;80
25680;0;51;0;note_on;80
25680;0;44;0;note_on;80
25680;6;44;0;note_on;80
25680;6;44;240;note_off;64
25920;6;44;240;note_off;64
25920;9;39;0;note_on;80
25920;0;43;0;note_on;80
25920;0;51;0;note_on;80
25920;0;55;0;note_on;80
25920;0;58;0;note_on;80
25920;9;39;480;note_off;64
25920;0;51;0;note_off;64
25920;6;46;0;note_on;80
25920;0;44;0;note_off;64
25920;0;60;240;note_off;64
25920;0;56;0;note_off;64
26160;0;58;240;note_off;64
26160;0;55;0;note_off;64
26160;0;51;0;note_off;64
26160;0;43;0;note_off;64
26160;0;58;0;note_on;80
26160;0;55;0;note_on;80
26160;0;51;0;note_on;80
26160;0;43;0;note_on;80
26400;9;39;480;note_off;64
26400;9;39;0;note_on;80
26640;6;44;0;note_on;80
26640;0;51;0;note_on;80
26640;0;55;0;note_on;80
26640;0;43;0;note_on;80
26640;0;58;0;note_on;80
26640;0;55;0;note_off;64
26640;0;43;0;note_off;64
26640;0;51;0;note_off;64
26640;6;46;720;note_off;64
26640;0;58;480;note_off;64
26760;9;39;360;note_off;64
26760;9;39;0;note_on;80
26880;0;46;0;note_on;80
26880;0;58;0;note_on;80
26880;0;61;0;note_on;80
26880;0;43;0;note_off;64
26880;6;44;240;note_off;64
26880;0;55;0;note_off;64
26880;0;58;240;note_off;64
26880;9;39;0;note_on;80
26880;9;39;120;note_off;64
26880;0;51;0;note_off;64
26880;0;70;0;note_on;80
27120;0;58;0;note_on;80
27120;0;70;240;note_off;64
27120;0;61;0;note_off;64
27120;0;58;0;note_off;64
27120;0;46;0;note_off;64
27120;0;70;0;note_on;80
27120;0;61;0;note_on;80
27120;0;46;0;note_on;80
27360;9;39;0;note_on;80
27360;9;39;480;note_off;64
27360;6;49;480;note_on;80
27600;0;61;0;note_off;64
27600;0;70;480;note_off;64
27600;0;46;0;note_off;64
27600;0;70;0;note_on;80
27600;0;61;0;note_on;80
27600;0;58;0;note_on;80
27600;0;46;0;note_on;80
27600;0;58;0;note_off;64
27600;6;49;0;note_on;80
27600;6;49;240;note_off;64
27840;6;49;0;note_on;80
27840;6;49;240;note_off;64
27840;9;39;480;note_off;64
27840;9;39;0;note_on;80
27840;0;46;0;note_off;64
27840;0;70;240;note_off;64
27840;0;61;0;note_off;64
27840;0;58;0;note_off;64
27840;0;46;0;note_on;80
27840;0;58;0;note_on;80
27840;0;61;0;note_on;80
27840;0;70;0;note_on;80
28080;6;49;0;note_on;80
28080;6;49;240;note_off;64
28080;0;58;0;note_off;64
28080;0;46;0;note_on;80
28080;0;58;0;note_on;80
28080;0;61;0;note_on;80
28080;0;70;240;note_off;64
28080;0;46;0;note_off;64
28080;0;61;0;note_off;64
28080;0;70;0;note_on;80
28320;6;49;240;note_off;64
28320;6;51;0;note_on;80
28320;9;39;0;note_on;80
28320;9;39;480;note_off;64
28560;0;58;0;note_on;80
28560;0;70;480;note_off;64
28560;0;61;0;note_off;64
28560;0;58;0;note_off;64
28560;0;46;0;note_off;64
28560;0;70;0;note_on;80
28560;0;61;0;note_on;80
28560;0;46;0;note_on;80
28800;0;58;0;note_off;64
28800;0;70;240;note_off;64
28800;0;61;0;note_off;64
28800;6;51;480;note_off;64
28800;6;48;0;note_on;80
28800;0;51;0;note_on;80
28800;0;56;0;note_on;80
28800;0;60;0;note_on;80
28800;0;44;0;note_on;80
28800;9;39;0;note_on;80
28800;9;39;480;note_off;64
28800;0;46;0;note_off;64
29040;0;56;0;note_off;64
29040;0;60;240;note_off;64
29040;0;44;0;note_off;64
29040;0;60;0;note_on;80
29040;0;56;0;note_on;80
29040;0;51;0;note_on;80
29040;0;44;0;note_on;80
29040;6;48;240;note_off;64
29040;6;46;0;note_on;80
29040;0;51;0;note_off;64
29280;6;46;240;note_off;64
29280;6;44;0;note_on;80
29280;9;39;0;note_on;80
29280;9;39;480;note_off;64
29520;0;56;0;note_off;64
29520;0;51;0;note_off;64
29520;0;44;0;note_off;64
29520;0;60;0;note_on;80
29520;0;56;0;note_on;80
29520;0;51;0;note_on;80
29520;0;44;0;note_on;80
29520;6;44;0;note_on;80
29520;6;44;240;note_off;64
29520;0;60;480;note_off;64
29760;9;39;0;note_on;80
29760;6;43;0;note_on;72
29760;6;44;240;note_off;64
29760;0;43;0;note_on;80
29760;0;55;0;note_on;80
29760;0;51;0;note_on;80
29760;0;44;0;note_off;64
29760;0;58;0;note_on;80
29760;0;51;0;note_off;64
29760;0;56;0;note_off;64
29760;0;60;240;note_off;64
29760;9;39;480;note_off;64
30000;0;51;0;note_on;80
30000;0;58;240;note_off;64
30000;0;55;0;note_off;64
30000;0;51;0;note_off;64
30000;0;43;0;note_off;64
30000;0;58;0;note_on;80
30000;0;55;0;note_on;80
30000;0;43;0;note_on;80
30240;9;39;480;note_off;64
30240;9;39;0;note_on;80
30480;6;43;720;note_off;64
30480;0;51;0;note_off;64
30480;0;51;0;note_on;80
30480;0;58;480;note_off;64
30480;0;55;0;note_off;64
30480;0;43;0;note_off;64
30480;0;58;0;note_on;80
30480;0;55;0;note_on;80
30480;0;43;0;note_on;80
30600;9;39;0;note_on;80
30600;9;39;360;note_off;64
30720;9;39;120;note_off;64
30720;0;58;240;note_off;64
30720;0;51;0;note_off;64
30720;0;46;0;note_on;80
30720;0;70;0;note_on;80
30720;0;43;0;note_off;64
30720;0;58;0;note_on;80
30720;0;61;0;note_on;80
30720;0;55;0;note_off;64
30960;0;61;0;note_off;64
30960;0;46;0;note_on;80
30960;0;58;0;note_on;80
30960;0;61;0;note_on;80
30960;0;58;0;note_off;64
30960;0;70;240;note_off;64
30960;0;70;0;note_on;80
30960;0;46;0;note_off;64
31200;9;39;480;note_on;80
31200;6;49;720;note_on;80
31440;0;46;0;note_on;80
31440;0;61;0;note_on;80
31440;0;70;0;note_on;80
31440;0;46;0;note_off;64
31440;0;70;480;note_off;64
31440;0;58;0;note_on;80
31440;0;61;0;note_off;64
31440;0;58;0;note_off;64
31440;6;49;0;note_on;80
31440;6;49;240;note_off;64
31680;0;58;0;note_off;64
31680;6;49;0;note_on;80
31680;6;49;240;note_off;64
31680;9;39;480;note_off;64
31680;0;70;240;note_off;64
31680;0;61;0;note_off;64
31680;0;46;0;note_off;64
31680;0;70;0;note_on;80
31680;0;61;0;note_on;80
31680;0;58;0;note_on;80
31680;0;46;0;note_on;80
31920;0;58;0;note_off;64
31920;0;61;0;note_off;64
31920;0;70;240;note_off;64
31920;0;46;0;note_off;64
31920;6;49;240;note_off;64
31920;6;49;0;note_on;80
31920;0;61;0;note_on;80
31920;0;58;0;note_on;80
31920;0;70;0;note_on;80
31920;0;46;0;note_on;80
32160;6;49;240;note_off;64
32160;6;51;0;note_on;80
32160;9;39;480;note_on;80
32400;0;70;480;note_off;64
32400;0;46;0;note_on;80
32400;0;61;0;note_on;80
32400;0;58;0;note_on;80
32400;0;46;0;note_off;64
32400;0;58;0;note_off;64
32400;0;61;0;note_off;64
32400;6;51;240;note_off;64
32400;6;51;0;note_on;80
32400;0;70;0;note_on;80
32640;0;44;0;note_on;80
32640;0;51;0;note_on;80
32640;0;56;0;note_on;80
32640;0;58;0;note_off;64
32640;0;60;0;note_on;80
32640;0;46;0;note_off;64
32640;0;61;0;note_off;64
32640;0;70;240;note_off;64
32640;6;48;0;note_on;80
32640;9;39;480;note_off;64
32640;6;51;240;note_off;64
32880;0;51;0;note_off;64
32880;6;48;240;note_off;64
32880;0;56;0;note_off;64
32880;0;60;240;note_off;64
32880;6;46;0;note_on;80
32880;0;44;0;note_on;80
32880;0;44;0;note_off;64
32880;0;60;0;note_on;80
32880;0;56;0;note_on;80
32880;0;51;0;note_on;80
33120;9;39;480;note_on;80
33120;6;46;240;note_off;64
33120;6;44;0;note_on;80
33360;0;60;480;note_off;64
33360;0;56;0;note_off;64
33360;0;51;0;note_off;64
33360;0;44;0;note_off;64
33360;0;60;0;note_on;80
33360;0;56;0;note_on;80
33360;0;51;0;note_on;80
33360;0;44;0;note_on;80
33600;9;39;480;note_off;64
33600;6;46;0;note_on;80
33600;0;43;0;note_on;80
33600;0;51;0;note_on;80
33600;0;55;0;note_on;80
33600;0;58;0;note_on;80
33600;0;44;0;note_off;64
33600;0;60;240;note_off;64
33600;0;56;0;note_off;64
33600;0;51;0;note_off;64
33600;6;44;480;note_off;64
33840;0;43;0;note_on;80
33840;0;51;0;note_on;80
33840;0;51;0;note_off;64
33840;0;58;0;note_on;80
33840;0;43;0;note_off;64
33840;0;55;0;note_off;64
33840;0;58;240;note_off;64
33840;0;55;0;note_on;80
34080;9;39;480;note_on;80
34320;0;58;480;note_off;64
34320;0;51;0;note_off;64
34320;0;43;0;note_off;64
34320;0;58;0;note_on;80
34320;0;55;0;note_on;80
34320;0;51;0;note_on;80
34320;0;43;0;note_on;80
34320;0;55;0;note_off;64
34320;9;39;240;note_off;64
34320;6;46;720;note_off;64
34320;6;44;0;note_on;80
34440;9;39;120;note_on;80
34560;0;51;0;note_off;64
34560;0;43;0;note_off;64
34560;0;70;0;note_on;80
34560;0;61;0;note_on;80
34560;0;58;0;note_on;80
34560;0;46;0;note_on;80
34560;0;55;0;note_off;64
34560;0;58;240;note_off;64
34560;6;44;240;note_off;64
34560;9;39;120;note_off;64
34800;0;46;0;note_off;64
34800;0;70;0;note_on;80
34800;0;61;0;note_on;80
34800;0;58;0;note_on;80
34800;0;46;0;note_on;80
34800;0;61;0;note_off;64
34800;0;58;0;note_off;64
34800;0;70;240;note_off;64
35040;6;49;480;note_on;80
35040;9;39;480;note_on;80
35280;6;49;240;note_off;64
35280;6;49;0;note_on;80
35280;0;61;0;note_on;80
35280;0;58;0;note_on;80
35280;0;70;0;note_on;80
35280;0;46;0;note_off;64
35280;0;58;0;note_off;64
35280;0;61;0;note_off;64
35280;0;46;0;note_on;80
35280;0;70;480;note_off;64
35520;0;70;240;note_off;64
35520;0;46;0;note_on;80
35520;0;58;0;note_on;80
35520;0;61;0;note_on;80
35520;0;70;0;note_on;80
35520;0;46;0;note_off;64
35520;0;58;0;note_off;64
35520;0;61;0;note_off;64
35520;6;49;0;note_on;80
35520;6;49;240;note_off;64
35520;9;39;480;note_off;64
35760;0;58;0;note_off;64
35760;0;46;0;note_off;64
35760;0;70;0;note_on;80
35760;0;70;240;note_off;64
35760;0;46;0;note_on;80
35760;0;61;0;note_off;64
35760;0;58;0;note_on;80
35760;6;49;240;note_off;64
35760;6;49;0;note_on;80
35760;0;61;0;note_on;80
36000;6;49;240;note_off;64
36000;6;51;0;note_on;80
36000;9;39;480;note_on;80
36240;0;61;0;note_off;64
36240;0;70;480;note_off;64
36240;0;46;0;note_off;64
36240;0;70;0;note_on;80
36240;0;46;0;note_on;80
36240;0;61;0;note_on;80
36240;0;58;0;note_on;80
36240;0;58;0;note_off;64
36480;0;44;0;note_on;80
36480;0;60;0;note_on;80
36480;0;46;0;note_off;64
36480;0;58;0;note_off;64
36480;0;61;0;note_off;64
36480;0;70;240;note_off;64
36480;0;51;0;note_on;80
36480;9;39;480;note_off;64
36480;6;48;0;note_on;80
36480;6;51;480;note_off;64
36480;0;56;0;note_on;80
36720;0;44;0;note_off;64
36720;6;46;0;note_on;80
36720;6;48;240;note_off;64
36720;0;44;0;note_on;80
36720;0;51;0;note_on;80
36720;0;60;240;note_off;64
36720;0;56;0;note_off;64
36720;0;51;0;note_off;64
36720;0;56;0;note_on;80
36720;0;60;0;note_on;80
36960;6;46;240;note_off;64
36960;9;39;480;note_on;80
36960;6;44;0;note_on;80
37200;0;51;0;note_on;80
37200;0;44;0;note_on;80
37200;0;56;0;note_on;80
37200;0;60;0;note_on;80
37200;0;56;0;note_off;64
37200;0;51;0;note_off;64
37200;0;44;0;note_off;64
37200;0;60;480;note_off;64
37440;6;44;480;note_off;64
37440;0;43;0;note_on;80
37440;0;60;240;note_off;64
37440;0;56;0;note_off;64
37440;0;51;0;note_off;64
37440;0;44;0;note_off;64
37440;0;58;0;note_on;80
37440;0;55;0;note_on;80
37440;0;51;0;note_on;80
37440;9;39;480;note_off;64
37680;0;55;0;note_on;80
37680;0;58;240;note_off;64
37680;0;55;0;note_off;64
37680;0;51;0;note_off;64
37680;0;43;0;note_off;64
37680;0;58;0;note_on;80
37680;0;51;0;note_on;80
37680;0;43;0;note_on;80
37920;9;39;480;note_on;80
38160;0;55;0;note_off;64
38160;0;58;480;note_off;64
38160;0;43;0;note_off;64
38160;0;58;0;note_on;80
38160;0;55;0;note_on;80
38160;0;51;0;note_on;80
38160;0;43;0;note_on;80
38160;9;39;240;note_off;64
38160;0;51;0;note_off;64
38280;9;39;120;note_on;80
38400;9;39;120;note_off;64
38400;0;51;0;note_off;64
38400;0;55;0;note_off;64
38400;0;46;0;note_on;80
38400;0;61;0;note_on;80
38400;0;70;0;note_on;80
38400;0;43;0;note_off;64
38400;0;58;240;note_off;64
38400;0;58;0;note_on;80
38640;0;46;0;note_on;80
38640;0;70;240;note_off;64
38640;0;61;0;note_on;80
38640;0;61;0;note_off;64
38640;0;58;0;note_off;64
38640;0;46;0;note_off;64
38640;0;70;0;note_on;80
38640;0;58;0;note_on;80
38880;6;49;1440;note_on;80
38880;9;39;480;note_on;80
39120;6;49;240;note_off;64
39120;6;49;0;note_on;80
39120;0;70;480;note_off;64
39120;0;46;0;note_on;80
39120;0;61;0;note_on;80
39120;0;70;0;note_on;80
39120;0;46;0;note_off;64
39120;0;58;0;note_off;64
39120;0;61;0;note_off;64
39120;0;58;0;note_on;80
39360;6;49;0;note_on;80
39360;6;49;240;note_off;64
39360;9;39;480;note_off;64
39360;0;58;0;note_off;64
39360;0;46;0;note_on;80
39360;0;70;240;note_off;64
39360;0;61;0;note_off;64
39360;0;46;0;note_off;64
39360;0;70;0;note_on;80
39360;0;61;0;note_on;80
39360;0;58;0;note_on;80
39600;6;49;0;note_on;80
39600;6;49;240;note_off;64
39600;0;70;0;note_on;80
39600;0;70;240;note_off;64
39600;0;61;0;note_off;64
39600;0;58;0;note_on;80
39600;0;46;0;note_off;64
39600;0;46;0;note_on;80
39600;0;58;0;note_off;64
39600;0;61;0;note_on;80
39840;6;49;240;note_off;64
39840;6;51;0;note_on;80
39840;9;39;480;note_on;80
40080;0;70;0;note_on;80
40080;6;51;240;note_off;64
40080;0;58;0;note_on;80
40080;0;46;0;note_off;64
40080;0;58;0;note_off;64
40080;0;61;0;note_off;64
40080;0;70;480;note_off;64
40080;0;46;0;note_on;80
40080;0;61;0;note_on;80
40080;6;51;0;note_on;80
40320;0;46;0;note_off;64
40320;0;61;0;note_off;64
40320;6;48;0;note_on;80
40320;6;51;240;note_off;64
40320;0;70;240;note_off;64
40320;0;44;0;note_on;80
40320;9;39;480;note_off;64
40320;0;58;0;note_off;64
40320;0;60;0;note_on;80
40320;0;56;0;note_on;80
40320;0;51;0;note_on;80
40560;0;60;240;note_off;64
40560;6;46;0;note_on;80
40560;6;48;240;note_off;64
40560;0;56;0;note_on;80
40560;0;51;0;note_on;80
40560;0;60;0;note_on;80
40560;0;44;0;note_off;64
40560;0;51;0;note_off;64
40560;0;56;0;note_off;64
40560;0;44;0;note_on;80
40800;6;46;240;note_off;64
40800;6;44;0;note_on;80
40800;9;39;480;note_on;80
41040;0;56;0;note_off;64
41040;0;60;480;note_off;64
41040;0;51;0;note_off;64
41040;0;44;0;note_off;64
41040;0;60;0;note_on;80
41040;0;56;0;note_on;80
41040;0;51;0;note_on;80
41040;0;44;0;note_on;80
41040;6;44;240;note_off;64
41040;6;44;0;note_on;80
41280;0;43;0;note_on;80
41280;0;51;0;note_on;80
41280;0;55;0;note_on;80
41280;0;58;0;note_on;80
41280;6;46;0;note_on;80
41280;6;44;240;note_off;64
41280;0;56;0;note_off;64
41280;0;51;0;note_off;64
41280;0;60;240;note_off;64
41280;9;39;480;note_off;64
41280;0;44;0;note_off;64
41520;0;58;240;note_off;64
41520;0;55;0;note_off;64
41520;0;51;0;note_on;80
41520;0;43;0;note_off;64
41520;0;51;0;note_off;64
41520;0;58;0;note_on;80
41520;0;55;0;note_on;80
41520;0;43;0;note_on;80
41760;9;39;480;note_on;80
42000;6;46;720;note_off;64
42000;6;44;0;note_on;80
42000;0;43;0;note_on;80
42000;0;51;0;note_on;80
42000;9;39;240;note_off;64
42000;0;55;0;note_on;80
42000;0;43;0;note_off;64
42000;0;51;0;note_off;64
42000;0;55;0;note_off;64
42000;0;58;480;note_off;64
42000;0;58;0;note_on;80
42120;9;39;120;note_on;80
42240;0;55;0;note_off;64
42240;0;51;0;note_off;64
42240;0;43;0;note_off;64
42240;0;61;0;note_on;80
42240;0;58;0;note_on;80
42240;0;46;0;note_on;80
42240;9;39;120;note_off;64
42240;0;58;240;note_off;64
42240;0;70;0;note_on;80
42240;6;44;240;note_off;64
42480;0;46;0;note_off;64
42480;0;61;0;note_off;64
42480;0;70;240;note_off;64
42480;0;70;0;note_on;80
42480;0;61;0;note_on;80
42480;0;58;0;note_off;64
42480;0;58;0;note_on;80
42480;0;46;0;note_on;80
42720;6;49;480;note_on;80
42720;9;39;480;note_on;80
42960;0;70;480;note_off;64
42960;0;46;0;note_off;64
42960;0;61;0;note_on;80
42960;0;58;0;note_on;80
42960;0;46;0;note_on;80
42960;0;58;0;note_off;64
42960;0;70;0;note_on;80
42960;0;61;0;note_off;64
42960;6;49;240;note_off;64
42960;6;49;0;note_on;80
43200;0;58;0;note_off;64
43200;9;39;480;note_off;64
43200;0;61;0;note_off;64
43200;0;70;240;note_off;64
43200;0;61;0;note_on;80
43200;0;58;0;note_on;80
43200;0;46;0;note_on;80
43200;6;49;0;note_on;80
43200;0;46;0;note_off;64
43200;0;70;0;note_on;80
43200;6;49;240;note_off;64
43440;0;61;0;note_off;64
43440;6;49;240;note_off;64
43440;6;49;0;note_on;80
43440;0;58;0;note_off;64
43440;0;46;0;note_off;64
43440;0;70;0;note_on;80
43440;0;61;0;note_on;80
43440;0;58;0;note_on;80
43440;0;46;0;note_on;80
43440;0;70;240;note_off;64
43680;9;39;480;note_on;80
43680;6;51;0;note_on;80
43680;6;49;240;note_off;64
43920;0;61;0;note_on;80
43920;0;70;0;note_on;80
43920;0;46;0;note_off;64
43920;0;58;0;note_off;64
43920;0;61;0;note_off;64
43920;0;70;480;note_off;64
43920;0;46;0;note_on;80
43920;0;58;0;note_on;80
44160;0;44;0;note_on;80
44160;0;56;0;note_on;80
44160;0;60;0;note_on;80
44160;0;58;0;note_off;64
44160;0;61;0;note_off;64
44160;0;70;240;note_off;64
44160;6;51;480;note_off;64
44160;0;51;0;note_on;80
44160;0;46;0;note_off;64
44160;9;39;480;note_off;64
44160;6;48;0;note_on;80
44400;0;44;0;note_off;64
44400;6;46;0;note_on;80
44400;0;44;0;note_on;80
44400;0;51;0;note_on;80
44400;0;56;0;note_on;80
44400;0;60;0;note_on;80
44400;0;51;0;note_off;64
44400;6;48;240;note_off;64
44400;0;60;240;note_off;64
44400;0;56;0;note_off;64
44640;9;39;480;note_on;80
44640;6;44;0;note_on;80
44640;6;46;240;note_off;64
44880;6;44;0;note_on;80
44880;0;44;0;note_off;64
44880;0;60;0;note_on;80
44880;0;51;0;note_on;80
44880;0;44;0;note_on;80
44880;0;56;0;note_on;80
44880;6;44;240;note_off;64
44880;0;51;0;note_off;64
44880;0;56;0;note_off;64
44880;0;60;480;note_off;64
45120;0;43;0;note_on;80
45120;0;51;0;note_on;80
45120;0;55;0;note_on;80
45120;0;58;0;note_on;80
45120;0;44;0;note_off;64
45120;0;51;0;note_off;64
45120;0;56;0;note_off;64
45120;0;60;240;note_off;64
45120;6;44;240;note_off;64
45120;6;43;0;note_on;72
45120;9;39;480;note_off;64
45360;0;58;0;note_on;80
45360;0;43;0;note_off;64
45360;0;51;0;note_off;64
45360;0;55;0;note_off;64
45360;0;58;240;note_off;64
45360;0;55;0;note_on;80
45360;0;43;0;note_on;80
45360;0;51;0;note_on;80
45600;9;39;480;note_on;80
45840;0;55;0;note_off;64
45840;0;58;480;note_off;64
45840;0;51;0;note_off;64
45840;0;55;0;note_on;80
45840;0;58;0;note_on;80
45840;0;43;0;note_off;64
45840;0;51;0;note_on;80
45840;6;43;720;note_off;64
45840;9;39;240;note_off;64
45840;0;43;0;note_on;80
45960;9;39;120;note_on;80
46080;4;70;46080;note_on;80
46080;2;34;30960;note_on;80
46080;0;46;0;note_on;80
46080;0;58;0;note_on;80
46080;0;61;0;note_on;80
46080;0;70;0;note_on;80
46080;0;43;0;note_off;64
46080;0;51;0;note_off;64
46080;0;55;0;note_off;64
46080;0;58;240;note_off;64
46080;9;39;0;note_on;80
46080;9;39;120;note_off;64
46320;0;70;0;note_on;80
46320;0;61;0;note_off;64
46320;2;34;240;note_off;64
46320;2;34;0;note_on;80
46320;4;70;0;note_on;80
46320;0;70;240;note_off;64
46320;0;46;0;note_on;80
46320;4;70;240;note_off;64
46320;0;61;0;note_on;80
46320;0;46;0;note_off;64
46320;0;58;0;note_off;64
46320;0;58;0;note_on;80
46560;9;39;0;note_on;80
46560;4;70;240;note_off;64
46560;4;72;0;note_on;80
46560;2;34;0;note_on;80
46560;2;34;240;note_off;64
46560;9;39;480;note_off;64
46800;0;46;0;note_on;80
46800;0;46;0;note_off;64
46800;0;70;0;note_on;80
46800;4;72;240;note_off;64
46800;4;73;0;note_on;80
46800;2;34;240;note_off;64
46800;6;56;960;note_on;80
46800;0;70;480;note_off;64
46800;0;61;0;note_off;64
46800;0;61;0;note_on;80
46800;0;58;0;note_off;64
46800;0;58;0;note_on;80
46800;2;34;0;note_on;80
47040;0;58;0;note_on;80
47040;0;61;0;note_on;80
47040;9;39;480;note_off;64
47040;0;46;0;note_off;64
47040;0;58;0;note_off;64
47040;0;61;0;note_off;64
47040;0;70;240;note_off;64
47040;2;34;0;note_on;80
47040;2;34;240;note_off;64
47040;9;39;0;note_on;80
47040;0;70;0;note_on;80
47040;0;46;0;note_on;80
47040;4;75;0;note_on;80
47040;4;73;240;note_off;64
47280;0;46;0;note_off;64
47280;4;73;0;note_on;80
47280;0;46;0;note_on;80
47280;0;58;0;note_on;80
47280;0;61;0;note_on;80
47280;0;70;0;note_on;80
47280;0;58;0;note_off;64
47280;0;61;0;note_off;64
47280;0;70;240;note_off;64
47280;6;56;480;note_off;64
47280;2;34;240;note_off;64
47280;6;53;0;note_on;80
47280;2;34;0;note_on;80
47280;4;75;240;note_off;64
47520;9;39;0;note_on;80
47520;4;72;0;note_on;80
47520;9;39;480;note_off;64
47520;2;34;0;note_on;80
47520;2;34;240;note_off;64
47520;4;73;240;note_off;64
47760;4;72;240;note_off;64
47760;4;70;0;note_on;80
47760;0;58;0;note_off;64
47760;0;46;0;note_on;80
47760;0;58;0;note_on;80
47760;0;61;0;note_on;80
47760;0;70;0;note_on;80
47760;0;46;0;note_off;64
47760;0;61;0;note_off;64
47760;0;70;480;note_off;64
47760;2;34;240;note_off;64
47760;2;34;0;note_on;80
48000;4;65;0;note_on;80
48000;4;70;240;note_off;64
48000;6;53;720;note_off;64
48000;6;68;0;note_on;72
48000;0;51;0;note_on;80
48000;2;32;0;note_on;80
48000;0;44;0;note_on;80
48000;2;34;240;note_off;64
48000;0;61;0;note_off;64
48000;0;58;0;note_off;64
48000;0;46;0;note_off;64
48000;0;70;240;note_off;64
48000;9;39;480;note_off;64
48000;0;60;0;note_on;80
48000;0;56;0;note_on;80
48000;9;39;0;note_on;80
48240;0;51;0;note_on;80
48240;0;44;0;note_on;80
48240;0;56;0;note_on;80
48240;0;60;0;note_on;80
48240;0;44;0;note_off;64
48240;0;51;0;note_off;64
48240;0;56;0;note_off;64
48240;0;60;240;note_off;64
48240;6;68;0;note_on;72
48240;6;68;240;note_off;64
48240;2;32;0;note_on;80
48240;2;32;240;note_off;64
48240;4;70;0;note_on;80
48240;4;65;240;note_off;64
48480;2;32;0;note_on;80
48480;2;32;240;note_off;64
48480;9;39;480;note_off;64
48480;9;39;0;note_on;80
48480;6;66;0;note_on;72
48480;4;70;240;note_off;64
48480;4;72;0;note_on;80
48480;6;68;240;note_off;64
48720;4;72;240;note_off;64
48720;4;73;0;note_on;80
48720;2;32;240;note_off;64
48720;2;32;0;note_on;80
48720;0;56;0;note_off;64
48720;0;60;480;note_off;64
48720;6;66;240;note_off;64
48720;6;66;0;note_on;72
48720;0;44;0;note_off;64
48720;0;60;0;note_on;80
48720;0;56;0;note_on;80
48720;0;51;0;note_on;80
48720;0;44;0;note_on;80
48720;0;51;0;note_off;64
48960;4;73;240;note_off;64
48960;0;43;0;note_on;80
48960;0;51;0;note_on;80
48960;0;55;0;note_on;80
48960;0;58;0;note_on;80
48960;0;51;0;note_off;64
48960;0;44;0;note_off;64
48960;0;56;0;note_off;64
48960;0;60;240;note_off;64
48960;2;32;240;note_off;64
48960;2;27;0;note_on;80
48960;9;39;0;note_on;80
48960;4;65;0;note_on;80
48960;9;39;480;note_off;64
48960;6;66;240;note_off;64
48960;6;65;0;note_on;72
49200;0;43;0;note_off;64
49200;0;58;0;note_on;80
49200;0;55;0;note_on;80
49200;0;51;0;note_on;80
49200;0;43;0;note_on;80
49200;0;58;240;note_off;64
49200;0;51;0;note_off;64
49200;0;55;0;note_off;64
49200;2;27;0;note_on;80
49200;2;27;240;note_off;64
49200;4;65;240;note_off;64
49200;4;70;0;note_on;80
49440;6;65;0;note_on;72
49440;6;65;480;note_off;64
49440;9;39;480;note_off;64
49440;9;39;0;note_on;80
49440;4;70;240;note_off;64
49440;4;72;0;note_on;80
49440;2;27;240;note_off;64
49440;2;27;0;note_on;80
49680;2;27;240;note_off;64
49680;2;27;0;note_on;80
49680;4;72;240;note_off;64
49680;0;43;0;note_on;80
49680;0;51;0;note_on;80
49680;0;55;0;note_on;80
49680;0;58;0;note_on;80
49680;4;73;0;note_on;80
49680;0;43;0;note_off;64
49680;0;51;0;note_off;64
49680;0;55;0;note_off;64
49680;0;58;480;note_off;64
49800;9;39;360;note_off;64
49800;9;39;0;note_on;80
49920;0;58;240;note_off;64
49920;9;39;120;note_off;64
49920;9;39;0;note_on;80
49920;0;58;0;note_on;80
49920;0;51;0;note_off;64
49920;0;43;0;note_off;64
49920;0;70;0;note_on;80
49920;0;61;0;note_on;80
49920;6;65;480;note_off;64
49920;0;55;0;note_off;64
49920;0;46;0;note_on;80
49920;4;70;0;note_on;80
49920;4;73;240;note_off;64
49920;2;27;240;note_off;64
49920;2;34;0;note_on;80
50160;0;46;0;note_on;80
50160;0;58;0;note_on;80
50160;0;61;0;note_on;80
50160;0;70;0;note_on;80
50160;0;46;0;note_off;64
50160;0;58;0;note_off;64
50160;0;70;240;note_off;64
50160;2;34;240;note_off;64
50160;0;61;0;note_off;64
50160;4;70;0;note_on;80
50160;2;34;0;note_on;80
50160;4;70;240;note_off;64
50400;2;34;240;note_off;64
50400;2;34;0;note_on;80
50400;9;39;0;note_on;80
50400;9;39;480;note_off;64
50400;4;72;0;note_on;80
50400;4;70;240;note_off;64
50640;0;58;0;note_on;80
50640;0;61;0;note_on;80
50640;0;70;0;note_on;80
50640;0;46;0;note_off;64
50640;0;58;0;note_off;64
50640;0;46;0;note_on;80
50640;4;73;0;note_on;80
50640;0;70;480;note_off;64
50640;4;72;240;note_off;64
50640;2;34;0;note_on;80
50640;6;53;720;note_on;80
50640;2;34;240;note_off;64
50640;0;61;0;note_off;64
50880;2;34;0;note_on;80
50880;2;34;240;note_off;64
50880;4;75;0;note_on;80
50880;0;58;0;note_off;64
50880;0;61;0;note_on;80
50880;0;58;0;note_on;80
50880;0;46;0;note_on;80
50880;9;39;480;note_off;64
50880;9;39;0;note_on;80
50880;0;46;0;note_off;64
50880;0;61;0;note_off;64
50880;0;70;240;note_off;64
50880;0;70;0;note_on;80
50880;4;73;240;note_off;64
51120;0;70;240;note_off;64
51120;0;61;0;note_off;64
51120;4;75;240;note_off;64
51120;0;46;0;note_off;64
51120;0;70;0;note_on;80
51120;0;61;0;note_on;80
51120;0;58;0;note_on;80
51120;0;46;0;note_on;80
51120;2;34;240;note_off;64
51120;2;34;0;note_on;80
51120;0;58;0;note_off;64
51120;6;53;480;note_off;64
51120;6;51;0;note_on;80
51120;4;73;0;note_on;80
51360;4;72;0;note_on;80
51360;9;39;480;note_off;64
51360;9;39;0;note_on;80
51360;2;34;0;note_on;80
51360;2;34;240;note_off;64
51360;4;73;240;note_off;64
51600;0;58;0;note_off;64
51600;0;46;0;note_off;64
51600;0;70;0;note_on;80
51600;0;61;0;note_on;80
51600;0;46;0;note_on;80
51600;0;58;0;note_on;80
51600;2;34;240;note_off;64
51600;2;34;0;note_on;80
51600;4;72;240;note_off;64
51600;4;70;0;note_on;80
51600;0;70;480;note_off;64
51600;0;61;0;note_off;64
51840;2;34;240;note_off;64
51840;2;32;0;note_on;80
51840;4;70;240;note_off;64
51840;9;39;480;note_off;64
51840;0;46;0;note_off;64
51840;0;58;0;note_off;64
51840;0;61;0;note_off;64
51840;0;70;240;note_off;64
51840;0;44;0;note_on;80
51840;9;39;0;note_on;80
51840;0;56;0;note_on;80
51840;6;51;720;note_off;64
51840;6;65;0;note_on;72
51840;0;60;0;note_on;80
51840;4;65;0;note_on;80
51840;0;51;0;note_on;80
52080;2;32;240;note_off;64
52080;2;32;0;note_on;80
52080;6;65;0;note_on;72
52080;4;70;0;note_on;80
52080;0;44;0;note_on;80
52080;4;65;240;note_off;64
52080;6;65;240;note_off;64
52080;0;51;0;note_on;80
52080;0;60;0;note_on;80
52080;0;44;0;note_off;64
52080;0;51;0;note_off;64
52080;0;56;0;note_off;64
52080;0;56;0;note_on;80
52080;0;60;240;note_off;64
52320;9;39;480;note_off;64
52320;6;65;240;note_off;64
52320;2;32;240;note_off;64
52320;2;32;0;note_on;80
52320;9;39;0;note_on;80
52320;4;72;0;note_on;80
52320;4;70;240;note_off;64
52320;6;65;0;note_on;72
52560;0;60;480;note_off;64
52560;0;56;0;note_off;64
52560;0;51;0;note_off;64
52560;4;73;0;note_on;80
52560;0;60;0;note_on;80
52560;4;72;240;note_off;64
52560;2;32;240;note_off;64
52560;0;44;0;note_on;80
52560;0;44;0;note_off;64
52560;2;32;0;note_on;80
52560;0;56;0;note_on;80
52560;0;51;0;note_on;80
52560;6;65;240;note_off;64
52560;6;66;0;note_on;72
52800;0;43;0;note_on;80
52800;0;51;0;note_on;80
52800;0;55;0;note_on;80
52800;0;58;0;note_on;80
52800;0;44;0;note_off;64
52800;0;51;0;note_off;64
52800;4;65;0;note_on;80
52800;4;73;240;note_off;64
52800;0;56;0;note_off;64
52800;9;39;480;note_off;64
52800;9;39;0;note_on;80
52800;0;60;240;note_off;64
52800;6;65;0;note_on;72
52800;6;66;240;note_off;64
52800;2;32;240;note_off;64
52800;2;27;0;note_on;80
53040;2;27;240;note_off;64
53040;2;27;0;note_on;80
53040;0;58;240;note_off;64
53040;0;55;0;note_off;64
53040;0;51;0;note_off;64
53040;0;43;0;note_off;64
53040;0;58;0;note_on;80
53040;0;55;0;note_on;80
53040;0;51;0;note_on;80
53040;4;70;0;note_on;80
53040;4;65;240;note_off;64
53040;0;43;0;note_on;80
53280;2;27;0;note_on;80
53280;2;27;240;note_off;64
53280;6;65;480;note_off;64
53280;9;39;0;note_on;80
53280;6;63;0;note_on;72
53280;4;70;240;note_off;64
53280;4;72;0;note_on;80
53280;9;39;480;note_off;64
53520;0;43;0;note_on;80
53520;0;51;0;note_on;80
53520;0;55;0;note_on;80
53520;0;58;0;note_on;80
53520;0;43;0;note_off;64
53520;0;51;0;note_off;64
53520;0;55;0;note_off;64
53520;0;58;480;note_off;64
53520;2;27;0;note_on;80
53520;2;27;240;note_off;64
53520;4;72;240;note_off;64
53520;4;73;0;note_on;80
53640;9;39;360;note_off;64
53640;9;39;0;note_on;80
53760;0;58;240;note_off;64
53760;2;34;0;note_on;80
53760;0;55;0;note_off;64
53760;2;27;240;note_off;64
53760;0;46;0;note_on;80
53760;0;58;0;note_on;80
53760;0;61;0;note_on;80
53760;0;70;0;note_on;80
53760;6;63;480;note_off;64
53760;0;43;0;note_off;64
53760;4;73;240;note_off;64
53760;0;51;0;note_off;64
53760;4;70;0;note_on;80
53760;9;39;120;note_off;64
53760;9;39;0;note_on;80
54000;0;58;0;note_off;64
54000;0;70;240;note_off;64
54000;2;34;0;note_on;80
54000;0;70;0;note_on;80
54000;0;61;0;note_on;80
54000;0;58;0;note_on;80
54000;0;46;0;note_on;80
54000;2;34;240;note_off;64
54000;4;70;0;note_on;80
54000;4;70;240;note_off;64
54000;0;61;0;note_off;64
54000;0;46;0;note_off;64
54240;2;34;240;note_off;64
54240;2;34;0;note_on;80
54240;9;39;0;note_on;80
54240;4;70;240;note_off;64
54240;4;72;0;note_on;80
54240;9;39;480;note_off;64
54480;0;58;0;note_on;80
54480;0;46;0;note_on;80
54480;0;70;0;note_on;80
54480;0;46;0;note_off;64
54480;4;72;240;note_off;64
54480;0;58;0;note_off;64
54480;0;61;0;note_off;64
54480;2;34;240;note_off;64
54480;2;34;0;note_on;80
54480;0;70;480;note_off;64
54480;6;56;720;note_on;80
54480;4;73;0;note_on;80
54480;0;61;0;note_on;80
54720;4;73;240;note_off;64
54720;4;75;0;note_on;80
54720;0;58;0;note_off;64
54720;0;61;0;note_off;64
54720;0;46;0;note_on;80
54720;0;58;0;note_on;80
54720;0;61;0;note_on;80
54720;9;39;0;note_on;80
54720;9;39;480;note_off;64
54720;0;70;240;note_off;64
54720;2;34;0;note_on;80
54720;2;34;240;note_off;64
54720;0;70;0;note_on;80
54720;0;46;0;note_off;64
54960;4;75;240;note_off;64
54960;0;61;0;note_on;80
54960;0;70;0;note_on;80
54960;6;56;480;note_off;64
54960;0;46;0;note_on;80
54960;0;58;0;note_on;80
54960;4;73;0;note_on;80
54960;2;34;0;note_on;80
54960;0;46;0;note_off;64
54960;0;58;0;note_off;64
54960;0;61;0;note_off;64
54960;0;70;240;note_off;64
54960;2;34;240;note_off;64
54960;6;53;0;note_on;80
55200;2;34;240;note_off;64
55200;4;72;0;note_on;80
55200;9;39;0;note_on;80
55200;2;34;0;note_on;80
55200;9;39;480;note_off;64
55200;4;73;240;note_off;64
55440;0;70;480;note_off;64
55440;0;61;0;note_off;64
55440;0;58;0;note_off;64
55440;0;46;0;note_off;64
55440;0;70;0;note_on;80
55440;0;61;0;note_on;80
55440;0;58;0;note_on;80
55440;2;34;240;note_off;64
55440;0;46;0;note_on;80
55440;4;72;240;note_off;64
55440;4;70;0;note_on;80
55440;2;34;0;note_on;80
55680;0;58;0;note_off;64
55680;2;34;240;note_off;64
55680;2;32;0;note_on;80
55680;9;39;480;note_off;64
55680;9;39;0;note_on;80
55680;6;53;720;note_off;64
55680;6;68;0;note_on;72
55680;0;46;0;note_off;64
55680;0;44;0;note_on;80
55680;0;70;240;note_off;64
55680;4;70;240;note_off;64
55680;0;51;0;note_on;80
55680;0;56;0;note_on;80
55680;4;65;0;note_on;80
55680;0;61;0;note_off;64
55680;0;60;0;note_on;80
55920;6;68;240;note_off;64
55920;6;68;0;note_on;72
55920;4;65;240;note_off;64
55920;2;32;0;note_on;80
55920;2;32;240;note_off;64
55920;4;70;0;note_on;80
55920;0;51;0;note_on;80
55920;0;56;0;note_on;80
55920;0;60;0;note_on;80
55920;0;44;0;note_off;64
55920;0;51;0;note_off;64
55920;0;56;0;note_off;64
55920;0;60;240;note_off;64
55920;0;44;0;note_on;80
56160;2;32;240;note_off;64
56160;2;32;0;note_on;80
56160;9;39;480;note_off;64
56160;4;70;240;note_off;64
56160;6;66;0;note_on;72
56160;4;72;0;note_on;80
56160;9;39;0;note_on;80
56160;6;68;240;note_off;64
56400;2;32;0;note_on;80
56400;2;32;240;note_off;64
56400;0;44;0;note_on;80
56400;0;51;0;note_on;80
56400;0;60;0;note_on;80
56400;0;44;0;note_off;64
56400;0;56;0;note_off;64
56400;0;60;480;note_off;64
56400;0;51;0;note_off;64
56400;0;56;0;note_on;80
56400;6;66;240;note_off;64
56400;6;66;0;note_on;72
56400;4;72;240;note_off;64
56400;4;73;0;note_on;80
56640;6;65;0;note_on;72
56640;6;66;240;note_off;64
56640;0;51;0;note_on;80
56640;0;55;0;note_on;80
56640;0;58;0;note_on;80
56640;0;44;0;note_off;64
56640;0;51;0;note_off;64
56640;0;56;0;note_off;64
56640;0;60;240;note_off;64
56640;0;43;0;note_on;80
56640;2;27;0;note_on;80
56640;9;39;480;note_off;64
56640;9;39;0;note_on;80
56640;2;32;240;note_off;64
56640;4;73;240;note_off;64
56640;4;65;0;note_on;80
56880;0;51;0;note_on;80
56880;0;55;0;note_off;64
56880;0;58;240;note_off;64
56880;0;58;0;note_on;80
56880;4;65;240;note_off;64
56880;0;55;0;note_on;80
56880;0;51;0;note_off;64
56880;0;43;0;note_on;80
56880;2;27;0;note_on;80
56880;2;27;240;note_off;64
56880;4;70;0;note_on;80
56880;0;43;0;note_off;64
57120;6;65;480;note_off;64
57120;6;65;0;note_on;72
57120;9;39;0;note_on;80
57120;4;70;240;note_off;64
57120;9;39;480;note_off;64
57120;4;72;0;note_on;80
57120;2;27;240;note_off;64
57120;2;27;0;note_on;80
57360;2;27;240;note_off;64
57360;2;27;0;note_on;80
57360;0;43;0;note_on;80
57360;0;51;0;note_on;80
57360;4;73;0;note_on;80
57360;0;58;0;note_on;80
57360;0;43;0;note_off;64
57360;0;51;0;note_off;64
57360;0;55;0;note_off;64
57360;0;58;480;note_off;64
57360;4;72;240;note_off;64
57360;0;55;0;note_on;80
57480;9;39;0;note_on;80
57480;9;39;360;note_off;64
57600;2;27;240;note_off;64
57600;9;39;120;note_off;64
57600;9;39;0;note_on;80
57600;6;65;480;note_off;64
57600;2;34;0;note_on;80
57600;4;70;0;note_on;80
57600;0;61;0;note_on;80
57600;4;73;240;note_off;64
57600;0;58;240;note_off;64
57600;0;55;0;note_off;64
57600;0;51;0;note_off;64
57600;0;43;0;note_off;64
57600;0;46;0;note_on;80
57600;0;70;0;note_on;80
57600;0;58;0;note_on;80
57840;2;34;0;note_on;80
57840;2;34;240;note_off;64
57840;0;58;0;note_off;64
57840;0;46;0;note_off;64
57840;0;61;0;note_on;80
57840;0;61;0;note_off;64
57840;0;70;240;note_off;64
57840;0;58;0;note_on;80
57840;4;70;0;note_on;80
57840;4;70;240;note_off;64
57840;0;70;0;note_on;80
57840;0;46;0;note_on;80
58080;4;72;0;note_on;80
58080;4;70;240;note_off;64
58080;9;39;0;note_on;80
58080;9;39;480;note_off;64
58080;2;34;240;note_off;64
58080;2;34;0;note_on;80
58320;6;53;720;note_on;80
58320;4;72;240;note_off;64
58320;4;73;0;note_on;80
58320;2;34;0;note_on;80
58320;2;34;240;note_off;64
58320;0;58;0;note_on;80
58320;0;46;0;note_on;80
58320;0;70;480;note_off;64
58320;0;61;0;note_off;64
58320;0;58;0;note_off;64
58320;0;46;0;note_off;64
58320;0;70;0;note_on;80
58320;0;61;0;note_on;80
58560;0;70;0;note_on;80
58560;0;46;0;note_off;64
58560;0;58;0;note_off;64
58560;0;61;0;note_off;64
58560;4;73;240;note_off;64
58560;4;75;0;note_on;80
58560;0;58;0;note_on;80
58560;9;39;0;note_on;80
58560;9;39;480;note_off;64
58560;0;61;0;note_on;80
58560;2;34;0;note_on;80
58560;2;34;240;note_off;64
58560;0;70;240;note_off;64
58560;0;46;0;note_on;80
58800;6;51;0;note_on;80
58800;0;58;0;note_on;80
58800;0;70;240;note_off;64
58800;6;53;480;note_off;64
58800;2;34;240;note_off;64
58800;0;61;0;note_on;80
58800;0;46;0;note_on;80
58800;4;73;0;note_on;80
58800;2;34;0;note_on;80
58800;4;75;240;note_off;64
58800;0;70;0;note_on;80
58800;0;46;0;note_off;64
58800;0;58;0;note_off;64
58800;0;61;0;note_off;64
59040;9;39;480;note_off;64
59040;4;73;240;note_off;64
59040;2;34;0;note_on;80
59040;2;34;240;note_off;64
59040;9;39;0;note_on;80
59040;4;72;0;note_on;80
59280;2;34;0;note_on;80
59280;2;34;240;note_off;64
59280;4;72;240;note_off;64
59280;4;70;0;note_on;80
59280;0;61;0;note_on;80
59280;0;70;0;note_on;80
59280;0;70;480;note_off;64
59280;0;61;0;note_off;64
59280;0;58;0;note_off;64
59280;0;46;0;note_off;64
59280;0;58;0;note_on;80
59280;0;46;0;note_on;80
59520;4;65;0;note_on;80
59520;4;70;240;note_off;64
59520;6;65;0;note_on;72
59520;6;51;720;note_off;64
59520;9;39;480;note_off;64
59520;2;34;240;note_off;64
59520;0;70;240;note_off;64
59520;0;61;0;note_off;64
59520;0;58;0;note_off;64
59520;9;39;0;note_on;80
59520;0;60;0;note_on;80
59520;0;46;0;note_off;64
59520;0;44;0;note_on;80
59520;2;32;0;note_on;80
59520;0;51;0;note_on;80
59520;0;56;0;note_on;80
59760;0;60;240;note_off;64
59760;4;70;0;note_on;80
59760;4;65;240;note_off;64
59760;2;32;240;note_off;64
59760;2;32;0;note_on;80
59760;6;65;240;note_off;64
59760;6;65;0;note_on;72
59760;0;51;0;note_on;80
59760;0;56;0;note_on;80
59760;0;60;0;note_on;80
59760;0;44;0;note_off;64
59760;0;51;0;note_off;64
59760;0;56;0;note_off;64
59760;0;44;0;note_on;80
60000;6;65;240;note_off;64
60000;2;32;0;note_on;80
60000;2;32;240;note_off;64
60000;9;39;0;note_on;80
60000;9;39;480;note_off;64
60000;4;70;240;note_off;64
60000;4;72;0;note_on;80
60000;6;65;0;note_on;72
60240;4;73;0;note_on;80
60240;0;56;0;note_on;80
60240;0;60;0;note_on;80
60240;0;44;0;note_off;64
60240;0;51;0;note_off;64
60240;0;56;0;note_off;64
60240;0;60;480;note_off;64
60240;0;44;0;note_on;80
60240;2;32;240;note_off;64
60240;2;32;0;note_on;80
60240;0;51;0;note_on;80
60240;6;66;0;note_on;72
60240;6;65;240;note_off;64
60240;4;72;240;note_off;64
60480;0;55;0;note_on;80
60480;0;58;0;note_on;80
60480;0;51;0;note_on;80
60480;0;51;0;note_off;64
60480;0;56;0;note_off;64
60480;0;44;0;note_off;64
60480;0;43;0;note_on;80
60480;0;60;240;note_off;64
60480;2;32;240;note_off;64
60480;4;73;240;note_off;64
60480;4;65;0;note_on;80
60480;2;27;0;note_on;80
60480;9;39;480;note_off;64
60480;9;39;0;note_on;80
60480;6;65;0;note_on;72
60480;6;66;240;note_off;64
60720;0;51;0;note_off;64
60720;0;43;0;note_off;64
60720;0;58;0;note_on;80
60720;0;55;0;note_on;80
60720;0;51;0;note_on;80
60720;0;43;0;note_on;80
60720;0;58;240;note_off;64
60720;0;55;0;note_off;64
60720;2;27;0;note_on;80
60720;4;70;0;note_on;80
60720;4;65;240;note_off;64
60720;2;27;240;note_off;64
60960;9;39;0;note_on;80
60960;4;72;0;note_on;80
60960;4;70;240;note_off;64
60960;9;39;480;note_off;64
60960;6;65;480;note_off;64
60960;2;27;0;note_on;80
60960;2;27;240;note_off;64
60960;6;63;0;note_on;72
61200;4;72;240;note_off;64
61200;2;27;0;note_on;80
61200;2;27;240;note_off;64
61200;0;58;480;note_off;64
61200;0;55;0;note_off;64
61200;4;73;0;note_on;80
61200;0;51;0;note_on;80
61200;0;51;0;note_off;64
61200;0;43;0;note_off;64
61200;0;58;0;note_on;80
61200;0;55;0;note_on;80
61200;0;43;0;note_on;80
61320;9;39;360;note_off;64
61320;9;39;0;note_on;80
61440;0;43;0;note_off;64
61440;0;58;0;note_on;80
61440;0;61;0;note_on;80
61440;0;70;0;note_on;80
61440;0;58;240;note_off;64
61440;0;55;0;note_off;64
61440;0;46;0;note_on;80
61440;0;51;0;note_off;64
61440;2;27;240;note_off;64
61440;2;34;0;note_on;80
61440;9;39;120;note_off;64
61440;9;39;0;note_on;80
61440;4;73;240;note_off;64
61440;6;63;480;note_off;64
61440;4;70;0;note_on;80
61680;0;46;0;note_on;80
61680;0;58;0;note_on;80
61680;0;61;0;note_on;80
61680;0;70;0;note_on;80
61680;0;46;0;note_off;64
61680;0;58;0;note_off;64
61680;0;61;0;note_off;64
61680;0;70;240;note_off;64
61680;4;70;240;note_off;64
61680;4;70;0;note_on;80
61680;2;34;240;note_off;64
61680;2;34;0;note_on;80
61920;4;70;240;note_off;64
61920;2;34;240;note_off;64
61920;4;72;0;note_on;80
61920;9;39;480;note_off;64
61920;2;34;0;note_on;80
61920;9;39;0;note_on;80
62160;2;34;0;note_on;80
62160;2;34;240;note_off;64
62160;6;58;720;note_on;80
62160;4;73;0;note_on;80
62160;4;72;240;note_off;64
62160;0;58;0;note_on;80
62160;0;70;480;note_off;64
62160;0;61;0;note_off;64
62160;0;46;0;note_off;64
62160;0;70;0;note_on;80
62160;0;61;0;note_on;80
62160;0;46;0;note_on;80
62160;0;58;0;note_off;64
62400;0;46;0;note_off;64
62400;2;34;0;note_on;80
62400;2;34;240;note_off;64
62400;4;75;0;note_on;80
62400;4;73;240;note_off;64
62400;9;39;480;note_off;64
62400;0;70;240;note_off;64
62400;0;61;0;note_off;64
62400;0;58;0;note_off;64
62400;0;46;0;note_on;80
62400;9;39;0;note_on;80
62400;0;70;0;note_on;80
62400;0;61;0;note_on;80
62400;0;58;0;note_on;80
62640;0;61;0;note_off;64
62640;4;75;240;note_off;64
62640;4;73;0;note_on;80
62640;2;34;240;note_off;64
62640;2;34;0;note_on;80
62640;0;70;240;note_off;64
62640;6;58;480;note_off;64
62640;0;58;0;note_off;64
62640;0;46;0;note_off;64
62640;0;70;0;note_on;80
62640;0;61;0;note_on;80
62640;0;58;0;note_on;80
62640;0;46;0;note_on;80
62640;6;56;0;note_on;80
62880;2;34;0;note_on;80
62880;9;39;480;note_off;64
62880;9;39;0;note_on;80
62880;2;34;240;note_off;64
62880;4;72;0;note_on;80
62880;4;73;240;note_off;64
63120;0;70;480;note_off;64
63120;0;61;0;note_off;64
63120;0;58;0;note_off;64
63120;0;46;0;note_off;64
63120;0;70;0;note_on;80
63120;0;61;0;note_on;80
63120;0;46;0;note_on;80
63120;4;70;0;note_on;80
63120;0;58;0;note_on;80
63120;2;34;0;note_on;80
63120;4;72;240;note_off;64
63120;2;34;240;note_off;64
63360;6;56;720;note_off;64
63360;6;68;0;note_on;72
63360;9;39;480;note_off;64
63360;9;39;0;note_on;80
63360;2;32;0;note_on;80
63360;2;34;240;note_off;64
63360;0;70;240;note_off;64
63360;0;44;0;note_on;80
63360;0;51;0;note_on;80
63360;0;56;0;note_on;80
63360;0;60;0;note_on;80
63360;0;46;0;note_off;64
63360;0;58;0;note_off;64
63360;0;61;0;note_off;64
63360;4;70;240;note_off;64
63360;4;65;0;note_on;80
63600;0;60;240;note_off;64
63600;0;51;0;note_off;64
63600;0;44;0;note_off;64
63600;0;60;0;note_on;80
63600;0;51;0;note_on;80
63600;0;44;0;note_on;80
63600;0;56;0;note_off;64
63600;0;56;0;note_on;80
63600;4;65;240;note_off;64
63600;4;70;0;note_on;80
63600;2;32;0;note_on;80
63600;2;32;240;note_off;64
63600;6;68;240;note_off;64
63600;6;68;0;note_on;72
63840;2;32;240;note_off;64
63840;6;68;240;note_off;64
63840;6;66;0;note_on;72
63840;9;39;480;note_off;64
63840;9;39;0;note_on;80
63840;4;72;0;note_on;80
63840;4;70;240;note_off;64
63840;2;32;0;note_on;80
64080;0;44;0;note_off;64
64080;0;51;0;note_off;64
64080;0;60;0;note_on;80
64080;0;56;0;note_on;80
64080;0;51;0;note_on;80
64080;0;44;0;note_on;80
64080;0;56;0;note_off;64
64080;0;60;480;note_off;64
64080;2;32;0;note_on;80
64080;6;66;240;note_off;64
64080;6;66;0;note_on;72
64080;4;73;0;note_on;80
64080;4;72;240;note_off;64
64080;2;32;240;note_off;64
64320;0;43;0;note_on;80
64320;4;65;0;note_on;80
64320;4;73;240;note_off;64
64320;0;60;240;note_off;64
64320;0;56;0;note_off;64
64320;0;51;0;note_off;64
64320;0;44;0;note_off;64
64320;0;58;0;note_on;80
64320;0;55;0;note_on;80
64320;0;51;0;note_on;80
64320;2;27;0;note_on;80
64320;2;32;240;note_off;64
64320;6;66;240;note_off;64
64320;6;65;0;note_on;72
64320;9;39;480;note_off;64
64320;9;39;0;note_on;80
64560;0;51;0;note_off;64
64560;0;55;0;note_on;80
64560;0;58;0;note_on;80
64560;0;43;0;note_off;64
64560;0;55;0;note_off;64
64560;0;58;240;note_off;64
64560;4;65;240;note_off;64
64560;4;70;0;note_on;80
64560;2;27;0;note_on;80
64560;2;27;240;note_off;64
64560;0;43;0;note_on;80
64560;0;51;0;note_on;80
64800;9;39;0;note_on;80
64800;4;70;240;note_off;64
64800;4;72;0;note_on;80
64800;2;27;0;note_on;80
64800;2;27;240;note_off;64
64800;9;39;480;note_off;64
64800;6;65;0;note_on;72
64800;6;65;480;note_off;64
65040;0;55;0;note_off;64
65040;0;58;480;note_off;64
65040;2;27;240;note_off;64
65040;4;72;240;note_off;64
65040;0;43;0;note_on;80
65040;0;55;0;note_on;80
65040;0;58;0;note_on;80
65040;0;43;0;note_off;64
65040;4;73;0;note_on;80
65040;0;51;0;note_off;64
65040;0;51;0;note_on;80
65040;2;27;0;note_on;80
65160;9;39;360;note_off;64
65160;9;39;0;note_on;80
65280;0;43;0;note_off;64
65280;0;70;0;note_on;80
65280;0;58;240;note_off;64
65280;0;58;0;note_on;80
65280;0;46;0;note_on;80
65280;9;39;0;note_on;80
65280;9;39;120;note_off;64
65280;0;51;0;note_off;64
65280;4;73;240;note_off;64
65280;0;61;0;note_on;80
65280;4;70;0;note_on;80
65280;0;55;0;note_off;64
65280;2;34;0;note_on;80
65280;2;27;240;note_off;64
65280;6;65;480;note_off;64
65520;0;46;0;note_off;64
65520;0;61;0;note_off;64
65520;0;70;240;note_off;64
65520;2;34;0;note_on;80
65520;2;34;240;note_off;64
65520;0;46;0;note_on;80
65520;0;61;0;note_on;80
65520;0;58;0;note_on;80
65520;4;70;240;note_off;64
65520;4;70;0;note_on;80
65520;0;58;0;note_off;64
65520;0;70;0;note_on;80
65760;4;70;240;note_off;64
65760;4;72;0;note_on;80
65760;9;39;0;note_on;80
65760;9;39;480;note_off;64
65760;2;34;240;note_off;64
65760;2;34;0;note_on;80
66000;0;61;0;note_on;80
66000;0;58;0;note_on;80
66000;0;46;0;note_on;80
66000;0;46;0;note_off;64
66000;0;58;0;note_off;64
66000;0;70;0;note_on;80
66000;0;70;480;note_off;64
66000;2;34;240;note_off;64
66000;6;58;720;note_on;80
66000;4;72;240;note_off;64
66000;4;73;0;note_on;80
66000;0;61;0;note_off;64
66000;2;34;0;note_on;80
66240;0;46;0;note_off;64
66240;0;70;0;note_on;80
66240;0;61;0;note_on;80
66240;0;58;0;note_off;64
66240;2;34;0;note_on;80
66240;2;34;240;note_off;64
66240;0;58;0;note_on;80
66240;0;46;0;note_on;80
66240;0;70;240;note_off;64
66240;9;39;0;note_on;80
66240;0;61;0;note_off;64
66240;4;73;240;note_off;64
66240;4;75;0;note_on;80
66240;9;39;480;note_off;64
66480;0;46;0;note_on;80
66480;6;56;0;note_on;80
66480;6;58;480;note_off;64
66480;0;70;240;note_off;64
66480;0;61;0;note_off;64
66480;0;58;0;note_off;64
66480;0;46;0;note_off;64
66480;0;70;0;note_on;80
66480;0;61;0;note_on;80
66480;0;58;0;note_on;80
66480;4;73;0;note_on;80
66480;4;75;240;note_off;64
66480;2;34;240;note_off;64
66480;2;34;0;note_on;80
66720;9;39;480;note_off;64
66720;4;73;240;note_off;64
66720;4;72;0;note_on;80
66720;9;39;0;note_on;80
66720;2;34;240;note_off;64
66720;2;34;0;note_on;80
66960;0;46;0;note_on;80
66960;0;58;0;note_on;80
66960;0;61;0;note_on;80
66960;0;70;0;note_on;80
66960;0;46;0;note_off;64
66960;0;58;0;note_off;64
66960;0;61;0;note_off;64
66960;0;70;480;note_off;64
66960;2;34;240;note_off;64
66960;4;70;0;note_on;80
66960;4;72;240;note_off;64
66960;2;34;0;note_on;80
67200;2;34;240;note_off;64
67200;0;58;0;note_off;64
67200;9;39;0;note_on;80
67200;9;39;480;note_off;64
67200;0;70;240;note_off;64
67200;0;61;0;note_off;64
67200;2;32;0;note_on;80
67200;0;46;0;note_off;64
67200;0;56;0;note_on;80
67200;4;70;240;note_off;64
67200;4;65;0;note_on;80
67200;6;56;720;note_off;64
67200;0;60;0;note_on;80
67200;6;65;0;note_on;72
67200;0;51;0;note_on;80
67200;0;44;0;note_on;80
67440;0;44;0;note_off;64
67440;4;65;240;note_off;64
67440;4;70;0;note_on;80
67440;2;32;0;note_on;80
67440;0;60;240;note_off;64
67440;0;51;0;note_off;64
67440;6;65;0;note_on;72
67440;6;65;240;note_off;64
67440;0;56;0;note_off;64
67440;0;44;0;note_on;80
67440;2;32;240;note_off;64
67440;0;51;0;note_on;80
67440;0;56;0;note_on;80
67440;0;60;0;note_on;80
67680;9;39;0;note_on;80
67680;9;39;480;note_off;64
67680;4;70;240;note_off;64
67680;6;65;240;note_off;64
67680;6;65;0;note_on;72
67680;2;32;0;note_on;80
67680;4;72;0;note_on;80
67680;2;32;240;note_off;64
67920;6;65;240;note_off;64
67920;2;32;240;note_off;64
67920;2;32;0;note_on;80
67920;0;44;0;note_on;80
67920;0;56;0;note_on;80
67920;0;60;0;note_on;80
67920;0;44;0;note_off;64
67920;0;51;0;note_off;64
67920;0;56;0;note_off;64
67920;0;51;0;note_on;80
67920;6;66;0;note_on;72
67920;4;72;240;note_off;64
67920;4;73;0;note_on;80
67920;0;60;480;note_off;64
68160;4;65;0;note_on;80
68160;6;66;240;note_off;64
68160;6;65;0;note_on;72
68160;9;39;0;note_on;80
68160;9;39;480;note_off;64
68160;4;73;240;note_off;64
68160;0;43;0;note_on;80
68160;0;60;240;note_off;64
68160;0;56;0;note_off;64
68160;0;51;0;note_off;64
68160;0;44;0;note_off;64
68160;0;58;0;note_on;80
68160;0;55;0;note_on;80
68160;0;51;0;note_on;80
68160;2;27;0;note_on;80
68160;2;32;240;note_off;64
68400;2;27;0;note_on;80
68400;2;27;240;note_off;64
68400;4;65;240;note_off;64
68400;0;43;0;note_on;80
68400;0;51;0;note_on;80
68400;0;43;0;note_off;64
68400;0;58;0;note_on;80
68400;0;51;0;note_off;64
68400;0;55;0;note_off;64
68400;0;58;240;note_off;64
68400;4;70;0;note_on;80
68400;0;55;0;note_on;80
68640;9;39;0;note_on;80
68640;9;39;480;note_off;64
68640;6;65;480;note_off;64
68640;2;27;240;note_off;64
68640;4;70;240;note_off;64
68640;6;63;0;note_on;72
68640;2;27;0;note_on;80
68640;4;72;0;note_on;80
68880;0;43;0;note_on;80
68880;0;51;0;note_on;80
68880;0;55;0;note_on;80
68880;4;73;0;note_on;80
68880;4;72;240;note_off;64
68880;2;27;240;note_off;64
68880;0;58;0;note_on;80
68880;0;43;0;note_off;64
68880;0;51;0;note_off;64
68880;0;55;0;note_off;64
68880;0;58;480;note_off;64
68880;2;27;0;note_on;80
69000;9;39;0;note_on;80
69000;9;39;360;note_off;64
69120;9;39;120;note_off;64
69120;2;27;240;note_off;64
69120;9;39;0;note_on;80
69120;0;46;0;note_on;80
69120;0;55;0;note_off;64
69120;2;34;0;note_on;80
69120;4;70;0;note_on;80
69120;4;73;240;note_off;64
69120;0;58;0;note_on;80
69120;0;61;0;note_on;80
69120;0;70;0;note_on;80
69120;0;43;0;note_off;64
69120;0;51;0;note_off;64
69120;6;63;480;note_off;64
69120;0;58;240;note_off;64
69360;4;70;0;note_on;80
69360;4;70;240;note_off;64
69360;2;34;0;note_on;80
69360;2;34;240;note_off;64
69360;0;70;240;note_off;64
69360;0;58;0;note_off;64
69360;0;46;0;note_on;80
69360;0;58;0;note_on;80
69360;0;61;0;note_on;80
69360;0;61;0;note_off;64
69360;0;70;0;note_on;80
69360;0;46;0;note_off;64
69600;4;70;240;note_off;64
69600;4;72;0;note_on;80
69600;9;39;480;note_off;64
69600;2;34;240;note_off;64
69600;9;39;0;note_on;80
69600;2;34;0;note_on;80
69840;0;46;0;note_on;80
69840;0;58;0;note_on;80
69840;0;61;0;note_on;80
69840;0;70;0;note_on;80
69840;0;46;0;note_off;64
69840;0;58;0;note_off;64
69840;6;58;720;note_on;80
69840;2;34;240;note_off;64
69840;0;70;480;note_off;64
69840;2;34;0;note_on;80
69840;0;61;0;note_off;64
69840;4;72;240;note_off;64
69840;4;73;0;note_on;80
70080;2;34;0;note_on;80
70080;2;34;240;note_off;64
70080;9;39;480;note_off;64
70080;0;46;0;note_on;80
70080;0;58;0;note_on;80
70080;0;61;0;note_on;80
70080;0;46;0;note_off;64
70080;0;58;0;note_off;64
70080;0;70;0;note_on;80
70080;0;70;240;note_off;64
70080;9;39;0;note_on;80
70080;4;75;0;note_on;80
70080;4;73;240;note_off;64
70080;0;61;0;note_off;64
70320;2;34;240;note_off;64
70320;6;58;480;note_off;64
70320;0;46;0;note_on;80
70320;0;58;0;note_on;80
70320;0;61;0;note_on;80
70320;0;46;0;note_off;64
70320;0;58;0;note_off;64
70320;0;61;0;note_off;64
70320;6;56;0;note_on;80
70320;4;75;240;note_off;64
70320;2;34;0;note_on;80
70320;4;73;0;note_on;80
70320;0;70;0;note_on;80
70320;0;70;240;note_off;64
70560;9;39;480;note_off;64
70560;2;34;240;note_off;64
70560;9;39;0;note_on;80
70560;4;73;240;note_off;64
70560;4;72;0;note_on;80
70560;2;34;0;note_on;80
70800;2;34;240;note_off;64
70800;2;34;0;note_on;80
70800;4;70;0;note_on;80
70800;0;70;480;note_off;64
70800;0;46;0;note_on;80
70800;0;58;0;note_on;80
70800;0;61;0;note_on;80
70800;0;70;0;note_on;80
70800;0;46;0;note_off;64
70800;0;58;0;note_off;64
70800;0;61;0;note_off;64
70800;4;72;240;note_off;64
71040;6;68;0;note_on;72
71040;6;56;720;note_off;64
71040;2;32;0;note_on;80
71040;2;34;240;note_off;64
71040;9;39;480;note_off;64
71040;9;39;0;note_on;80
71040;4;70;240;note_off;64
71040;4;65;0;note_on;80
71040;0;70;240;note_off;64
71040;0;61;0;note_off;64
71040;0;58;0;note_off;64
71040;0;46;0;note_off;64
71040;0;60;0;note_on;80
71040;0;56;0;note_on;80
71040;0;51;0;note_on;80
71040;0;44;0;note_on;80
71280;4;65;240;note_off;64
71280;4;70;0;note_on;80
71280;6;68;240;note_off;64
71280;6;68;0;note_on;72
71280;0;44;0;note_on;80
71280;0;51;0;note_on;80
71280;0;56;0;note_on;80
71280;0;60;0;note_on;80
71280;0;44;0;note_off;64
71280;0;51;0;note_off;64
71280;0;56;0;note_off;64
71280;0;60;240;note_off;64
71280;2;32;0;note_on;80
71280;2;32;240;note_off;64
71520;6;66;0;note_on;72
71520;6;68;240;note_off;64
71520;4;72;0;note_on;80
71520;4;70;240;note_off;64
71520;9;39;480;note_off;64
71520;2;32;0;note_on;80
71520;2;32;240;note_off;64
71520;9;39;0;note_on;80
71760;4;73;0;note_on;80
71760;0;60;0;note_on;80
71760;4;72;240;note_off;64
71760;0;44;0;note_on;80
71760;0;44;0;note_off;64
71760;0;51;0;note_off;64
71760;0;56;0;note_on;80
71760;0;56;0;note_off;64
71760;6;66;240;note_off;64
71760;6;66;0;note_on;72
71760;2;32;0;note_on;80
71760;2;32;240;note_off;64
71760;0;60;480;note_off;64
71760;0;51;0;note_on;80
72000;2;32;240;note_off;64
72000;0;60;240;note_off;64
72000;0;55;0;note_on;80
72000;0;56;0;note_off;64
72000;0;51;0;note_on;80
72000;4;73;240;note_off;64
72000;4;65;0;note_on;80
72000;6;66;240;note_off;64
72000;6;65;0;note_on;72
72000;9;39;0;note_on;80
72000;9;39;480;note_off;64
72000;0;51;0;note_off;64
72000;0;44;0;note_off;64
72000;2;27;0;note_on;80
72000;0;43;0;note_on;80
72000;0;58;0;note_on;80
72240;0;51;0;note_off;64
72240;0;58;240;note_off;64
72240;4;70;0;note_on;80
72240;4;65;240;note_off;64
72240;2;27;240;note_off;64
72240;2;27;0;note_on;80
72240;0;43;0;note_on;80
72240;0;51;0;note_on;80
72240;0;55;0;note_on;80
72240;0;58;0;note_on;80
72240;0;43;0;note_off;64
72240;0;55;0;note_off;64
72480;4;72;0;note_on;80
72480;6;65;480;note_off;64
72480;4;70;240;note_off;64
72480;9;39;480;note_off;64
72480;9;39;0;note_on;80
72480;2;27;0;note_on;80
72480;2;27;240;note_off;64
72480;6;65;0;note_on;72
72720;0;51;0;note_on;80
72720;0;55;0;note_off;64
72720;0;51;0;note_off;64
72720;0;43;0;note_off;64
72720;0;58;0;note_on;80
72720;0;55;0;note_on;80
72720;4;73;0;note_on;80
72720;0;58;480;note_off;64
72720;2;27;240;note_off;64
72720;2;27;0;note_on;80
72720;4;72;240;note_off;64
72720;0;43;0;note_on;80
72840;9;39;0;note_on;80
72840;9;39;360;note_off;64
72960;4;70;0;note_on;80
72960;9;39;120;note_off;64
72960;9;39;0;note_on;80
72960;6;65;480;note_off;64
72960;0;46;0;note_on;80
72960;0;58;240;note_off;64
72960;0;58;0;note_on;80
72960;0;61;0;note_on;80
72960;0;70;0;note_on;80
72960;0;43;0;note_off;64
72960;0;51;0;note_off;64
72960;2;27;240;note_off;64
72960;2;34;0;note_on;80
72960;0;55;0;note_off;64
72960;4;73;240;note_off;64
73200;0;70;240;note_off;64
73200;2;34;240;note_off;64
73200;2;34;0;note_on;80
73200;0;70;0;note_on;80
73200;0;58;0;note_on;80
73200;0;58;0;note_off;64
73200;0;46;0;note_off;64
73200;0;61;0;note_on;80
73200;4;70;240;note_off;64
73200;4;70;0;note_on;80
73200;0;61;0;note_off;64
73200;0;46;0;note_on;80
73440;4;70;240;note_off;64
73440;4;72;0;note_on;80
73440;2;34;0;note_on;80
73440;9;39;480;note_off;64
73440;9;39;0;note_on;80
73440;2;34;240;note_off;64
73680;4;72;240;note_off;64
73680;2;34;0;note_on;80
73680;6;58;720;note_on;80
73680;4;73;0;note_on;80
73680;2;34;240;note_off;64
73680;0;70;480;note_off;64
73680;0;61;0;note_off;64
73680;0;58;0;note_off;64
73680;0;46;0;note_off;64
73680;0;70;0;note_on;80
73680;0;61;0;note_on;80
73680;0;58;0;note_on;80
73680;0;46;0;note_on;80
73920;0;46;0;note_on;80
73920;4;73;240;note_off;64
73920;4;75;0;note_on;80
73920;0;58;0;note_on;80
73920;0;61;0;note_on;80
73920;0;70;0;note_on;80
73920;0;46;0;note_off;64
73920;0;61;0;note_off;64
73920;2;34;240;note_off;64
73920;0;70;240;note_off;64
73920;9;39;0;note_on;80
73920;9;39;480;note_off;64
73920;0;58;0;note_off;64
73920;2;34;0;note_on;80
74160;6;56;0;note_on;80
74160;6;58;480;note_off;64
74160;4;73;0;note_on;80
74160;4;75;240;note_off;64
74160;0;61;0;note_on;80
74160;0;70;0;note_on;80
74160;0;46;0;note_off;64
74160;0;58;0;note_off;64
74160;2;34;0;note_on;80
74160;0;46;0;note_on;80
74160;0;61;0;note_off;64
74160;0;70;240;note_off;64
74160;2;34;240;note_off;64
74160;0;58;0;note_on;80
74400;2;34;240;note_off;64
74400;2;34;0;note_on;80
74400;4;72;0;note_on;80
74400;9;39;0;note_on;80
74400;9;39;480;note_off;64
74400;4;73;240;note_off;64
74640;0;58;0;note_off;64
74640;4;72;240;note_off;64
74640;0;70;480;note_off;64
74640;4;70;0;note_on;80
74640;0;61;0;note_off;64
74640;0;70;0;note_on;80
74640;0;46;0;note_off;64
74640;0;46;0;note_on;80
74640;0;58;0;note_on;80
74640;2;34;240;note_off;64
74640;2;34;0;note_on;80
74640;0;61;0;note_on;80
74880;0;44;0;note_on;80
74880;0;58;0;note_off;64
74880;2;34;240;note_off;64
74880;2;32;0;note_on;80
74880;6;65;0;note_on;72
74880;6;56;720;note_off;64
74880;0;61;0;note_off;64
74880;0;70;240;note_off;64
74880;4;70;240;note_off;64
74880;4;65;0;note_on;80
74880;9;39;0;note_on;80
74880;9;39;480;note_off;64
74880;0;46;0;note_off;64
74880;0;60;0;note_on;80
74880;0;56;0;note_on;80
74880;0;51;0;note_on;80
75120;0;60;240;note_off;64
75120;2;32;0;note_on;80
75120;2;32;240;note_off;64
75120;0;56;0;note_off;64
75120;0;51;0;note_off;64
75120;0;44;0;note_off;64
75120;0;60;0;note_on;80
75120;6;65;0;note_on;72
75120;6;65;240;note_off;64
75120;0;56;0;note_on;80
75120;0;51;0;note_on;80
75120;4;65;240;note_off;64
75120;4;70;0;note_on;80
75120;0;44;0;note_on;80
75360;2;32;0;note_on;80
75360;4;70;240;note_off;64
75360;6;65;0;note_on;72
75360;9;39;480;note_off;64
75360;9;39;0;note_on;80
75360;2;32;240;note_off;64
75360;4;72;0;note_on;80
75360;6;65;240;note_off;64
75600;4;72;240;note_off;64
75600;4;73;0;note_on;80
75600;2;32;240;note_off;64
75600;6;66;0;note_on;72
75600;0;44;0;note_on;80
75600;6;65;240;note_off;64
75600;0;56;0;note_on;80
75600;0;60;0;note_on;80
75600;0;44;0;note_off;64
75600;0;51;0;note_off;64
75600;0;56;0;note_off;64
75600;0;60;480;note_off;64
75600;2;32;0;note_on;80
75600;0;51;0;note_on;80
75840;9;39;0;note_on;80
75840;2;32;240;note_off;64
75840;2;27;0;note_on;80
75840;0;43;0;note_on;80
75840;0;51;0;note_on;80
75840;0;55;0;note_on;80
75840;0;44;0;note_off;64
75840;0;51;0;note_off;64
75840;0;56;0;note_off;64
75840;0;60;240;note_off;64
75840;6;66;240;note_off;64
75840;6;65;0;note_on;72
75840;4;73;240;note_off;64
75840;4;65;0;note_on;80
75840;0;58;0;note_on;80
75840;9;39;480;note_off;64
76080;0;43;0;note_off;64
76080;0;43;0;note_on;80
76080;0;51;0;note_on;80
76080;0;55;0;note_on;80
76080;0;58;0;note_on;80
76080;0;51;0;note_off;64
76080;0;55;0;note_off;64
76080;0;58;240;note_off;64
76080;2;27;0;note_on;80
76080;2;27;240;note_off;64
76080;4;70;0;note_on;80
76080;4;65;240;note_off;64
76320;4;70;240;note_off;64
76320;6;65;480;note_off;64
76320;2;27;240;note_off;64
76320;2;27;0;note_on;80
76320;9;39;480;note_off;64
76320;9;39;0;note_on;80
76320;4;72;0;note_on;80
76320;6;63;0;note_on;72
76560;0;55;0;note_off;64
76560;0;43;0;note_off;64
76560;0;51;0;note_on;80
76560;0;55;0;note_on;80
76560;0;43;0;note_on;80
76560;4;72;240;note_off;64
76560;0;58;0;note_on;80
76560;0;51;0;note_off;64
76560;4;73;0;note_on;80
76560;0;58;480;note_off;64
76560;2;27;240;note_off;64
76560;2;27;0;note_on;80
76680;9;39;360;note_off;64
76680;9;39;0;note_on;80
76800;4;70;0;note_on;96
76800;0;58;240;note_off;64
76800;0;55;0;note_off;64
76800;9;39;120;note_off;64
76800;0;43;0;note_off;64
76800;0;70;0;note_on;80
76800;0;61;0;note_on;80
76800;0;58;0;note_on;80
76800;0;46;0;note_on;80
76800;2;27;240;note_off;64
76800;4;73;240;note_off;64
76800;6;63;480;note_off;64
76800;0;51;0;note_off;64
77040;0;58;0;note_off;64
77040;0;46;0;note_off;64
77040;0;61;0;note_off;64
77040;0;70;240;note_off;64
77040;0;70;0;note_on;80
77040;0;61;0;note_on;80
77040;0;58;0;note_on;80
77040;0;46;0;note_on;80
77280;4;65;0;note_on;96
77280;0;46;0;note_on;80
77280;0;58;0;note_on;80
77280;0;61;0;note_on;80
77280;0;70;0;note_on;80
77280;0;61;0;note_off;64
77280;0;58;0;note_off;64
77280;0;70;240;note_off;64
77280;4;70;480;note_off;64
77280;0;46;0;note_off;64
77520;0;61;0;note_on;80
77520;0;46;0;note_on;80
77520;0;58;0;note_on;80
77520;0;70;0;note_on;80
77520;0;46;0;note_off;64
77520;0;58;0;note_off;64
77520;0;61;0;note_off;64
77520;0;70;240;note_off;64
77760;4;65;480;note_off;64
77760;0;46;0;note_on;80
77760;0;58;0;note_on;80
77760;0;70;0;note_on;80
77760;0;61;0;note_on;80
77760;0;46;0;note_off;64
77760;0;58;0;note_off;64
77760;0;61;0;note_off;64
77760;0;70;240;note_off;64
77760;4;65;0;note_on;96
78000;0;58;0;note_on;80
78000;0;70;240;note_off;64
78000;0;58;0;note_off;64
78000;0;46;0;note_off;64
78000;0;70;0;note_on;80
78000;0;61;0;note_on;80
78000;0;46;0;note_on;80
78000;0;61;0;note_off;64
78240;0;61;0;note_off;64
78240;0;58;0;note_off;64
78240;0;46;0;note_off;64
78240;0;70;0;note_on;80
78240;0;61;0;note_on;80
78240;0;58;0;note_on;80
78240;0;46;0;note_on;80
78240;4;65;480;note_off;64
78240;4;65;0;note_on;96
78240;0;70;240;note_off;64
78480;0;46;0;note_on;80
78480;0;58;0;note_on;80
78480;0;70;0;note_on;80
78480;0;46;0;note_off;64
78480;0;58;0;note_off;64
78480;0;61;0;note_off;64
78480;0;61;0;note_on;80
78480;0;70;240;note_off;64
78720;0;58;0;note_off;64
78720;0;46;0;note_off;64
78720;0;60;0;note_on;80
78720;0;56;0;note_on;80
78720;0;44;0;note_on;80
78720;0;70;240;note_off;64
78720;4;65;480;note_off;64
78720;4;68;0;note_on;96
78720;0;61;0;note_off;64
78720;0;51;0;note_on;80
78960;0;56;0;note_on;80
78960;0;44;0;note_on;80
78960;0;51;0;note_on;80
78960;0;60;0;note_on;80
78960;0;60;240;note_off;64
78960;0;56;0;note_off;64
78960;0;51;0;note_off;64
78960;0;44;0;note_off;64
79200;0;60;0;note_on;80
79200;4;68;480;note_off;64
79200;4;68;0;note_on;96
79200;0;60;240;note_off;64
79200;0;56;0;note_off;64
79200;0;44;0;note_off;64
79200;0;56;0;note_on;80
79200;0;44;0;note_on;80
79200;0;51;0;note_on;80
79200;0;51;0;note_off;64
79440;0;56;0;note_on;80
79440;0;60;0;note_on;80
79440;0;44;0;note_off;64
79440;0;51;0;note_off;64
79440;0;56;0;note_off;64
79440;0;60;240;note_off;64
79440;0;51;0;note_on;80
79440;0;44;0;note_on;80
79680;0;44;0;note_off;64
79680;0;51;0;note_off;64
79680;4;68;0;note_on;96
79680;0;43;0;note_on;80
79680;0;51;0;note_on;80
79680;0;55;0;note_on;80
79680;0;58;0;note_on;80
79680;4;68;480;note_off;64
79680;0;56;0;note_off;64
79680;0;60;240;note_off;64
79920;0;58;240;note_off;64
79920;0;55;0;note_off;64
79920;0;51;0;note_off;64
79920;0;43;0;note_off;64
79920;0;58;0;note_on;80
79920;0;55;0;note_on;80
79920;0;51;0;note_on;80
79920;0;43;0;note_on;80
80160;0;43;0;note_on;80
80160;0;55;0;note_on;80
80160;0;58;0;note_on;80
80160;0;51;0;note_on;80
80160;0;43;0;note_off;64
80160;0;55;0;note_off;64
80160;0;58;240;note_off;64
80160;4;68;480;note_off;64
80160;4;70;0;note_on;96
80160;0;51;0;note_off;64
80400;0;43;0;note_on;80
80400;0;51;0;note_on;80
80400;0;58;0;note_on;80
80400;0;55;0;note_on;80
80400;0;51;0;note_off;64
80400;0;55;0;note_off;64
80400;0;58;240;note_off;64
80400;0;43;0;note_off;64
80640;0;58;240;note_off;64
80640;0;51;0;note_off;64
80640;0;43;0;note_off;64
80640;0;70;0;note_on;80
80640;0;61;0;note_on;80
80640;0;58;0;note_on;80
80640;0;46;0;note_on;80
80640;0;55;0;note_off;64
80640;4;70;480;note_off;64
80640;4;70;0;note_on;96
80880;0;46;0;note_off;64
80880;0;70;240;note_off;64
80880;0;61;0;note_off;64
80880;0;58;0;note_off;64
80880;0;70;0;note_on;80
80880;0;61;0;note_on;80
80880;0;58;0;note_on;80
80880;0;46;0;note_on;80
81120;0;58;0;note_on;80
81120;0;61;0;note_on;80
81120;0;70;0;note_on;80
81120;0;46;0;note_off;64
81120;0;58;0;note_off;64
81120;0;70;240;note_off;64
81120;4;65;0;note_on;96
81120;4;70;480;note_off;64
81120;0;61;0;note_off;64
81120;0;46;0;note_on;80
81360;0;70;240;note_off;64
81360;0;46;0;note_on;80
81360;0;58;0;note_on;80
81360;0;61;0;note_on;80
81360;0;70;0;note_on;80
81360;0;46;0;note_off;64
81360;0;58;0;note_off;64
81360;0;61;0;note_off;64
81600;4;65;0;note_on;96
81600;4;65;480;note_off;64
81600;0;70;240;note_off;64
81600;0;61;0;note_off;64
81600;0;58;0;note_off;64
81600;0;46;0;note_off;64
81600;0;70;0;note_on;80
81600;0;61;0;note_on;80
81600;0;58;0;note_on;80
81600;0;46;0;note_on;80
81840;0;70;240;note_off;64
81840;0;61;0;note_off;64
81840;0;58;0;note_off;64
81840;0;46;0;note_off;64
81840;0;70;0;note_on;80
81840;0;61;0;note_on;80
81840;0;58;0;note_on;80
81840;0;46;0;note_on;80
82080;4;65;480;note_off;64
82080;0;46;0;note_off;64
82080;0;61;0;note_off;64
82080;0;58;0;note_off;64
82080;4;65;0;note_on;96
82080;0;70;240;note_off;64
82080;0;58;0;note_on;80
82080;0;70;0;note_on;80
82080;0;61;0;note_on;80
82080;0;46;0;note_on;80
82320;0;58;0;note_on;80
82320;0;70;240;note_off;64
82320;0;61;0;note_off;64
82320;0;58;0;note_off;64
82320;0;46;0;note_off;64
82320;0;70;0;note_on;80
82320;0;61;0;note_on;80
82320;0;46;0;note_on;80
82560;0;70;240;note_off;64
82560;4;65;480;note_off;64
82560;4;68;0;note_on;96
82560;0;46;0;note_off;64
82560;0;44;0;note_on;80
82560;0;51;0;note_on;80
82560;0;56;0;note_on;80
82560;0;60;0;note_on;80
82560;0;58;0;note_off;64
82560;0;61;0;note_off;64
82800;0;60;0;note_on;80
82800;0;44;0;note_on;80
82800;0;44;0;note_off;64
82800;0;51;0;note_off;64
82800;0;56;0;note_off;64
82800;0;60;240;note_off;64
82800;0;56;0;note_on;80
82800;0;51;0;note_on;80
83040;4;68;0;note_on;96
83040;4;68;480;note_off;64
83040;0;60;240;note_off;64
83040;0;56;0;note_off;64
83040;0;51;0;note_off;64
83040;0;44;0;note_off;64
83040;0;60;0;note_on;80
83040;0;56;0;note_on;80
83040;0;51;0;note_on;80
83040;0;44;0;note_on;80
83280;0;56;0;note_off;64
83280;0;60;240;note_off;64
83280;0;51;0;note_off;64
83280;0;44;0;note_off;64
83280;0;60;0;note_on;80
83280;0;56;0;note_on;80
83280;0;51;0;note_on;80
83280;0;44;0;note_on;80
83520;0;51;0;note_on;80
83520;4;68;480;note_off;64
83520;0;55;0;note_on;80
83520;0;43;0;note_on;80
83520;0;58;0;note_on;80
83520;4;68;0;note_on;96
83520;0;51;0;note_off;64
83520;0;56;0;note_off;64
83520;0;60;240;note_off;64
83520;0;44;0;note_off;64
83760;0;58;240;note_off;64
83760;0;55;0;note_off;64
83760;0;51;0;note_off;64
83760;0;43;0;note_off;64
83760;0;58;0;note_on;80
83760;0;55;0;note_on;80
83760;0;51;0;note_on;80
83760;0;43;0;note_on;80
84000;4;70;0;note_on;96
84000;4;68;480;note_off;64
84000;0;51;0;note_on;80
84000;0;55;0;note_on;80
84000;0;43;0;note_on;80
84000;0;43;0;note_off;64
84000;0;51;0;note_off;64
84000;0;58;240;note_off;64
84000;0;55;0;note_off;64
84000;0;58;0;note_on;80
84240;0;58;240;note_off;64
84240;0;55;0;note_off;64
84240;0;51;0;note_off;64
84240;0;43;0;note_off;64
84240;0;58;0;note_on;80
84240;0;55;0;note_on;80
84240;0;51;0;note_on;80
84240;0;43;0;note_on;80
84480;4;70;480;note_off;64
84480;4;70;0;note_on;96
84480;0;46;0;note_on;80
84480;0;55;0;note_off;64
84480;0;61;0;note_on;80
84480;0;58;240;note_off;64
84480;0;51;0;note_off;64
84480;0;70;0;note_on;80
84480;0;43;0;note_off;64
84480;0;58;0;note_on;80
84720;0;46;0;note_on;80
84720;0;58;0;note_off;64
84720;0;61;0;note_on;80
84720;0;70;0;note_on;80
84720;0;46;0;note_off;64
84720;0;61;0;note_off;64
84720;0;70;240;note_off;64
84720;0;58;0;note_on;80
84960;0;70;240;note_off;64
84960;0;61;0;note_off;64
84960;0;46;0;note_off;64
84960;0;70;0;note_on;80
84960;0;61;0;note_on;80
84960;0;58;0;note_on;80
84960;0;46;0;note_on;80
84960;4;65;0;note_on;96
84960;4;70;480;note_off;64
84960;0;58;0;note_off;64
85200;0;46;0;note_on;80
85200;0;61;0;note_off;64
85200;0;58;0;note_on;80
85200;0;61;0;note_on;80
85200;0;70;0;note_on;80
85200;0;46;0;note_off;64
85200;0;58;0;note_off;64
85200;0;70;240;note_off;64
85440;0;58;0;note_on;80
85440;0;61;0;note_on;80
85440;0;70;0;note_on;80
85440;0;46;0;note_off;64
85440;0;61;0;note_off;64
85440;0;70;240;note_off;64
85440;0;46;0;note_on;80
85440;4;65;0;note_on;96
85440;4;65;480;note_off;64
85440;0;58;0;note_off;64
85680;0;58;0;note_on;80
85680;0;61;0;note_on;80
85680;0;46;0;note_on;80
85680;0;70;0;note_on;80
85680;0;61;0;note_off;64
85680;0;58;0;note_off;64
85680;0;70;240;note_off;64
85680;0;46;0;note_off;64
85920;4;65;0;note_on;96
85920;0;70;240;note_off;64
85920;0;61;0;note_off;64
85920;0;58;0;note_off;64
85920;0;46;0;note_off;64
85920;0;70;0;note_on;80
85920;0;61;0;note_on;80
85920;0;58;0;note_on;80
85920;0;46;0;note_on;80
85920;4;65;480;note_off;64
86160;0;46;0;note_on;80
86160;0;61;0;note_on;80
86160;0;58;0;note_on;80
86160;0;46;0;note_off;64
86160;0;58;0;note_off;64
86160;0;61;0;note_off;64
86160;0;70;240;note_off;64
86160;0;70;0;note_on;80
86400;0;51;0;note_on;80
86400;0;44;0;note_on;80
86400;0;56;0;note_on;80
86400;4;65;480;note_off;64
86400;0;46;0;note_off;64
86400;0;58;0;note_off;64
86400;4;68;0;note_on;96
86400;0;70;240;note_off;64
86400;0;61;0;note_off;64
86400;0;60;0;note_on;80
86640;0;60;240;note_off;64
86640;0;56;0;note_off;64
86640;0;51;0;note_off;64
86640;0;44;0;note_off;64
86640;0;60;0;note_on;80
86640;0;56;0;note_on;80
86640;0;51;0;note_on;80
86640;0;44;0;note_on;80
86880;4;68;480;note_off;64
86880;0;44;0;note_on;80
86880;0;56;0;note_on;80
86880;0;60;0;note_on;80
86880;0;44;0;note_off;64
86880;0;51;0;note_off;64
86880;0;56;0;note_off;64
86880;0;60;240;note_off;64
86880;0;51;0;note_on;80
86880;4;68;0;note_on;96
87120;0;60;240;note_off;64
87120;0;56;0;note_off;64
87120;0;51;0;note_off;64
87120;0;44;0;note_off;64
87120;0;60;0;note_on;80
87120;0;56;0;note_on;80
87120;0;51;0;note_on;80
87120;0;44;0;note_on;80
87360;0;51;0;note_on;80
87360;4;68;480;note_off;64
87360;0;43;0;note_on;80
87360;0;55;0;note_on;80
87360;4;68;0;note_on;96
87360;0;56;0;note_off;64
87360;0;44;0;note_off;64
87360;0;51;0;note_off;64
87360;0;60;240;note_off;64
87360;0;58;0;note_on;80
87600;0;51;0;note_on;80
87600;0;43;0;note_on;80
87600;0;55;0;note_on;80
87600;0;58;0;note_on;80
87600;0;43;0;note_off;64
87600;0;55;0;note_off;64
87600;0;51;0;note_off;64
87600;0;58;240;note_off;64
87840;0;58;240;note_off;64
87840;4;68;480;note_off;64
87840;4;70;0;note_on;96
87840;0;58;0;note_on;80
87840;0;51;0;note_on;80
87840;0;55;0;note_on;80
87840;0;43;0;note_off;64
87840;0;51;0;note_off;64
87840;0;55;0;note_off;64
87840;0;43;0;note_on;80
88080;0;55;0;note_off;64
88080;0;58;240;note_off;64
88080;0;43;0;note_off;64
88080;0;55;0;note_on;80
88080;0;51;0;note_off;64
88080;0;58;0;note_on;80
88080;0;43;0;note_on;80
88080;0;51;0;note_on;80
88320;0;58;240;note_off;64
88320;0;58;0;note_on;80
88320;0;70;0;note_on;80
88320;0;46;0;note_on;80
88320;0;51;0;note_off;64
88320;0;55;0;note_off;64
88320;4;70;0;note_on;96
88320;4;70;480;note_off;64
88320;0;43;0;note_off;64
88320;0;61;0;note_on;80
88560;0;61;0;note_off;64
88560;0;58;0;note_off;64
88560;0;46;0;note_off;64
88560;0;70;0;note_on;80
88560;0;61;0;note_on;80
88560;0;58;0;note_on;80
88560;0;46;0;note_on;80
88560;0;70;240;note_off;64
88800;0;46;0;note_off;64
88800;4;65;0;note_on;96
88800;0;61;0;note_off;64
88800;0;58;0;note_off;64
88800;0;70;240;note_off;64
88800;0;61;0;note_on;80
88800;0;58;0;note_on;80
88800;0;46;0;note_on;80
88800;0;70;0;note_on;80
88800;4;70;480;note_off;64
89040;0;58;0;note_off;64
89040;0;46;0;note_off;64
89040;0;70;0;note_on;80
89040;0;61;0;note_on;80
89040;0;58;0;note_on;80
89040;0;46;0;note_on;80
89040;0;70;240;note_off;64
89040;0;61;0;note_off;64
89280;0;46;0;note_on;80
89280;0;58;0;note_on;80
89280;0;70;240;note_off;64
89280;0;61;0;note_off;64
89280;0;58;0;note_off;64
89280;4;65;0;note_on;96
89280;0;70;0;note_on;80
89280;0;61;0;note_on;80
89280;0;46;0;note_off;64
89280;4;65;480;note_off;64
89520;0;46;0;note_on;80
89520;0;61;0;note_on;80
89520;0;58;0;note_on;80
89520;0;58;0;note_off;64
89520;0;61;0;note_off;64
89520;0;70;240;note_off;64
89520;0;70;0;note_on;80
89520;0;46;0;note_off;64
89760;0;70;240;note_off;64
89760;0;61;0;note_off;64
89760;0;58;0;note_off;64
89760;0;46;0;note_off;64
89760;0;70;0;note_on;80
89760;0;61;0;note_on;80
89760;0;46;0;note_on;80
89760;4;65;0;note_on;96
89760;4;65;480;note_off;64
89760;0;58;0;note_on;80
90000;0;58;0;note_off;64
90000;0;46;0;note_off;64
90000;0;70;0;note_on;80
90000;0;61;0;note_on;80
90000;0;58;0;note_on;80
90000;0;46;0;note_on;80
90000;0;70;240;note_off;64
90000;0;61;0;note_off;64
90240;0;70;240;note_off;64
90240;0;61;0;note_off;64
90240;0;58;0;note_off;64
90240;0;46;0;note_off;64
90240;0;56;0;note_on;80
90240;0;51;0;note_on;80
90240;0;44;0;note_on;80
90240;4;65;480;note_off;64
90240;4;68;0;note_on;96
90240;0;60;0;note_on;80
90480;0;44;0;note_on;80
90480;0;60;240;note_off;64
90480;0;56;0;note_off;64
90480;0;51;0;note_off;64
90480;0;44;0;note_off;64
90480;0;60;0;note_on;80
90480;0;56;0;note_on;80
90480;0;51;0;note_on;80
90720;0;51;0;note_on;80
90720;0;60;240;note_off;64
90720;0;56;0;note_on;80
90720;0;60;0;note_on;80
90720;0;56;0;note_off;64
90720;0;44;0;note_off;64
90720;0;51;0;note_off;64
90720;4;68;0;note_on;96
90720;4;68;480;note_off;64
90720;0;44;0;note_on;80
90960;0;60;240;note_off;64
90960;0;56;0;note_off;64
90960;0;51;0;note_off;64
90960;0;60;0;note_on;80
90960;0;56;0;note_on;80
90960;0;51;0;note_on;80
90960;0;44;0;note_on;80
90960;0;44;0;note_off;64
91200;0;60;240;note_off;64
91200;0;56;0;note_off;64
91200;0;51;0;note_off;64
91200;0;44;0;note_off;64
91200;0;58;0;note_on;80
91200;0;55;0;note_on;80
91200;0;43;0;note_on;80
91200;0;51;0;note_on;80
91200;4;68;480;note_off;64
91200;4;68;0;note_on;96
91440;0;58;240;note_off;64
91440;0;55;0;note_off;64
91440;0;51;0;note_off;64
91440;0;43;0;note_off;64
91440;0;58;0;note_on;80
91440;0;55;0;note_on;80
91440;0;43;0;note_on;80
91440;0;51;0;note_on;80
91680;0;43;0;note_on;80
91680;0;58;240;note_off;64
91680;0;55;0;note_off;64
91680;0;51;0;note_off;64
91680;0;43;0;note_off;64
91680;0;51;0;note_on;80
91680;0;58;0;note_on;80
91680;0;55;0;note_on;80
91680;4;68;480;note_off;64
91680;4;70;0;note_on;96
91920;0;58;240;note_off;64
91920;0;51;0;note_off;64
91920;0;43;0;note_on;80
91920;0;55;0;note_off;64
91920;0;55;0;note_on;80
91920;0;58;0;note_on;80
91920;0;43;0;note_off;64
91920;0;51;0;note_on;80
92160;0;58;240;note_off;64
92160;0;51;0;note_off;64
92160;0;58;0;note_on;80
92160;0;61;0;note_on;80
92160;0;70;0;note_on;80
92160;0;43;0;note_off;64
92160;0;46;0;note_on;80
92160;0;55;0;note_off;64
92160;4;70;480;note_off;64
92160;4;70;0;note_on;96
92400;0;46;0;note_on;80
92400;0;61;0;note_on;80
92400;0;70;0;note_on;80
92400;0;46;0;note_off;64
92400;0;58;0;note_off;64
92400;0;58;0;note_on;80
92400;0;70;240;note_off;64
92400;0;61;0;note_off;64
92640;0;61;0;note_on;80
92640;0;70;240;note_off;64
92640;4;65;0;note_on;96
92640;0;61;0;note_off;64
92640;0;58;0;note_off;64
92640;0;46;0;note_on;80
92640;0;70;0;note_on;80
92640;6;49;15840;note_on;80
92640;4;70;480;note_off;64
92640;0;58;0;note_on;80
92640;0;46;0;note_off;64
92880;0;70;240;note_off;64
92880;0;61;0;note_off;64
92880;0;58;0;note_off;64
92880;0;46;0;note_off;64
92880;0;70;0;note_on;80
92880;0;58;0;note_on;80
92880;0;61;0;note_on;80
92880;6;49;240;note_off;64
92880;6;49;0;note_on;80
92880;0;46;0;note_on;80
93120;0;70;240;note_off;64
93120;0;61;0;note_off;64
93120;0;58;0;note_off;64
93120;0;46;0;note_off;64
93120;0;61;0;note_on;80
93120;0;58;0;note_on;80
93120;0;46;0;note_on;80
93120;4;65;480;note_off;64
93120;4;65;0;note_on;96
93120;6;49;240;note_off;64
93120;6;49;0;note_on;80
93120;0;70;0;note_on;80
93360;0;46;0;note_on;80
93360;0;70;240;note_off;64
93360;0;61;0;note_off;64
93360;0;58;0;note_off;64
93360;0;46;0;note_off;64
93360;0;70;0;note_on;80
93360;0;61;0;note_on;80
93360;0;58;0;note_on;80
93360;6;49;240;note_off;64
93360;6;49;0;note_on;80
93600;4;65;480;note_off;64
93600;4;65;0;note_on;96
93600;6;51;0;note_on;80
93600;6;49;240;note_off;64
93600;0;61;0;note_off;64
93600;0;58;0;note_off;64
93600;0;46;0;note_off;64
93600;0;70;0;note_on;80
93600;0;61;0;note_on;80
93600;0;58;0;note_on;80
93600;0;46;0;note_on;80
93600;0;70;240;note_off;64
93840;6;51;0;note_on;80
93840;6;51;240;note_off;64
93840;0;46;0;note_on;80
93840;0;58;0;note_on;80
93840;0;70;0;note_on;80
93840;0;46;0;note_off;64
93840;0;58;0;note_off;64
93840;0;61;0;note_off;64
93840;0;70;240;note_off;64
93840;0;61;0;note_on;80
94080;4;68;0;note_on;96
94080;6;51;240;note_off;64
94080;6;48;0;note_on;80
94080;0;44;0;note_on;80
94080;4;65;480;note_off;64
94080;0;51;0;note_on;80
94080;0;60;0;note_on;80
94080;0;46;0;note_off;64
94080;0;56;0;note_on;80
94080;0;58;0;note_off;64
94080;0;61;0;note_off;64
94080;0;70;240;note_off;64
94320;6;46;0;note_on;80
94320;6;48;240;note_off;64
94320;0;60;240;note_off;64
94320;0;56;0;note_off;64
94320;0;44;0;note_on;80
94320;0;51;0;note_on;80
94320;0;56;0;note_on;80
94320;0;60;0;note_on;80
94320;0;44;0;note_off;64
94320;0;51;0;note_off;64
94560;4;68;480;note_off;64
94560;4;68;0;note_on;96
94560;0;56;0;note_off;64
94560;6;44;0;note_on;80
94560;0;44;0;note_on;80
94560;0;51;0;note_on;80
94560;0;56;0;note_on;80
94560;0;60;0;note_on;80
94560;0;44;0;note_off;64
94560;0;51;0;note_off;64
94560;6;46;240;note_off;64
94560;0;60;240;note_off;64
94800;0;44;0;note_on;80
94800;0;51;0;note_on;80
94800;0;60;240;note_off;64
94800;0;56;0;note_off;64
94800;0;51;0;note_off;64
94800;0;44;0;note_off;64
94800;0;60;0;note_on;80
94800;0;56;0;note_on;80
95040;6;44;480;note_off;64
95040;0;44;0;note_off;64
95040;0;55;0;note_on;80
95040;0;60;240;note_off;64
95040;0;56;0;note_off;64
95040;4;68;0;note_on;96
95040;4;68;480;note_off;64
95040;0;51;0;note_off;64
95040;0;43;0;note_on;80
95040;0;51;0;note_on;80
95040;6;46;0;note_on;80
95040;0;58;0;note_on;80
95280;0;51;0;note_on;80
95280;0;43;0;note_on;80
95280;0;58;240;note_off;64
95280;0;55;0;note_off;64
95280;0;51;0;note_off;64
95280;0;43;0;note_off;64
95280;0;58;0;note_on;80
95280;0;55;0;note_on;80
95520;0;51;0;note_on;80
95520;0;55;0;note_on;80
95520;0;58;0;note_on;80
95520;0;43;0;note_off;64
95520;0;51;0;note_off;64
95520;0;43;0;note_on;80
95520;0;58;240;note_off;64
95520;4;70;0;note_on;96
95520;4;68;480;note_off;64
95520;0;55;0;note_off;64
95760;6;44;0;note_on;80
95760;6;46;720;note_off;64
95760;0;58;240;note_off;64
95760;0;55;0;note_off;64
95760;0;51;0;note_off;64
95760;0;43;0;note_off;64
95760;0;58;0;note_on;80
95760;0;55;0;note_on;80
95760;0;51;0;note_on;80
95760;0;43;0;note_on;80
96000;0;51;0;note_off;64
96000;0;43;0;note_off;64
96000;0;70;0;note_on;80
96000;0;61;0;note_on;80
96000;0;58;0;note_on;80
96000;4;70;0;note_on;96
96000;0;58;240;note_off;64
96000;4;70;480;note_off;64
96000;6;44;240;note_off;64
96000;0;46;0;note_on;80
96000;0;55;0;note_off;64
96240;0;58;0;note_on;80
96240;0;70;240;note_off;64
96240;0;61;0;note_off;64
96240;0;58;0;note_off;64
96240;0;46;0;note_off;64
96240;0;70;0;note_on;80
96240;0;46;0;note_on;80
96240;0;61;0;note_on;80
96480;4;65;0;note_on;96
96480;4;70;480;note_off;64
96480;0;46;0;note_on;80
96480;0;58;0;note_on;80
96480;0;61;0;note_on;80
96480;6;49;480;note_on;80
96480;0;70;0;note_on;80
96480;0;46;0;note_off;64
96480;0;70;240;note_off;64
96480;0;61;0;note_off;64
96480;0;58;0;note_off;64
96720;0;70;0;note_on;80
96720;0;70;240;note_off;64
96720;0;61;0;note_off;64
96720;0;58;0;note_off;64
96720;0;46;0;note_off;64
96720;0;61;0;note_on;80
96720;0;58;0;note_on;80
96720;0;46;0;note_on;80
96720;6;49;240;note_off;64
96720;6;49;0;note_on;80
96960;4;65;0;note_on;96
96960;6;49;0;note_on;80
96960;6;49;240;note_off;64
96960;0;46;0;note_on;80
96960;4;65;480;note_off;64
96960;0;61;0;note_on;80
96960;0;46;0;note_off;64
96960;0;58;0;note_off;64
96960;0;61;0;note_off;64
96960;0;70;240;note_off;64
96960;0;70;0;note_on;80
96960;0;58;0;note_on;80
97200;0;58;0;note_on;80
97200;0;46;0;note_on;80
97200;0;70;240;note_off;64
97200;0;61;0;note_off;64
97200;0;58;0;note_off;64
97200;0;46;0;note_off;64
97200;6;49;240;note_off;64
97200;0;70;0;note_on;80
97200;6;49;0;note_on;80
97200;0;61;0;note_on;80
97440;4;65;480;note_off;64
97440;6;49;240;note_off;64
97440;4;65;0;note_on;96
97440;0;46;0;note_on;80
97440;0;58;0;note_on;80
97440;0;70;0;note_on;80
97440;0;46;0;note_off;64
97440;0;58;0;note_off;64
97440;0;61;0;note_off;64
97440;0;70;240;note_off;64
97440;6;51;0;note_on;80
97440;0;61;0;note_on;80
97680;0;70;0;note_on;80
97680;0;61;0;note_on;80
97680;0;70;240;note_off;64
97680;0;61;0;note_off;64
97680;0;58;0;note_off;64
97680;0;46;0;note_off;64
97680;0;58;0;note_on;80
97680;0;46;0;note_on;80
97920;4;65;480;note_off;64
97920;4;68;0;note_on;96
97920;6;48;0;note_on;80
97920;6;51;480;note_off;64
97920;0;60;0;note_on;80
97920;0;70;240;note_off;64
97920;0;56;0;note_on;80
97920;0;58;0;note_off;64
97920;0;46;0;note_off;64
97920;0;44;0;note_on;80
97920;0;61;0;note_off;64
97920;0;51;0;note_on;80
98160;0;44;0;note_off;64
98160;0;51;0;note_off;64
98160;0;56;0;note_off;64
98160;6;48;240;note_off;64
98160;0;56;0;note_on;80
98160;0;60;240;note_off;64
98160;0;51;0;note_on;80
98160;0;44;0;note_on;80
98160;0;60;0;note_on;80
98160;6;46;0;note_on;80
98400;6;46;240;note_off;64
98400;6;44;0;note_on;80
98400;4;68;0;note_on;96
98400;4;68;480;note_off;64
98400;0;51;0;note_on;80
98400;0;44;0;note_on;80
98400;0;60;240;note_off;64
98400;0;56;0;note_off;64
98400;0;51;0;note_off;64
98400;0;44;0;note_off;64
98400;0;60;0;note_on;80
98400;0;56;0;note_on;80
98640;0;60;0;note_on;80
98640;0;44;0;note_off;64
98640;0;51;0;note_off;64
98640;0;56;0;note_off;64
98640;0;60;240;note_off;64
98640;0;56;0;note_on;80
98640;0;44;0;note_on;80
98640;0;51;0;note_on;80
98880;0;43;0;note_on;80
98880;0;51;0;note_on;80
98880;0;55;0;note_on;80
98880;0;56;0;note_off;64
98880;6;44;480;note_off;64
98880;0;44;0;note_off;64
98880;4;68;0;note_on;96
98880;4;68;480;note_off;64
98880;0;60;240;note_off;64
98880;0;58;0;note_on;80
98880;0;51;0;note_off;64
99120;0;43;0;note_on;80
99120;0;51;0;note_on;80
99120;0;58;240;note_off;64
99120;0;58;0;note_on;80
99120;0;43;0;note_off;64
99120;0;51;0;note_off;64
99120;0;55;0;note_on;80
99120;0;55;0;note_off;64
99360;0;58;240;note_off;64
99360;0;55;0;note_off;64
99360;0;43;0;note_off;64
99360;0;58;0;note_on;80
99360;0;55;0;note_on;80
99360;0;51;0;note_on;80
99360;0;43;0;note_on;80
99360;4;70;0;note_on;96
99360;4;68;480;note_off;64
99360;0;51;0;note_off;64
99600;0;58;0;note_on;80
99600;0;51;0;note_off;64
99600;0;43;0;note_on;80
99600;0;43;0;note_off;64
99600;0;51;0;note_on;80
99600;0;55;0;note_on;80
99600;0;58;240;note_off;64
99600;0;55;0;note_off;64
99840;0;51;0;note_off;64
99840;0;46;0;note_on;80
99840;0;58;0;note_on;80
99840;0;70;0;note_on;80
99840;0;43;0;note_off;64
99840;0;61;0;note_on;80
99840;0;55;0;note_off;64
99840;0;58;240;note_off;64
99840;4;70;0;note_on;96
99840;4;70;480;note_off;64
100080;0;58;0;note_on;80
100080;0;70;240;note_off;64
100080;0;61;0;note_off;64
100080;0;58;0;note_off;64
100080;0;46;0;note_off;64
100080;0;70;0;note_on;80
100080;0;46;0;note_on;80
100080;0;61;0;note_on;80
100320;0;61;0;note_off;64
100320;6;49;1440;note_on;80
100320;0;70;240;note_off;64
100320;0;46;0;note_on;80
100320;0;58;0;note_on;80
100320;4;70;480;note_off;64
100320;0;70;0;note_on;80
100320;0;46;0;note_off;64
100320;4;65;0;note_on;96
100320;0;58;0;note_off;64
100320;0;61;0;note_on;80
100560;6;49;0;note_on;80
100560;6;49;240;note_off;64
100560;0;46;0;note_on;80
100560;0;58;0;note_on;80
100560;0;70;0;note_on;80
100560;0;58;0;note_off;64
100560;0;61;0;note_off;64
100560;0;70;240;note_off;64
100560;0;61;0;note_on;80
100560;0;46;0;note_off;64
100800;6;49;240;note_off;64
100800;6;49;0;note_on;80
100800;4;65;480;note_off;64
100800;0;70;240;note_off;64
100800;0;61;0;note_off;64
100800;0;58;0;note_off;64
100800;0;46;0;note_off;64
100800;0;70;0;note_on;80
100800;0;61;0;note_on;80
100800;0;58;0;note_on;80
100800;0;46;0;note_on;80
100800;4;65;0;note_on;96
101040;6;49;0;note_on;80
101040;6;49;240;note_off;64
101040;0;46;0;note_on;80
101040;0;58;0;note_on;80
101040;0;70;0;note_on;80
101040;0;46;0;note_off;64
101040;0;58;0;note_off;64
101040;0;61;0;note_off;64
101040;0;70;240;note_off;64
101040;0;61;0;note_on;80
101280;0;61;0;note_on;80
101280;6;49;240;note_off;64
101280;6;51;0;note_on;80
101280;0;58;0;note_off;64
101280;0;46;0;note_off;64
101280;0;70;0;note_on;80
101280;0;58;0;note_on;80
101280;4;65;0;note_on;96
101280;4;65;480;note_off;64
101280;0;61;0;note_off;64
101280;0;70;240;note_off;64
101280;0;46;0;note_on;80
101520;0;70;240;note_off;64
101520;0;61;0;note_off;64
101520;0;58;0;note_off;64
101520;0;46;0;note_off;64
101520;0;70;0;note_on;80
101520;6;51;240;note_off;64
101520;0;61;0;note_on;80
101520;0;46;0;note_on;80
101520;0;58;0;note_on;80
101520;6;51;0;note_on;80
101760;4;68;0;note_on;96
101760;4;65;480;note_off;64
101760;0;70;240;note_off;64
101760;0;61;0;note_off;64
101760;0;58;0;note_off;64
101760;0;46;0;note_off;64
101760;0;60;0;note_on;80
101760;0;56;0;note_on;80
101760;0;51;0;note_on;80
101760;6;48;0;note_on;80
101760;6;51;240;note_off;64
101760;0;44;0;note_on;80
102000;6;48;240;note_off;64
102000;0;56;0;note_off;64
102000;0;51;0;note_off;64
102000;0;51;0;note_on;80
102000;0;60;0;note_on;80
102000;0;56;0;note_on;80
102000;6;46;0;note_on;80
102000;0;44;0;note_on;80
102000;0;44;0;note_off;64
102000;0;60;240;note_off;64
102240;4;68;480;note_off;64
102240;0;44;0;note_on;80
102240;6;46;240;note_off;64
102240;0;60;240;note_off;64
102240;0;56;0;note_off;64
102240;0;51;0;note_off;64
102240;0;44;0;note_off;64
102240;0;60;0;note_on;80
102240;0;56;0;note_on;80
102240;0;51;0;note_on;80
102240;4;68;0;note_on;96
102240;6;44;0;note_on;80
102480;0;56;0;note_off;64
102480;0;51;0;note_off;64
102480;0;60;240;note_off;64
102480;0;60;0;note_on;80
102480;0;44;0;note_off;64
102480;6;44;0;note_on;80
102480;6;44;240;note_off;64
102480;0;51;0;note_on;80
102480;0;44;0;note_on;80
102480;0;56;0;note_on;80
102720;0;55;0;note_on;80
102720;0;58;0;note_on;80
102720;0;43;0;note_on;80
102720;4;68;0;note_on;96
102720;4;68;480;note_off;64
102720;6;44;240;note_off;64
102720;6;46;0;note_on;80
102720;0;56;0;note_off;64
102720;0;51;0;note_on;80
102720;0;44;0;note_off;64
102720;0;51;0;note_off;64
102720;0;60;240;note_off;64
102960;0;55;0;note_on;80
102960;0;51;0;note_on;80
102960;0;43;0;note_on;80
102960;0;55;0;note_off;64
102960;0;58;240;note_off;64
102960;0;58;0;note_on;80
102960;0;43;0;note_off;64
102960;0;51;0;note_off;64
103200;0;58;240;note_off;64
103200;0;55;0;note_off;64
103200;0;51;0;note_off;64
103200;4;68;480;note_off;64
103200;0;58;0;note_on;80
103200;4;70;0;note_on;96
103200;0;55;0;note_on;80
103200;0;51;0;note_on;80
103200;0;43;0;note_on;80
103200;0;43;0;note_off;64
103440;0;58;240;note_off;64
103440;0;55;0;note_off;64
103440;0;51;0;note_off;64
103440;0;43;0;note_on;80
103440;0;51;0;note_on;80
103440;0;55;0;note_on;80
103440;6;46;720;note_off;64
103440;6;44;0;note_on;80
103440;0;43;0;note_off;64
103440;0;58;0;note_on;80
103680;4;70;0;note_on;96
103680;6;44;240;note_off;64
103680;0;55;0;note_off;64
103680;0;58;240;note_off;64
103680;0;43;0;note_off;64
103680;0;70;0;note_on;80
103680;0;61;0;note_on;80
103680;0;58;0;note_on;80
103680;0;46;0;note_on;80
103680;4;70;480;note_off;64
103680;0;51;0;note_off;64
103920;0;61;0;note_on;80
103920;0;70;0;note_on;80
103920;0;46;0;note_off;64
103920;0;61;0;note_off;64
103920;0;58;0;note_on;80
103920;0;70;240;note_off;64
103920;0;58;0;note_off;64
103920;0;46;0;note_on;80
104160;4;65;0;note_on;96
104160;6;49;480;note_on;80
104160;0;61;0;note_off;64
104160;0;58;0;note_off;64
104160;0;46;0;note_off;64
104160;0;70;0;note_on;80
104160;0;58;0;note_on;80
104160;4;70;480;note_off;64
104160;0;70;240;note_off;64
104160;0;46;0;note_on;80
104160;0;61;0;note_on;80
104400;0;70;0;note_on;80
104400;6;49;0;note_on;80
104400;6;49;240;note_off;64
104400;0;61;0;note_off;64
104400;0;70;240;note_off;64
104400;0;58;0;note_off;64
104400;0;46;0;note_off;64
104400;0;61;0;note_on;80
104400;0;58;0;note_on;80
104400;0;46;0;note_on;80
104640;6;49;240;note_off;64
104640;0;70;240;note_off;64
104640;0;61;0;note_off;64
104640;0;58;0;note_off;64
104640;4;65;480;note_off;64
104640;6;49;0;note_on;80
104640;0;46;0;note_off;64
104640;0;70;0;note_on;80
104640;0;61;0;note_on;80
104640;0;58;0;note_on;80
104640;0;46;0;note_on;80
104640;4;65;0;note_on;96
104880;0;58;0;note_on;80
104880;6;49;0;note_on;80
104880;6;49;240;note_off;64
104880;0;70;240;note_off;64
104880;0;46;0;note_off;64
104880;0;46;0;note_on;80
104880;0;61;0;note_off;64
104880;0;58;0;note_off;64
104880;0;70;0;note_on;80
104880;0;61;0;note_on;80
105120;6;49;240;note_off;64
105120;6;51;0;note_on;80
105120;0;46;0;note_on;80
105120;4;65;480;note_off;64
105120;0;61;0;note_on;80
105120;0;70;0;note_on;80
105120;0;46;0;note_off;64
105120;0;58;0;note_off;64
105120;0;70;240;note_off;64
105120;4;65;0;note_on;96
105120;0;58;0;note_on;80
105120;0;61;0;note_off;64
105360;0;61;0;note_on;80
105360;0;61;0;note_off;64
105360;0;58;0;note_off;64
105360;0;70;240;note_off;64
105360;0;58;0;note_on;80
105360;0;46;0;note_off;64
105360;0;46;0;note_on;80
105360;0;70;0;note_on;80
105600;0;44;0;note_on;80
105600;4;65;480;note_off;64
105600;6;51;480;note_off;64
105600;6;48;0;note_on;80
105600;0;61;0;note_off;64
105600;0;58;0;note_off;64
105600;0;46;0;note_off;64
105600;0;60;0;note_on;80
105600;0;56;0;note_on;80
105600;0;51;0;note_on;80
105600;0;70;240;note_off;64
105600;4;68;0;note_on;96
105840;0;51;0;note_off;64
105840;0;56;0;note_off;64
105840;0;44;0;note_off;64
105840;0;60;0;note_on;80
105840;0;56;0;note_on;80
105840;0;51;0;note_on;80
105840;0;44;0;note_on;80
105840;6;46;0;note_on;80
105840;0;60;240;note_off;64
105840;6;48;240;note_off;64
106080;0;60;0;note_on;80
106080;6;44;0;note_on;80
106080;0;56;0;note_on;80
106080;6;46;240;note_off;64
106080;4;68;480;note_off;64
106080;4;68;0;note_on;96
106080;0;56;0;note_off;64
106080;0;44;0;note_off;64
106080;0;51;0;note_on;80
106080;0;44;0;note_on;80
106080;0;51;0;note_off;64
106080;0;60;240;note_off;64
106320;0;60;240;note_off;64
106320;0;44;0;note_on;80
106320;0;51;0;note_on;80
106320;0;60;0;note_on;80
106320;0;44;0;note_off;64
106320;0;51;0;note_off;64
106320;0;56;0;note_off;64
106320;6;44;240;note_off;64
106320;6;44;0;note_on;80
106320;0;56;0;note_on;80
106560;0;44;0;note_off;64
106560;4;68;480;note_off;64
106560;0;58;0;note_on;80
106560;0;55;0;note_on;80
106560;0;51;0;note_on;80
106560;0;43;0;note_on;80
106560;4;68;0;note_on;96
106560;0;51;0;note_off;64
106560;0;56;0;note_off;64
106560;6;43;0;note_on;72
106560;0;60;240;note_off;64
106560;6;44;240;note_off;64
106800;0;55;0;note_on;80
106800;0;55;0;note_off;64
106800;0;58;240;note_off;64
106800;0;43;0;note_on;80
106800;0;58;0;note_on;80
106800;0;51;0;note_on;80
106800;0;51;0;note_off;64
106800;0;43;0;note_off;64
107040;0;58;240;note_off;64
107040;0;43;0;note_on;80
107040;0;55;0;note_off;64
107040;4;70;0;note_on;96
107040;0;51;0;note_off;64
107040;0;43;0;note_off;64
107040;4;68;480;note_off;64
107040;0;51;0;note_on;80
107040;0;58;0;note_on;80
107040;0;55;0;note_on;80
107280;0;58;240;note_off;64
107280;0;55;0;note_off;64
107280;0;43;0;note_on;80
107280;0;51;0;note_on;80
107280;0;55;0;note_on;80
107280;0;58;0;note_on;80
107280;0;43;0;note_off;64
107280;0;51;0;note_off;64
107280;6;43;720;note_off;64
107520;4;70;480;note_off;64
107520;4;70;0;note_on;80
107520;0;46;0;note_on;80
107520;2;34;30720;note_on;80
107520;0;43;0;note_off;64
107520;0;61;0;note_on;80
107520;0;70;0;note_on;80
107520;9;39;30720;note_on;80
107520;0;51;0;note_off;64
107520;0;55;0;note_off;64
107520;0;58;240;note_off;64
107520;0;58;0;note_on;80
107760;2;34;0;note_on;80
107760;0;61;0;note_off;64
107760;0;58;0;note_off;64
107760;0;46;0;note_off;64
107760;0;70;0;note_on;80
107760;4;70;240;note_off;64
107760;2;34;240;note_off;64
107760;0;46;0;note_on;80
107760;0;70;240;note_off;64
107760;0;58;0;note_on;80
107760;4;70;0;note_on;80
107760;0;61;0;note_on;80
107760;9;39;240;note_off;64
108000;2;34;240;note_off;64
108000;2;34;0;note_on;80
108000;4;72;0;note_on;80
108000;9;39;240;note_on;80
108000;6;49;720;note_on;80
108000;4;70;240;note_off;64
108240;6;49;0;note_on;80
108240;2;34;240;note_off;64
108240;0;70;480;note_off;64
108240;4;73;0;note_on;80
108240;0;70;0;note_on;80
108240;0;61;0;note_on;80
108240;4;72;240;note_off;64
108240;2;34;0;note_on;80
108240;0;58;0;note_on;80
108240;9;39;240;note_off;64
108240;0;58;0;note_off;64
108240;0;61;0;note_off;64
108240;6;49;240;note_off;64
108240;0;46;0;note_off;64
108240;0;46;0;note_on;80
108480;6;49;240;note_off;64
108480;0;70;240;note_off;64
108480;2;34;240;note_off;64
108480;4;73;240;note_off;64
108480;4;75;0;note_on;80
108480;0;61;0;note_off;64
108480;0;58;0;note_on;80
108480;0;46;0;note_on;80
108480;2;34;0;note_on;80
108480;0;61;0;note_on;80
108480;0;70;0;note_on;80
108480;0;46;0;note_off;64
108480;0;58;0;note_off;64
108480;9;39;240;note_on;80
108480;6;49;0;note_on;80
108720;0;61;0;note_on;80
108720;0;46;0;note_off;64
108720;0;58;0;note_off;64
108720;0;61;0;note_off;64
108720;0;58;0;note_on;80
108720;0;46;0;note_on;80
108720;0;70;0;note_on;80
108720;2;34;240;note_off;64
108720;4;75;240;note_off;64
108720;0;70;240;note_off;64
108720;6;49;240;note_off;64
108720;6;49;0;note_on;80
108720;9;39;240;note_off;64
108720;2;34;0;note_on;80
108720;4;73;0;note_on;80
108960;9;39;240;note_on;80
108960;4;72;0;note_on;80
108960;2;34;240;note_off;64
108960;2;34;0;note_on;80
108960;6;51;0;note_on;80
108960;6;49;240;note_off;64
108960;4;73;240;note_off;64
109200;6;51;0;note_on;80
109200;2;34;240;note_off;64
109200;0;46;0;note_on;80
109200;0;58;0;note_on;80
109200;0;61;0;note_on;80
109200;0;70;0;note_on;80
109200;0;46;0;note_off;64
109200;0;58;0;note_off;64
109200;0;70;480;note_off;64
109200;9;39;240;note_off;64
109200;6;51;240;note_off;64
109200;4;70;0;note_on;80
109200;4;72;240;note_off;64
109200;0;61;0;note_off;64
109200;2;34;0;note_on;80
109440;4;65;0;note_on;80
109440;4;70;240;note_off;64
109440;0;60;0;note_on;80
109440;2;32;0;note_on;80
109440;0;44;0;note_on;80
109440;0;51;0;note_on;80
109440;0;56;0;note_on;80
109440;0;70;240;note_off;64
109440;0;61;0;note_off;64
109440;0;58;0;note_off;64
109440;2;34;240;note_off;64
109440;6;48;0;note_on;80
109440;0;46;0;note_off;64
109440;9;39;240;note_on;80
109440;6;51;240;note_off;64
109680;0;60;240;note_off;64
109680;0;44;0;note_off;64
109680;2;32;240;note_off;64
109680;2;32;0;note_on;80
109680;0;60;0;note_on;80
109680;0;56;0;note_on;80
109680;0;56;0;note_off;64
109680;0;44;0;note_on;80
109680;0;51;0;note_on;80
109680;6;46;0;note_on;80
109680;4;70;0;note_on;80
109680;4;65;240;note_off;64
109680;6;48;240;note_off;64
109680;9;39;240;note_off;64
109680;0;51;0;note_off;64
109920;6;44;0;note_on;80
109920;6;46;240;note_off;64
109920;9;39;240;note_on;80
109920;4;72;0;note_on;80
109920;2;32;0;note_on;80
109920;2;32;240;note_off;64
109920;4;70;240;note_off;64
110160;9;39;240;note_off;64
110160;0;56;0;note_on;80
110160;0;51;0;note_on;80
110160;0;44;0;note_on;80
110160;0;44;0;note_off;64
110160;0;60;0;note_on;80
110160;0;51;0;note_off;64
110160;0;56;0;note_off;64
110160;0;60;480;note_off;64
110160;2;32;240;note_off;64
110160;2;32;0;note_on;80
110160;4;73;0;note_on;80
110160;4;72;240;note_off;64
110400;4;65;0;note_on;80
110400;4;73;240;note_off;64
110400;2;27;0;note_on;80
110400;2;32;240;note_off;64
110400;0;43;0;note_on;80
110400;6;44;480;note_off;64
110400;0;51;0;note_on;80
110400;0;58;0;note_on;80
110400;0;44;0;note_off;64
110400;0;51;0;note_off;64
110400;0;56;0;note_off;64
110400;0;60;240;note_off;64
110400;9;39;240;note_on;80
110400;0;55;0;note_on;80
110400;6;46;0;note_on;80
110640;2;27;240;note_off;64
110640;2;27;0;note_on;80
110640;9;39;240;note_off;64
110640;0;55;0;note_on;80
110640;0;43;0;note_on;80
110640;0;58;0;note_on;80
110640;0;43;0;note_off;64
110640;0;51;0;note_off;64
110640;0;55;0;note_off;64
110640;4;65;240;note_off;64
110640;0;58;240;note_off;64
110640;4;70;0;note_on;80
110640;0;51;0;note_on;80
110880;2;27;240;note_off;64
110880;4;70;240;note_off;64
110880;4;72;0;note_on;80
110880;2;27;0;note_on;80
110880;9;39;240;note_on;80
111120;0;58;480;note_off;64
111120;6;44;0;note_on;80
111120;0;43;0;note_on;80
111120;4;72;240;note_off;64
111120;4;73;0;note_on;80
111120;9;39;240;note_off;64
111120;6;46;720;note_off;64
111120;0;51;0;note_on;80
111120;0;55;0;note_on;80
111120;2;27;240;note_off;64
111120;0;58;0;note_on;80
111120;0;43;0;note_off;64
111120;0;51;0;note_off;64
111120;0;55;0;note_off;64
111120;2;27;0;note_on;80
111240;9;39;120;note_on;80
111360;0;61;0;note_on;80
111360;0;70;0;note_on;80
111360;0;51;0;note_off;64
111360;0;58;0;note_on;80
111360;0;46;0;note_on;80
111360;4;70;0;note_on;80
111360;4;73;240;note_off;64
111360;0;43;0;note_off;64
111360;0;55;0;note_off;64
111360;9;39;0;note_on;80
111360;9;39;120;note_off;64
111360;2;27;240;note_off;64
111360;2;34;0;note_on;80
111360;6;44;240;note_off;64
111360;0;58;240;note_off;64
111600;9;39;240;note_off;64
111600;4;70;240;note_off;64
111600;4;70;0;note_on;80
111600;0;61;0;note_on;80
111600;0;70;0;note_on;80
111600;0;46;0;note_off;64
111600;0;61;0;note_off;64
111600;0;70;240;note_off;64
111600;0;58;0;note_on;80
111600;0;46;0;note_on;80
111600;2;34;240;note_off;64
111600;0;58;0;note_off;64
111600;2;34;0;note_on;80
111840;6;49;480;note_on;80
111840;9;39;240;note_on;80
111840;4;72;0;note_on;80
111840;4;70;240;note_off;64
111840;2;34;240;note_off;64
111840;2;34;0;note_on;80
112080;0;61;0;note_off;64
112080;2;34;240;note_off;64
112080;2;34;0;note_on;80
112080;0;46;0;note_on;80
112080;4;72;240;note_off;64
112080;0;58;0;note_on;80
112080;0;70;0;note_on;80
112080;0;46;0;note_off;64
112080;0;58;0;note_off;64
112080;0;70;480;note_off;64
112080;6;49;0;note_on;80
112080;6;49;240;note_off;64
112080;0;61;0;note_on;80
112080;4;73;0;note_on;80
112080;9;39;240;note_off;64
112320;6;49;240;note_off;64
112320;0;70;0;note_on;80
112320;0;46;0;note_off;64
112320;0;58;0;note_off;64
112320;6;49;0;note_on;80
112320;2;34;0;note_on;80
112320;2;34;240;note_off;64
112320;0;61;0;note_off;64
112320;0;70;240;note_off;64
112320;0;61;0;note_on;80
112320;0;58;0;note_on;80
112320;9;39;240;note_on;80
112320;4;73;240;note_off;64
112320;4;75;0;note_on;80
112320;0;46;0;note_on;80
112560;0;70;240;note_off;64
112560;0;61;0;note_off;64
112560;0;61;0;note_on;80
112560;0;46;0;note_off;64
112560;0;46;0;note_on;80
112560;6;49;240;note_off;64
112560;0;58;0;note_off;64
112560;0;58;0;note_on;80
112560;2;34;240;note_off;64
112560;6;49;0;note_on;80
112560;9;39;240;note_off;64
112560;4;75;240;note_off;64
112560;4;73;0;note_on;80
112560;0;70;0;note_on;80
112560;2;34;0;note_on;80
112800;6;49;240;note_off;64
112800;6;51;0;note_on;80
112800;4;72;0;note_on;80
112800;4;73;240;note_off;64
112800;9;39;240;note_on;80
112800;2;34;240;note_off;64
112800;2;34;0;note_on;80
113040;0;46;0;note_off;64
113040;4;72;240;note_off;64
113040;0;70;480;note_off;64
113040;4;70;0;note_on;80
113040;9;39;240;note_off;64
113040;0;70;0;note_on;80
113040;2;34;0;note_on;80
113040;2;34;240;note_off;64
113040;0;46;0;note_on;80
113040;0;58;0;note_on;80
113040;0;61;0;note_on;80
113040;0;61;0;note_off;64
113040;0;58;0;note_off;64
113280;0;60;0;note_on;80
113280;0;46;0;note_off;64
113280;0;58;0;note_off;64
113280;0;61;0;note_off;64
113280;0;51;0;note_on;80
113280;0;44;0;note_on;80
113280;9;39;240;note_on;80
113280;6;48;0;note_on;80
113280;0;56;0;note_on;80
113280;0;70;240;note_off;64
113280;6;51;480;note_off;64
113280;4;70;240;note_off;64
113280;4;65;0;note_on;80
113280;2;32;0;note_on;80
113280;2;34;240;note_off;64
113520;0;60;0;note_on;80
113520;4;70;0;note_on;80
113520;0;60;240;note_off;64
113520;0;56;0;note_off;64
113520;0;51;0;note_off;64
113520;0;44;0;note_off;64
113520;0;56;0;note_on;80
113520;0;51;0;note_on;80
113520;0;44;0;note_on;80
113520;9;39;240;note_off;64
113520;4;65;240;note_off;64
113520;2;32;240;note_off;64
113520;2;32;0;note_on;80
113520;6;48;240;note_off;64
113520;6;46;0;note_on;80
113760;4;72;0;note_on;80
113760;2;32;0;note_on;80
113760;2;32;240;note_off;64
113760;6;44;0;note_on;80
113760;6;46;240;note_off;64
113760;4;70;240;note_off;64
113760;9;39;240;note_on;80
114000;0;60;0;note_on;80
114000;0;44;0;note_off;64
114000;0;51;0;note_off;64
114000;0;56;0;note_off;64
114000;0;60;480;note_off;64
114000;4;73;0;note_on;80
114000;4;72;240;note_off;64
114000;0;56;0;note_on;80
114000;9;39;240;note_off;64
114000;2;32;240;note_off;64
114000;2;32;0;note_on;80
114000;0;51;0;note_on;80
114000;0;44;0;note_on;80
114240;0;58;0;note_on;80
114240;0;44;0;note_off;64
114240;0;51;0;note_off;64
114240;0;56;0;note_off;64
114240;0;55;0;note_on;80
114240;0;51;0;note_on;80
114240;0;43;0;note_on;80
114240;0;60;240;note_off;64
114240;4;73;240;note_off;64
114240;4;65;0;note_on;80
114240;9;39;240;note_on;80
114240;6;44;480;note_off;64
114240;2;32;240;note_off;64
114240;2;27;0;note_on;80
114480;0;58;0;note_on;80
114480;0;43;0;note_on;80
114480;0;55;0;note_on;80
114480;0;51;0;note_on;80
114480;0;43;0;note_off;64
114480;2;27;240;note_off;64
114480;0;55;0;note_off;64
114480;0;58;240;note_off;64
114480;2;27;0;note_on;80
114480;4;70;0;note_on;80
114480;9;39;240;note_off;64
114480;0;51;0;note_off;64
114480;4;65;240;note_off;64
114720;9;39;240;note_on;80
114720;2;27;0;note_on;80
114720;4;70;240;note_off;64
114720;4;72;0;note_on;80
114720;2;27;240;note_off;64
114960;9;39;240;note_off;64
114960;4;72;240;note_off;64
114960;0;58;0;note_on;80
114960;2;27;240;note_off;64
114960;2;27;0;note_on;80
114960;4;73;0;note_on;80
114960;0;58;480;note_off;64
114960;0;55;0;note_off;64
114960;0;43;0;note_on;80
114960;0;51;0;note_on;80
114960;0;55;0;note_on;80
114960;0;51;0;note_off;64
114960;0;43;0;note_off;64
115080;9;39;120;note_on;80
115200;0;51;0;note_off;64
115200;0;58;240;note_off;64
115200;0;46;0;note_on;80
115200;0;58;0;note_on;80
115200;0;61;0;note_on;80
115200;0;70;0;note_on;80
115200;0;43;0;note_off;64
115200;0;55;0;note_off;64
115200;9;39;0;note_on;80
115200;9;39;120;note_off;64
115200;2;34;0;note_on;80
115200;4;70;0;note_on;80
115200;4;73;240;note_off;64
115200;2;27;240;note_off;64
115440;0;70;0;note_on;80
115440;0;46;0;note_off;64
115440;0;58;0;note_off;64
115440;0;61;0;note_off;64
115440;0;70;240;note_off;64
115440;0;58;0;note_on;80
115440;0;46;0;note_on;80
115440;2;34;0;note_on;80
115440;2;34;240;note_off;64
115440;0;61;0;note_on;80
115440;9;39;240;note_off;64
115440;4;70;0;note_on;80
115440;4;70;240;note_off;64
115680;4;70;240;note_off;64
115680;2;34;240;note_off;64
115680;2;34;0;note_on;80
115680;4;72;0;note_on;80
115680;6;49;1440;note_on;80
115680;9;39;240;note_on;80
115920;0;70;480;note_off;64
115920;0;61;0;note_off;64
115920;0;46;0;note_on;80
115920;0;58;0;note_on;80
115920;0;61;0;note_on;80
115920;0;70;0;note_on;80
115920;6;49;240;note_off;64
115920;0;58;0;note_off;64
115920;0;46;0;note_off;64
115920;2;34;0;note_on;80
115920;2;34;240;note_off;64
115920;4;72;240;note_off;64
115920;4;73;0;note_on;80
115920;9;39;240;note_off;64
115920;6;49;0;note_on;80
116160;6;49;0;note_on;80
116160;2;34;0;note_on;80
116160;4;73;240;note_off;64
116160;4;75;0;note_on;80
116160;2;34;240;note_off;64
116160;6;49;240;note_off;64
116160;0;61;0;note_off;64
116160;0;58;0;note_off;64
116160;0;46;0;note_off;64
116160;0;70;0;note_on;80
116160;0;61;0;note_on;80
116160;0;58;0;note_on;80
116160;0;46;0;note_on;80
116160;0;70;240;note_off;64
116160;9;39;240;note_on;80
116400;2;34;0;note_on;80
116400;0;58;0;note_on;80
116400;4;75;240;note_off;64
116400;9;39;240;note_off;64
116400;0;61;0;note_on;80
116400;4;73;0;note_on;80
116400;0;46;0;note_on;80
116400;0;70;0;note_on;80
116400;2;34;240;note_off;64
116400;0;58;0;note_off;64
116400;0;61;0;note_off;64
116400;6;49;0;note_on;80
116400;6;49;240;note_off;64
116400;0;70;240;note_off;64
116400;0;46;0;note_off;64
116640;9;39;240;note_on;80
116640;6;51;0;note_on;80
116640;6;49;240;note_off;64
116640;2;34;240;note_off;64
116640;4;73;240;note_off;64
116640;4;72;0;note_on;80
116640;2;34;0;note_on;80
116880;4;72;240;note_off;64
116880;4;70;0;note_on;80
116880;9;39;240;note_off;64
116880;0;46;0;note_on;80
116880;0;61;0;note_on;80
116880;0;58;0;note_on;80
116880;0;46;0;note_off;64
116880;2;34;0;note_on;80
116880;2;34;240;note_off;64
116880;6;51;0;note_on;80
116880;6;51;240;note_off;64
116880;0;70;0;note_on;80
116880;0;61;0;note_off;64
116880;0;70;480;note_off;64
116880;0;58;0;note_off;64
117120;0;60;0;note_on;80
117120;0;46;0;note_off;64
117120;0;58;0;note_off;64
117120;0;61;0;note_off;64
117120;0;70;240;note_off;64
117120;4;70;240;note_off;64
117120;2;34;240;note_off;64
117120;2;32;0;note_on;80
117120;0;51;0;note_on;80
117120;0;44;0;note_on;80
117120;4;65;0;note_on;80
117120;0;56;0;note_on;80
117120;6;48;0;note_on;80
117120;9;39;240;note_on;80
117120;6;51;240;note_off;64
117360;2;32;240;note_off;64
117360;2;32;0;note_on;80
117360;4;70;0;note_on;80
117360;6;46;0;note_on;80
117360;6;48;240;note_off;64
117360;9;39;240;note_off;64
117360;4;65;240;note_off;64
117360;0;51;0;note_on;80
117360;0;44;0;note_on;80
117360;0;56;0;note_off;64
117360;0;60;240;note_off;64
117360;0;51;0;note_off;64
117360;0;44;0;note_off;64
117360;0;56;0;note_on;80
117360;0;60;0;note_on;80
117600;2;32;240;note_off;64
117600;4;70;240;note_off;64
117600;2;32;0;note_on;80
117600;4;72;0;note_on;80
117600;6;44;0;note_on;80
117600;6;46;240;note_off;64
117600;9;39;240;note_on;80
117840;9;39;240;note_off;64
117840;6;44;0;note_on;80
117840;2;32;240;note_off;64
117840;6;44;240;note_off;64
117840;4;72;240;note_off;64
117840;0;44;0;note_on;80
117840;0;51;0;note_on;80
117840;0;56;0;note_on;80
117840;0;60;0;note_on;80
117840;0;44;0;note_off;64
117840;0;51;0;note_off;64
117840;0;56;0;note_off;64
117840;0;60;480;note_off;64
117840;4;73;0;note_on;80
117840;2;32;0;note_on;80
118080;4;65;0;note_on;80
118080;0;60;240;note_off;64
118080;6;46;0;note_on;80
118080;4;73;240;note_off;64
118080;2;32;240;note_off;64
118080;6;44;240;note_off;64
118080;2;27;0;note_on;80
118080;0;58;0;note_on;80
118080;9;39;240;note_on;80
118080;0;56;0;note_off;64
118080;0;51;0;note_off;64
118080;0;44;0;note_off;64
118080;0;55;0;note_on;80
118080;0;51;0;note_on;80
118080;0;43;0;note_on;80
118320;2;27;0;note_on;80
118320;9;39;240;note_off;64
118320;0;43;0;note_on;80
118320;0;51;0;note_on;80
118320;0;55;0;note_on;80
118320;0;58;0;note_on;80
118320;0;51;0;note_off;64
118320;4;70;0;note_on;80
118320;0;43;0;note_off;64
118320;2;27;240;note_off;64
118320;0;58;240;note_off;64
118320;4;65;240;note_off;64
118320;0;55;0;note_off;64
118560;2;27;0;note_on;80
118560;2;27;240;note_off;64
118560;9;39;240;note_on;80
118560;4;70;240;note_off;64
118560;4;72;0;note_on;80
118800;0;55;0;note_on;80
118800;9;39;240;note_off;64
118800;0;58;0;note_on;80
118800;0;43;0;note_off;64
118800;6;44;0;note_on;80
118800;6;46;720;note_off;64
118800;4;72;240;note_off;64
118800;4;73;0;note_on;80
118800;2;27;0;note_on;80
118800;2;27;240;note_off;64
118800;0;51;0;note_off;64
118800;0;55;0;note_off;64
118800;0;58;480;note_off;64
118800;0;51;0;note_on;80
118800;0;43;0;note_on;80
118920;9;39;120;note_on;80
119040;0;51;0;note_off;64
119040;9;39;120;note_off;64
119040;9;39;0;note_on;80
119040;4;70;0;note_on;80
119040;0;43;0;note_off;64
119040;6;44;240;note_off;64
119040;2;27;240;note_off;64
119040;2;34;0;note_on;80
119040;4;73;240;note_off;64
119040;0;70;0;note_on;80
119040;0;46;0;note_on;80
119040;0;58;0;note_on;80
119040;0;55;0;note_off;64
119040;0;61;0;note_on;80
119040;0;58;240;note_off;64
119280;2;34;0;note_on;80
119280;0;46;0;note_on;80
119280;0;58;0;note_on;80
119280;4;70;0;note_on;80
119280;0;70;240;note_off;64
119280;2;34;240;note_off;64
119280;9;39;240;note_off;64
119280;0;61;0;note_on;80
119280;0;70;0;note_on;80
119280;0;58;0;note_off;64
119280;0;61;0;note_off;64
119280;4;70;240;note_off;64
119280;0;46;0;note_off;64
119520;2;34;240;note_off;64
119520;9;39;240;note_on;80
119520;4;70;240;note_off;64
119520;6;49;480;note_on;80
119520;2;34;0;note_on;80
119520;4;72;0;note_on;80
119760;9;39;240;note_off;64
119760;0;58;0;note_on;80
119760;0;46;0;note_on;80
119760;2;34;0;note_on;80
119760;0;61;0;note_on;80
119760;4;73;0;note_on;80
119760;4;72;240;note_off;64
119760;6;49;240;note_off;64
119760;6;49;0;note_on;80
119760;0;70;480;note_off;64
119760;0;61;0;note_off;64
119760;0;58;0;note_off;64
119760;0;46;0;note_off;64
119760;2;34;240;note_off;64
119760;0;70;0;note_on;80
120000;0;70;0;note_on;80
120000;9;39;240;note_on;80
120000;0;70;240;note_off;64
120000;0;61;0;note_off;64
120000;0;58;0;note_off;64
120000;0;46;0;note_off;64
120000;4;75;0;note_on;80
120000;4;73;240;note_off;64
120000;6;49;240;note_off;64
120000;6;49;0;note_on;80
120000;2;34;0;note_on;80
120000;2;34;240;note_off;64
120000;0;46;0;note_on;80
120000;0;61;0;note_on;80
120000;0;58;0;note_on;80
120240;0;70;0;note_on;80
120240;0;46;0;note_off;64
120240;0;58;0;note_off;64
120240;0;61;0;note_on;80
120240;0;70;240;note_off;64
120240;0;61;0;note_off;64
120240;2;34;240;note_off;64
120240;2;34;0;note_on;80
120240;0;58;0;note_on;80
120240;0;46;0;note_on;80
120240;6;49;240;note_off;64
120240;9;39;240;note_off;64
120240;6;49;0;note_on;80
120240;4;75;240;note_off;64
120240;4;73;0;note_on;80
120480;6;51;0;note_on;80
120480;4;73;240;note_off;64
120480;6;49;240;note_off;64
120480;2;34;240;note_off;64
120480;2;34;0;note_on;80
120480;9;39;240;note_on;80
120480;4;72;0;note_on;80
120720;2;34;0;note_on;80
120720;2;34;240;note_off;64
120720;0;70;0;note_on;80
120720;0;61;0;note_off;64
120720;9;39;240;note_off;64
120720;0;61;0;note_on;80
120720;0;58;0;note_on;80
120720;0;46;0;note_off;64
120720;0;58;0;note_off;64
120720;0;46;0;note_on;80
120720;0;70;480;note_off;64
120720;4;70;0;note_on;80
120720;4;72;240;note_off;64
120960;0;70;240;note_off;64
120960;0;61;0;note_off;64
120960;2;34;240;note_off;64
120960;2;32;0;note_on;80
120960;0;58;0;note_off;64
120960;0;46;0;note_off;64
120960;6;48;0;note_on;80
120960;0;56;0;note_on;80
120960;0;44;0;note_on;80
120960;4;70;240;note_off;64
120960;4;65;0;note_on;80
120960;9;39;240;note_on;80
120960;6;51;480;note_off;64
120960;0;60;0;note_on;80
120960;0;51;0;note_on;80
121200;6;48;240;note_off;64
121200;6;46;0;note_on;80
121200;2;32;240;note_off;64
121200;0;44;0;note_off;64
121200;0;60;240;note_off;64
121200;0;56;0;note_off;64
121200;0;51;0;note_off;64
121200;0;60;0;note_on;80
121200;0;56;0;note_on;80
121200;0;51;0;note_on;80
121200;0;44;0;note_on;80
121200;4;65;240;note_off;64
121200;4;70;0;note_on;80
121200;2;32;0;note_on;80
121200;9;39;240;note_off;64
121440;4;70;240;note_off;64
121440;4;72;0;note_on;80
121440;2;32;0;note_on;80
121440;9;39;240;note_on;80
121440;6;46;240;note_off;64
121440;6;44;0;note_on;80
121440;2;32;240;note_off;64
121680;6;44;240;note_off;64
121680;9;39;240;note_off;64
121680;2;32;0;note_on;80
121680;2;32;240;note_off;64
121680;6;44;0;note_on;80
121680;4;72;240;note_off;64
121680;4;73;0;note_on;80
121680;0;60;0;note_on;80
121680;0;56;0;note_off;64
121680;0;51;0;note_off;64
121680;0;44;0;note_off;64
121680;0;56;0;note_on;80
121680;0;51;0;note_on;80
121680;0;44;0;note_on;80
121680;0;60;480;note_off;64
121920;0;56;0;note_off;64
121920;0;51;0;note_off;64
121920;0;44;0;note_off;64
121920;0;58;0;note_on;80
121920;0;55;0;note_on;80
121920;0;51;0;note_on;80
121920;0;43;0;note_on;80
121920;0;60;240;note_off;64
121920;6;44;240;note_off;64
121920;2;32;240;note_off;64
121920;2;27;0;note_on;80
121920;4;73;240;note_off;64
121920;4;65;0;note_on;80
121920;9;39;240;note_on;80
121920;6;43;0;note_on;72
122160;9;39;240;note_off;64
122160;0;55;0;note_on;80
122160;0;58;0;note_on;80
122160;0;51;0;note_off;64
122160;0;55;0;note_off;64
122160;4;70;0;note_on;80
122160;0;51;0;note_on;80
122160;4;65;240;note_off;64
122160;2;27;0;note_on;80
122160;2;27;240;note_off;64
122160;0;58;240;note_off;64
122160;0;43;0;note_on;80
122160;0;43;0;note_off;64
122400;2;27;0;note_on;80
122400;2;27;240;note_off;64
122400;9;39;240;note_on;80
122400;4;70;240;note_off;64
122400;4;72;0;note_on;80
122640;0;58;480;note_off;64
122640;0;55;0;note_on;80
122640;0;58;0;note_on;80
122640;0;43;0;note_off;64
122640;0;51;0;note_off;64
122640;0;55;0;note_off;64
122640;0;51;0;note_on;80
122640;4;73;0;note_on;80
122640;4;72;240;note_off;64
122640;9;39;240;note_off;64
122640;2;27;240;note_off;64
122640;2;27;0;note_on;80
122640;6;43;720;note_off;64
122640;0;43;0;note_on;80
122760;9;39;120;note_on;80
122880;4;73;240;note_off;64
122880;4;70;0;note_on;80
122880;9;39;0;note_on;80
122880;9;39;120;note_off;64
122880;2;34;0;note_on;80
122880;2;27;240;note_off;64
122880;0;55;0;note_off;64
122880;0;51;0;note_off;64
122880;0;43;0;note_off;64
122880;0;70;0;note_on;80
122880;0;61;0;note_on;80
122880;0;58;0;note_on;80
122880;0;46;0;note_on;80
122880;0;58;240;note_off;64
123120;0;46;0;note_on;80
123120;0;58;0;note_on;80
123120;0;61;0;note_on;80
123120;0;70;0;note_on;80
123120;0;46;0;note_off;64
123120;0;58;0;note_off;64
123120;9;39;240;note_off;64
123120;0;61;0;note_off;64
123120;2;34;0;note_on;80
123120;4;70;240;note_off;64
123120;4;70;0;note_on;80
123120;2;34;240;note_off;64
123120;0;70;240;note_off;64
123360;9;39;240;note_on;80
123360;4;70;240;note_off;64
123360;4;72;0;note_on;80
123360;2;34;0;note_on;80
123360;2;34;240;note_off;64
123600;2;34;240;note_off;64
123600;2;34;0;note_on;80
123600;0;46;0;note_on;80
123600;0;58;0;note_on;80
123600;0;61;0;note_on;80
123600;0;61;0;note_off;64
123600;0;46;0;note_off;64
123600;0;58;0;note_off;64
123600;0;70;480;note_off;64
123600;6;56;960;note_on;80
123600;4;73;0;note_on;80
123600;4;72;240;note_off;64
123600;0;70;0;note_on;80
123600;9;39;240;note_off;64
123840;0;70;240;note_off;64
123840;4;75;0;note_on;80
123840;4;73;240;note_off;64
123840;9;39;240;note_on;80
123840;2;34;0;note_on;80
123840;0;58;0;note_off;64
123840;0;46;0;note_off;64
123840;0;70;0;note_on;80
123840;0;61;0;note_on;80
123840;0;58;0;note_on;80
123840;0;46;0;note_on;80
123840;0;61;0;note_off;64
123840;2;34;240;note_off;64
124080;4;75;240;note_off;64
124080;0;70;240;note_off;64
124080;0;61;0;note_off;64
124080;9;39;240;note_off;64
124080;6;56;480;note_off;64
124080;6;53;0;note_on;80
124080;0;46;0;note_off;64
124080;0;70;0;note_on;80
124080;0;61;0;note_on;80
124080;0;58;0;note_on;80
124080;0;46;0;note_on;80
124080;2;34;0;note_on;80
124080;2;34;240;note_off;64
124080;0;58;0;note_off;64
124080;4;73;0;note_on;80
124320;2;34;240;note_off;64
124320;4;73;240;note_off;64
124320;2;34;0;note_on;80
124320;9;39;240;note_on;80
124320;4;72;0;note_on;80
124560;0;61;0;note_off;64
124560;4;70;0;note_on;80
124560;2;34;240;note_off;64
124560;2;34;0;note_on;80
124560;0;70;480;note_off;64
124560;9;39;240;note_off;64
124560;4;72;240;note_off;64
124560;0;61;0;note_on;80
124560;0;58;0;note_off;64
124560;0;46;0;note_on;80
124560;0;46;0;note_off;64
124560;0;70;0;note_on;80
124560;0;58;0;note_on;80
124800;0;70;240;note_off;64
124800;0;46;0;note_off;64
124800;2;32;0;note_on;80
124800;2;34;240;note_off;64
124800;0;60;0;note_on;80
124800;6;68;0;note_on;72
124800;6;53;720;note_off;64
124800;4;65;0;note_on;80
124800;4;70;240;note_off;64
124800;0;61;0;note_off;64
124800;0;58;0;note_off;64
124800;9;39;240;note_on;80
124800;0;56;0;note_on;80
124800;0;51;0;note_on;80
124800;0;44;0;note_on;80
125040;0;44;0;note_off;64
125040;0;56;0;note_off;64
125040;0;60;240;note_off;64
125040;0;51;0;note_off;64
125040;0;60;0;note_on;80
125040;0;56;0;note_on;80
125040;0;51;0;note_on;80
125040;0;44;0;note_on;80
125040;2;32;240;note_off;64
125040;6;68;0;note_on;72
125040;2;32;0;note_on;80
125040;9;39;240;note_off;64
125040;4;70;0;note_on;80
125040;4;65;240;note_off;64
125040;6;68;240;note_off;64
125280;2;32;0;note_on;80
125280;4;72;0;note_on;80
125280;4;70;240;note_off;64
125280;9;39;240;note_on;80
125280;6;66;0;note_on;72
125280;6;68;240;note_off;64
125280;2;32;240;note_off;64
125520;4;72;240;note_off;64
125520;4;73;0;note_on;80
125520;0;51;0;note_on;80
125520;6;66;0;note_on;72
125520;0;56;0;note_on;80
125520;0;60;480;note_off;64
125520;2;32;0;note_on;80
125520;9;39;240;note_off;64
125520;0;56;0;note_off;64
125520;0;51;0;note_off;64
125520;0;44;0;note_off;64
125520;0;60;0;note_on;80
125520;0;44;0;note_on;80
125520;6;66;240;note_off;64
125520;2;32;240;note_off;64
125760;4;73;240;note_off;64
125760;0;56;0;note_off;64
125760;4;65;0;note_on;80
125760;9;39;240;note_on;80
125760;6;66;240;note_off;64
125760;6;65;0;note_on;72
125760;2;32;240;note_off;64
125760;2;27;0;note_on;80
125760;0;60;240;note_off;64
125760;0;43;0;note_on;80
125760;0;51;0;note_on;80
125760;0;55;0;note_on;80
125760;0;58;0;note_on;80
125760;0;44;0;note_off;64
125760;0;51;0;note_off;64
126000;0;55;0;note_off;64
126000;0;58;240;note_off;64
126000;2;27;0;note_on;80
126000;2;27;240;note_off;64
126000;4;70;0;note_on;80
126000;4;65;240;note_off;64
126000;9;39;240;note_off;64
126000;0;51;0;note_off;64
126000;0;43;0;note_off;64
126000;0;58;0;note_on;80
126000;0;55;0;note_on;80
126000;0;51;0;note_on;80
126000;0;43;0;note_on;80
126240;6;65;480;note_off;64
126240;2;27;0;note_on;80
126240;2;27;240;note_off;64
126240;9;39;240;note_on;80
126240;4;72;0;note_on;80
126240;4;70;240;note_off;64
126240;6;65;0;note_on;72
126480;0;55;0;note_on;80
126480;0;51;0;note_on;80
126480;0;58;480;note_off;64
126480;0;55;0;note_off;64
126480;0;51;0;note_off;64
126480;9;39;240;note_off;64
126480;2;27;240;note_off;64
126480;2;27;0;note_on;80
126480;0;43;0;note_off;64
126480;0;58;0;note_on;80
126480;0;43;0;note_on;80
126480;4;73;0;note_on;80
126480;4;72;240;note_off;64
126600;9;39;120;note_on;80
126720;6;65;480;note_off;64
126720;9;39;120;note_off;64
126720;9;39;0;note_on;80
126720;2;27;240;note_off;64
126720;2;34;0;note_on;80
126720;4;70;0;note_on;80
126720;0;58;240;note_off;64
126720;0;55;0;note_off;64
126720;4;73;240;note_off;64
126720;0;51;0;note_off;64
126720;0;43;0;note_off;64
126720;0;70;0;note_on;80
126720;0;61;0;note_on;80
126720;0;58;0;note_on;80
126720;0;46;0;note_on;80
126960;2;34;0;note_on;80
126960;9;39;240;note_off;64
126960;0;70;240;note_off;64
126960;0;61;0;note_off;64
126960;0;58;0;note_off;64
126960;0;46;0;note_off;64
126960;0;70;0;note_on;80
126960;0;61;0;note_on;80
126960;0;58;0;note_on;80
126960;0;46;0;note_on;80
126960;4;70;0;note_on;80
126960;4;70;240;note_off;64
126960;2;34;240;note_off;64
127200;4;70;240;note_off;64
127200;9;39;240;note_on;80
127200;2;34;0;note_on;80
127200;2;34;240;note_off;64
127200;4;72;0;note_on;80
127440;4;72;240;note_off;64
127440;2;34;240;note_off;64
127440;9;39;240;note_off;64
127440;6;53;720;note_on;80
127440;4;73;0;note_on;80
127440;2;34;0;note_on;80
127440;0;46;0;note_on;80
127440;0;58;0;note_on;80
127440;0;61;0;note_on;80
127440;0;70;0;note_on;80
127440;0;46;0;note_off;64
127440;0;58;0;note_off;64
127440;0;61;0;note_off;64
127440;0;70;480;note_off;64
127680;9;39;240;note_on;80
127680;4;73;240;note_off;64
127680;2;34;0;note_on;80
127680;4;75;0;note_on;80
127680;0;46;0;note_on;80
127680;0;58;0;note_on;80
127680;2;34;240;note_off;64
127680;0;61;0;note_on;80
127680;0;46;0;note_off;64
127680;0;70;0;note_on;80
127680;0;61;0;note_off;64
127680;0;70;240;note_off;64
127680;0;58;0;note_off;64
127920;0;46;0;note_on;80
127920;9;39;240;note_off;64
127920;6;51;0;note_on;80
127920;6;53;480;note_off;64
127920;2;34;0;note_on;80
127920;2;34;240;note_off;64
127920;0;58;0;note_on;80
127920;4;75;240;note_off;64
127920;0;61;0;note_on;80
127920;0;46;0;note_off;64
127920;0;58;0;note_off;64
127920;0;61;0;note_off;64
127920;0;70;240;note_off;64
127920;0;70;0;note_on;80
127920;4;73;0;note_on;80
128160;2;34;240;note_off;64
128160;9;39;240;note_on;80
128160;4;72;0;note_on;80
128160;2;34;0;note_on;80
128160;4;73;240;note_off;64
128400;0;46;0;note_off;64
128400;0;58;0;note_off;64
128400;0;70;0;note_on;80
128400;0;70;480;note_off;64
128400;2;34;0;note_on;80
128400;0;61;0;note_off;64
128400;2;34;240;note_off;64
128400;0;61;0;note_on;80
128400;0;46;0;note_on;80
128400;0;58;0;note_on;80
128400;9;39;240;note_off;64
128400;4;72;240;note_off;64
128400;4;70;0;note_on;80
128640;4;65;0;note_on;80
128640;9;39;240;note_on;80
128640;4;70;240;note_off;64
128640;0;44;0;note_on;80
128640;0;51;0;note_on;80
128640;2;32;0;note_on;80
128640;2;34;240;note_off;64
128640;6;51;720;note_off;64
128640;0;56;0;note_on;80
128640;0;60;0;note_on;80
128640;0;46;0;note_off;64
128640;0;58;0;note_off;64
128640;0;61;0;note_off;64
128640;0;70;240;note_off;64
128640;6;65;0;note_on;72
128880;0;56;0;note_on;80
128880;4;65;240;note_off;64
128880;4;70;0;note_on;80
128880;0;51;0;note_on;80
128880;0;60;0;note_on;80
128880;9;39;240;note_off;64
128880;0;51;0;note_off;64
128880;0;56;0;note_off;64
128880;2;32;0;note_on;80
128880;2;32;240;note_off;64
128880;0;60;240;note_off;64
128880;6;65;0;note_on;72
128880;6;65;240;note_off;64
128880;0;44;0;note_off;64
128880;0;44;0;note_on;80
129120;2;32;0;note_on;80
129120;2;32;240;note_off;64
129120;4;72;0;note_on;80
129120;4;70;240;note_off;64
129120;6;65;0;note_on;72
129120;6;65;240;note_off;64
129120;9;39;240;note_on;80
129360;0;51;0;note_off;64
129360;0;56;0;note_off;64
129360;0;60;480;note_off;64
129360;0;56;0;note_on;80
129360;0;51;0;note_on;80
129360;0;44;0;note_on;80
129360;4;73;0;note_on;80
129360;0;44;0;note_off;64
129360;2;32;0;note_on;80
129360;4;72;240;note_off;64
129360;9;39;240;note_off;64
129360;6;65;240;note_off;64
129360;6;66;0;note_on;72
129360;2;32;240;note_off;64
129360;0;60;0;note_on;80
129600;0;55;0;note_on;80
129600;0;51;0;note_on;80
129600;0;43;0;note_on;80
129600;0;58;0;note_on;80
129600;0;44;0;note_off;64
129600;0;51;0;note_off;64
129600;4;65;0;note_on;80
129600;0;56;0;note_off;64
129600;4;73;240;note_off;64
129600;2;27;0;note_on;80
129600;2;32;240;note_off;64
129600;9;39;240;note_on;80
129600;6;66;240;note_off;64
129600;6;65;0;note_on;72
129600;0;60;240;note_off;64
129840;4;65;240;note_off;64
129840;4;70;0;note_on;80
129840;0;55;0;note_off;64
129840;0;51;0;note_off;64
129840;0;43;0;note_off;64
129840;0;58;0;note_on;80
129840;0;55;0;note_on;80
129840;0;51;0;note_on;80
129840;9;39;240;note_off;64
129840;2;27;240;note_off;64
129840;0;58;240;note_off;64
129840;0;43;0;note_on;80
129840;2;27;0;note_on;80
130080;6;63;0;note_on;72
130080;4;70;240;note_off;64
130080;9;39;240;note_on;80
130080;4;72;0;note_on;80
130080;2;27;0;note_on;80
130080;2;27;240;note_off;64
130080;6;65;480;note_off;64
130320;0;51;0;note_on;80
130320;4;73;0;note_on;80
130320;0;43;0;note_on;80
130320;0;55;0;note_on;80
130320;4;72;240;note_off;64
130320;0;43;0;note_off;64
130320;0;51;0;note_off;64
130320;0;55;0;note_off;64
130320;0;58;480;note_off;64
130320;2;27;0;note_on;80
130320;2;27;240;note_off;64
130320;9;39;240;note_off;64
130320;0;58;0;note_on;80
130440;9;39;120;note_on;80
130560;0;43;0;note_off;64
130560;4;73;240;note_off;64
130560;4;70;0;note_on;80
130560;0;51;0;note_off;64
130560;0;70;0;note_on;80
130560;0;61;0;note_on;80
130560;0;58;0;note_on;80
130560;0;46;0;note_on;80
130560;0;58;240;note_off;64
130560;0;55;0;note_off;64
130560;2;27;240;note_off;64
130560;6;63;480;note_off;64
130560;9;39;120;note_off;64
130560;9;39;0;note_on;80
130560;2;34;0;note_on;80
130800;0;58;0;note_off;64
130800;0;61;0;note_off;64
130800;0;70;240;note_off;64
130800;0;70;0;note_on;80
130800;0;61;0;note_on;80
130800;0;58;0;note_on;80
130800;0;46;0;note_on;80
130800;0;46;0;note_off;64
130800;9;39;240;note_off;64
130800;4;70;0;note_on;80
130800;2;34;0;note_on;80
130800;2;34;240;note_off;64
130800;4;70;240;note_off;64
131040;9;39;240;note_on;80
131040;4;70;240;note_off;64
131040;4;72;0;note_on;80
131040;2;34;0;note_on;80
131040;2;34;240;note_off;64
131280;2;34;0;note_on;80
131280;2;34;240;note_off;64
131280;0;46;0;note_on;80
131280;0;58;0;note_on;80
131280;0;61;0;note_on;80
131280;0;70;0;note_on;80
131280;0;46;0;note_off;64
131280;0;70;480;note_off;64
131280;0;61;0;note_off;64
131280;9;39;240;note_off;64
131280;6;56;720;note_on;80
131280;4;73;0;note_on;80
131280;4;72;240;note_off;64
131280;0;58;0;note_off;64
131520;9;39;240;note_on;80
131520;2;34;240;note_off;64
131520;2;34;0;note_on;80
131520;0;46;0;note_on;80
131520;0;70;0;note_on;80
131520;0;61;0;note_on;80
131520;4;73;240;note_off;64
131520;4;75;0;note_on;80
131520;0;70;240;note_off;64
131520;0;61;0;note_off;64
131520;0;58;0;note_on;80
131520;0;46;0;note_off;64
131520;0;58;0;note_off;64
131760;0;46;0;note_on;80
131760;0;61;0;note_on;80
131760;0;70;0;note_on;80
131760;0;46;0;note_off;64
131760;0;58;0;note_off;64
131760;0;58;0;note_on;80
131760;6;53;0;note_on;80
131760;2;34;240;note_off;64
131760;6;56;480;note_off;64
131760;4;73;0;note_on;80
131760;4;75;240;note_off;64
131760;0;61;0;note_off;64
131760;0;70;240;note_off;64
131760;9;39;240;note_off;64
131760;2;34;0;note_on;80
132000;4;73;240;note_off;64
132000;2;34;240;note_off;64
132000;9;39;240;note_on;80
132000;4;72;0;note_on;80
132000;2;34;0;note_on;80
132240;0;61;0;note_on;80
132240;0;70;480;note_off;64
132240;0;61;0;note_off;64
132240;0;58;0;note_off;64
132240;0;46;0;note_off;64
132240;0;70;0;note_on;80
132240;2;34;240;note_off;64
132240;2;34;0;note_on;80
132240;9;39;240;note_off;64
132240;0;58;0;note_on;80
132240;0;46;0;note_on;80
132240;4;72;240;note_off;64
132240;4;70;0;note_on;80
132480;4;65;0;note_on;80
132480;0;44;0;note_on;80
132480;4;70;240;note_off;64
132480;0;70;240;note_off;64
132480;6;53;720;note_off;64
132480;6;68;0;note_on;72
132480;2;32;0;note_on;80
132480;2;34;240;note_off;64
132480;0;58;0;note_off;64
132480;0;46;0;note_off;64
132480;0;60;0;note_on;80
132480;0;56;0;note_on;80
132480;0;51;0;note_on;80
132480;0;61;0;note_off;64
132480;9;39;240;note_on;80
132720;6;68;240;note_off;64
132720;6;68;0;note_on;72
132720;2;32;0;note_on;80
132720;2;32;240;note_off;64
132720;0;60;240;note_off;64
132720;0;44;0;note_off;64
132720;9;39;240;note_off;64
132720;0;44;0;note_on;80
132720;0;51;0;note_on;80
132720;4;65;240;note_off;64
132720;4;70;0;note_on;80
132720;0;56;0;note_on;80
132720;0;60;0;note_on;80
132720;0;51;0;note_off;64
132720;0;56;0;note_off;64
132960;6;66;0;note_on;72
132960;6;68;240;note_off;64
132960;9;39;240;note_on;80
132960;4;72;0;note_on;80
132960;4;70;240;note_off;64
132960;2;32;240;note_off;64
132960;2;32;0;note_on;80
133200;6;66;0;note_on;72
133200;0;60;0;note_on;80
133200;0;56;0;note_on;80
133200;0;51;0;note_on;80
133200;0;56;0;note_off;64
133200;9;39;240;note_off;64
133200;0;60;480;note_off;64
133200;2;32;240;note_off;64
133200;0;51;0;note_off;64
133200;6;66;240;note_off;64
133200;0;44;0;note_on;80
133200;2;32;0;note_on;80
133200;0;44;0;note_off;64
133200;4;72;240;note_off;64
133200;4;73;0;note_on;80
133440;4;73;240;note_off;64
133440;4;65;0;note_on;80
133440;2;32;240;note_off;64
133440;0;43;0;note_on;80
133440;6;65;0;note_on;72
133440;6;66;240;note_off;64
133440;0;60;240;note_off;64
133440;0;56;0;note_off;64
133440;0;51;0;note_off;64
133440;0;44;0;note_off;64
133440;0;58;0;note_on;80
133440;0;55;0;note_on;80
133440;0;51;0;note_on;80
133440;2;27;0;note_on;80
133440;9;39;240;note_on;80
133680;0;43;0;note_on;80
133680;0;51;0;note_on;80
133680;0;55;0;note_on;80
133680;2;27;0;note_on;80
133680;0;43;0;note_off;64
133680;0;55;0;note_off;64
133680;0;58;240;note_off;64
133680;0;58;0;note_on;80
133680;2;27;240;note_off;64
133680;0;51;0;note_off;64
133680;4;65;240;note_off;64
133680;4;70;0;note_on;80
133680;9;39;240;note_off;64
133920;6;65;480;note_off;64
133920;9;39;240;note_on;80
133920;2;27;0;note_on;80
133920;6;65;0;note_on;72
133920;4;72;0;note_on;80
133920;4;70;240;note_off;64
133920;2;27;240;note_off;64
134160;4;73;0;note_on;80
134160;0;43;0;note_on;80
134160;0;51;0;note_on;80
134160;0;55;0;note_on;80
134160;0;58;0;note_on;80
134160;0;43;0;note_off;64
134160;0;51;0;note_off;64
134160;0;55;0;note_off;64
134160;2;27;0;note_on;80
134160;4;72;240;note_off;64
134160;9;39;240;note_off;64
134160;2;27;240;note_off;64
134160;0;58;480;note_off;64
134280;9;39;120;note_on;80
134400;0;58;0;note_on;80
134400;2;27;240;note_off;64
134400;2;34;0;note_on;80
134400;0;46;0;note_on;80
134400;0;61;0;note_on;80
134400;0;58;240;note_off;64
134400;0;43;0;note_off;64
134400;0;70;0;note_on;80
134400;4;70;0;note_on;80
134400;9;39;120;note_off;64
134400;6;65;480;note_off;64
134400;4;73;240;note_off;64
134400;0;55;0;note_off;64
134400;0;51;0;note_off;64
134400;9;39;0;note_on;80
134640;2;34;240;note_off;64
134640;2;34;0;note_on;80
134640;0;70;240;note_off;64
134640;0;61;0;note_off;64
134640;0;58;0;note_off;64
134640;0;46;0;note_off;64
134640;0;70;0;note_on;80
134640;0;61;0;note_on;80
134640;0;58;0;note_on;80
134640;0;46;0;note_on;80
134640;9;39;240;note_off;64
134640;4;70;240;note_off;64
134640;4;70;0;note_on;80
134880;2;34;0;note_on;80
134880;4;70;240;note_off;64
134880;4;72;0;note_on;80
134880;9;39;240;note_on;80
134880;2;34;240;note_off;64
135120;0;46;0;note_on;80
135120;0;58;0;note_on;80
135120;0;61;0;note_on;80
135120;0;70;0;note_on;80
135120;0;58;0;note_off;64
135120;0;61;0;note_off;64
135120;0;70;480;note_off;64
135120;2;34;240;note_off;64
135120;0;46;0;note_off;64
135120;4;72;240;note_off;64
135120;9;39;240;note_off;64
135120;6;53;720;note_on;80
135120;4;73;0;note_on;80
135120;2;34;0;note_on;80
135360;0;61;0;note_on;80
135360;0;70;0;note_on;80
135360;0;46;0;note_off;64
135360;0;58;0;note_off;64
135360;0;61;0;note_off;64
135360;0;58;0;note_on;80
135360;4;73;240;note_off;64
135360;4;75;0;note_on;80
135360;9;39;240;note_on;80
135360;2;34;240;note_off;64
135360;0;70;240;note_off;64
135360;0;46;0;note_on;80
135360;2;34;0;note_on;80
135600;2;34;240;note_off;64
135600;6;51;0;note_on;80
135600;4;73;0;note_on;80
135600;2;34;0;note_on;80
135600;4;75;240;note_off;64
135600;0;70;240;note_off;64
135600;6;53;480;note_off;64
135600;0;61;0;note_off;64
135600;0;46;0;note_off;64
135600;0;70;0;note_on;80
135600;0;61;0;note_on;80
135600;0;58;0;note_on;80
135600;0;46;0;note_on;80
135600;9;39;240;note_off;64
135600;0;58;0;note_off;64
135840;4;73;240;note_off;64
135840;4;72;0;note_on;80
135840;9;39;240;note_on;80
135840;2;34;240;note_off;64
135840;2;34;0;note_on;80
136080;4;70;0;note_on;80
136080;0;58;0;note_off;64
136080;2;34;240;note_off;64
136080;4;72;240;note_off;64
136080;9;39;240;note_off;64
136080;0;61;0;note_off;64
136080;2;34;0;note_on;80
136080;0;70;480;note_off;64
136080;0;46;0;note_off;64
136080;0;70;0;note_on;80
136080;0;61;0;note_on;80
136080;0;58;0;note_on;80
136080;0;46;0;note_on;80
136320;2;34;240;note_off;64
136320;2;32;0;note_on;80
136320;9;39;240;note_on;80
136320;4;70;240;note_off;64
136320;0;44;0;note_on;80
136320;6;51;720;note_off;64
136320;0;70;240;note_off;64
136320;0;61;0;note_off;64
136320;0;58;0;note_off;64
136320;0;46;0;note_off;64
136320;0;60;0;note_on;80
136320;0;56;0;note_on;80
136320;0;51;0;note_on;80
136320;6;65;0;note_on;72
136320;4;65;0;note_on;80
136560;4;65;240;note_off;64
136560;4;70;0;note_on;80
136560;0;44;0;note_on;80
136560;2;32;0;note_on;80
136560;2;32;240;note_off;64
136560;9;39;240;note_off;64
136560;0;56;0;note_on;80
136560;0;51;0;note_on;80
136560;0;60;0;note_on;80
136560;0;60;240;note_off;64
136560;0;56;0;note_off;64
136560;6;65;240;note_off;64
136560;6;65;0;note_on;72
136560;0;44;0;note_off;64
136560;0;51;0;note_off;64
136800;9;39;240;note_on;80
136800;6;65;240;note_off;64
136800;6;65;0;note_on;72
136800;4;72;0;note_on;80
136800;4;70;240;note_off;64
136800;2;32;240;note_off;64
136800;2;32;0;note_on;80
137040;0;56;0;note_off;64
137040;9;39;240;note_off;64
137040;0;44;0;note_on;80
137040;0;51;0;note_on;80
137040;0;56;0;note_on;80
137040;0;60;480;note_off;64
137040;0;44;0;note_off;64
137040;0;60;0;note_on;80
137040;2;32;240;note_off;64
137040;2;32;0;note_on;80
137040;6;66;0;note_on;72
137040;6;65;240;note_off;64
137040;4;72;240;note_off;64
137040;4;73;0;note_on;80
137040;0;51;0;note_off;64
137280;6;66;240;note_off;64
137280;0;60;240;note_off;64
137280;0;56;0;note_off;64
137280;6;65;0;note_on;72
137280;0;51;0;note_off;64
137280;9;39;240;note_on;80
137280;0;44;0;note_off;64
137280;0;58;0;note_on;80
137280;4;65;0;note_on;80
137280;4;73;240;note_off;64
137280;2;27;0;note_on;80
137280;2;32;240;note_off;64
137280;0;43;0;note_on;80
137280;0;51;0;note_on;80
137280;0;55;0;note_on;80
137520;0;55;0;note_off;64
137520;0;51;0;note_off;64
137520;0;43;0;note_off;64
137520;0;55;0;note_on;80
137520;0;51;0;note_on;80
137520;0;43;0;note_on;80
137520;4;70;0;note_on;80
137520;4;65;240;note_off;64
137520;0;58;240;note_off;64
137520;0;58;0;note_on;80
137520;2;27;240;note_off;64
137520;2;27;0;note_on;80
137520;9;39;240;note_off;64
137760;2;27;0;note_on;80
137760;2;27;240;note_off;64
137760;6;63;0;note_on;72
137760;9;39;240;note_on;80
137760;4;72;0;note_on;80
137760;4;70;240;note_off;64
137760;6;65;480;note_off;64
138000;0;55;0;note_off;64
138000;0;58;0;note_on;80
138000;9;39;240;note_off;64
138000;0;51;0;note_on;80
138000;0;43;0;note_on;80
138000;0;51;0;note_off;64
138000;2;27;0;note_on;80
138000;2;27;240;note_off;64
138000;0;58;480;note_off;64
138000;0;55;0;note_on;80
138000;0;43;0;note_off;64
138000;4;72;240;note_off;64
138000;4;73;0;note_on;80
138120;9;39;120;note_on;80
138240;4;73;240;note_off;64
138240;4;70;0;note_on;80
138240;0;55;0;note_off;64
138240;0;51;0;note_off;64
138240;0;43;0;note_off;64
138240;0;70;0;note_on;80
138240;0;61;0;note_on;80
138240;2;34;0;note_on;80
138240;2;27;240;note_off;64
138240;0;58;0;note_on;80
138240;0;46;0;note_on;80
138240;9;39;0;note_on;80
138240;0;58;240;note_off;64
138240;6;63;480;note_off;64
138240;9;39;120;note_off;64
138480;9;39;240;note_off;64
138480;4;70;240;note_off;64
138480;4;70;0;note_on;80
138480;2;34;0;note_on;80
138480;2;34;240;note_off;64
138480;0;46;0;note_on;80
138480;0;70;240;note_off;64
138480;0;61;0;note_on;80
138480;0;61;0;note_off;64
138480;0;58;0;note_off;64
138480;0;70;0;note_on;80
138480;0;46;0;note_off;64
138480;0;58;0;note_on;80
138720;2;34;0;note_on;80
138720;9;39;240;note_on;80
138720;2;34;240;note_off;64
138720;4;70;240;note_off;64
138720;4;72;0;note_on;80
138960;0;46;0;note_on;80
138960;0;70;480;note_off;64
138960;4;73;0;note_on;80
138960;0;61;0;note_on;80
138960;0;70;0;note_on;80
138960;0;46;0;note_off;64
138960;0;58;0;note_off;64
138960;0;61;0;note_off;64
138960;4;72;240;note_off;64
138960;0;58;0;note_on;80
138960;6;58;720;note_on;80
138960;9;39;240;note_off;64
138960;2;34;240;note_off;64
138960;2;34;0;note_on;80
139200;0;70;240;note_off;64
139200;0;70;0;note_on;80
139200;0;46;0;note_off;64
139200;0;58;0;note_off;64
139200;0;61;0;note_off;64
139200;0;46;0;note_on;80
139200;9;39;240;note_on;80
139200;2;34;240;note_off;64
139200;2;34;0;note_on;80
139200;0;61;0;note_on;80
139200;4;75;0;note_on;80
139200;4;73;240;note_off;64
139200;0;58;0;note_on;80
139440;0;61;0;note_off;64
139440;2;34;240;note_off;64
139440;0;61;0;note_on;80
139440;0;70;0;note_on;80
139440;0;46;0;note_off;64
139440;9;39;240;note_off;64
139440;0;58;0;note_off;64
139440;0;70;240;note_off;64
139440;0;58;0;note_on;80
139440;0;46;0;note_on;80
139440;6;58;480;note_off;64
139440;4;75;240;note_off;64
139440;2;34;0;note_on;80
139440;6;56;0;note_on;80
139440;4;73;0;note_on;80
139680;2;34;0;note_on;80
139680;2;34;240;note_off;64
139680;9;39;240;note_on;80
139680;4;73;240;note_off;64
139680;4;72;0;note_on;80
139920;9;39;240;note_off;64
139920;0;61;0;note_off;64
139920;0;46;0;note_off;64
139920;0;70;0;note_on;80
139920;0;61;0;note_on;80
139920;0;70;480;note_off;64
139920;0;58;0;note_off;64
139920;0;58;0;note_on;80
139920;4;70;0;note_on;80
139920;4;72;240;note_off;64
139920;2;34;240;note_off;64
139920;2;34;0;note_on;80
139920;0;46;0;note_on;80
140160;6;68;0;note_on;72
140160;6;56;720;note_off;64
140160;2;32;0;note_on;80
140160;2;34;240;note_off;64
140160;0;46;0;note_off;64
140160;4;65;0;note_on;80
140160;4;70;240;note_off;64
140160;0;44;0;note_on;80
140160;0;56;0;note_on;80
140160;0;60;0;note_on;80
140160;0;51;0;note_on;80
140160;0;58;0;note_off;64
140160;0;61;0;note_off;64
140160;0;70;240;note_off;64
140160;9;39;240;note_on;80
140400;4;70;0;note_on;80
140400;2;32;0;note_on;80
140400;6;68;240;note_off;64
140400;6;68;0;note_on;72
140400;4;65;240;note_off;64
140400;2;32;240;note_off;64
140400;0;56;0;note_on;80
140400;9;39;240;note_off;64
140400;0;44;0;note_off;64
140400;0;60;240;note_off;64
140400;0;56;0;note_off;64
140400;0;51;0;note_off;64
140400;0;51;0;note_on;80
140400;0;44;0;note_on;80
140400;0;60;0;note_on;80
140640;2;32;240;note_off;64
140640;2;32;0;note_on;80
140640;4;72;0;note_on;80
140640;6;66;0;note_on;72
140640;4;70;240;note_off;64
140640;9;39;240;note_on;80
140640;6;68;240;note_off;64
140880;0;60;0;note_on;80
140880;0;56;0;note_off;64
140880;0;44;0;note_off;64
140880;0;51;0;note_off;64
140880;0;56;0;note_on;80
140880;0;51;0;note_on;80
140880;0;44;0;note_on;80
140880;0;60;480;note_off;64
140880;2;32;240;note_off;64
140880;6;66;0;note_on;72
140880;2;32;0;note_on;80
140880;4;73;0;note_on;80
140880;4;72;240;note_off;64
140880;6;66;240;note_off;64
140880;9;39;240;note_off;64
141120;4;73;240;note_off;64
141120;2;27;0;note_on;80
141120;0;60;240;note_off;64
141120;0;56;0;note_off;64
141120;0;44;0;note_off;64
141120;0;58;0;note_on;80
141120;0;55;0;note_on;80
141120;0;51;0;note_on;80
141120;0;43;0;note_on;80
141120;0;51;0;note_off;64
141120;4;65;0;note_on;80
141120;2;32;240;note_off;64
141120;6;66;240;note_off;64
141120;6;65;0;note_on;72
141120;9;39;240;note_on;80
141360;0;58;240;note_off;64
141360;0;55;0;note_off;64
141360;0;51;0;note_off;64
141360;0;43;0;note_off;64
141360;0;58;0;note_on;80
141360;0;55;0;note_on;80
141360;2;27;240;note_off;64
141360;2;27;0;note_on;80
141360;0;51;0;note_on;80
141360;0;43;0;note_on;80
141360;9;39;240;note_off;64
141360;4;65;240;note_off;64
141360;4;70;0;note_on;80
141600;6;65;0;note_on;72
141600;9;39;240;note_on;80
141600;2;27;0;note_on;80
141600;2;27;240;note_off;64
141600;4;70;240;note_off;64
141600;4;72;0;note_on;80
141600;6;65;480;note_off;64
141840;0;58;480;note_off;64
141840;0;51;0;note_off;64
141840;0;43;0;note_off;64
141840;0;43;0;note_on;80
141840;0;58;0;note_on;80
141840;0;55;0;note_off;64
141840;0;51;0;note_on;80
141840;0;55;0;note_on;80
141840;9;39;240;note_off;64
141840;2;27;240;note_off;64
141840;2;27;0;note_on;80
141840;4;72;240;note_off;64
141840;4;73;0;note_on;80
141960;9;39;120;note_on;80
142080;0;55;0;note_off;64
142080;0;51;0;note_off;64
142080;0;43;0;note_off;64
142080;0;61;0;note_on;80
142080;0;58;0;note_on;80
142080;0;46;0;note_on;80
142080;0;58;240;note_off;64
142080;0;70;0;note_on;80
142080;4;70;0;note_on;80
142080;6;65;480;note_off;64
142080;9;39;0;note_on;80
142080;9;39;120;note_off;64
142080;2;27;240;note_off;64
142080;2;34;0;note_on;80
142080;4;73;240;note_off;64
142320;0;58;0;note_on;80
142320;9;39;240;note_off;64
142320;4;70;0;note_on;80
142320;0;70;240;note_off;64
142320;0;61;0;note_off;64
142320;0;58;0;note_off;64
142320;0;70;0;note_on;80
142320;0;61;0;note_on;80
142320;4;70;240;note_off;64
142320;0;46;0;note_on;80
142320;0;46;0;note_off;64
142320;2;34;0;note_on;80
142320;2;34;240;note_off;64
142560;9;39;240;note_on;80
142560;4;72;0;note_on;80
142560;4;70;240;note_off;64
142560;2;34;0;note_on;80
142560;2;34;240;note_off;64
142800;2;34;0;note_on;80
142800;9;39;240;note_off;64
142800;4;73;0;note_on;80
142800;4;72;240;note_off;64
142800;2;34;240;note_off;64
142800;0;70;480;note_off;64
142800;0;61;0;note_off;64
142800;0;58;0;note_off;64
142800;0;46;0;note_off;64
142800;6;58;720;note_on;80
142800;0;61;0;note_on;80
142800;0;46;0;note_on;80
142800;0;70;0;note_on;80
142800;0;58;0;note_on;80
143040;4;73;240;note_off;64
143040;0;58;0;note_on;80
143040;2;34;0;note_on;80
143040;9;39;240;note_on;80
143040;2;34;240;note_off;64
143040;0;46;0;note_on;80
143040;0;70;0;note_on;80
143040;0;46;0;note_off;64
143040;4;75;0;note_on;80
143040;0;61;0;note_on;80
143040;0;70;240;note_off;64
143040;0;61;0;note_off;64
143040;0;58;0;note_off;64
143280;6;56;0;note_on;80
143280;4;73;0;note_on;80
143280;0;61;0;note_off;64
143280;0;58;0;note_off;64
143280;9;39;240;note_off;64
143280;0;70;0;note_on;80
143280;4;75;240;note_off;64
143280;0;70;240;note_off;64
143280;0;46;0;note_off;64
143280;0;61;0;note_on;80
143280;0;58;0;note_on;80
143280;2;34;0;note_on;80
143280;2;34;240;note_off;64
143280;6;58;480;note_off;64
143280;0;46;0;note_on;80
143520;2;34;240;note_off;64
143520;9;39;240;note_on;80
143520;4;73;240;note_off;64
143520;4;72;0;note_on;80
143520;2;34;0;note_on;80
143760;2;34;240;note_off;64
143760;9;39;240;note_off;64
143760;0;70;480;note_off;64
143760;0;61;0;note_off;64
143760;0;58;0;note_off;64
143760;4;72;240;note_off;64
143760;4;70;0;note_on;80
143760;0;46;0;note_off;64
143760;0;70;0;note_on;80
143760;0;61;0;note_on;80
143760;0;58;0;note_on;80
143760;0;46;0;note_on;80
143760;2;34;0;note_on;80
144000;4;65;0;note_on;80
144000;9;39;240;note_on;80
144000;2;32;0;note_on;80
144000;6;56;720;note_off;64
144000;2;34;240;note_off;64
144000;4;70;240;note_off;64
144000;6;65;0;note_on;72
144000;0;70;240;note_off;64
144000;0;61;0;note_off;64
144000;0;58;0;note_off;64
144000;0;46;0;note_off;64
144000;0;60;0;note_on;80
144000;0;56;0;note_on;80
144000;0;51;0;note_on;80
144000;0;44;0;note_on;80
144240;6;65;240;note_off;64
144240;6;65;0;note_on;72
144240;4;65;240;note_off;64
144240;4;70;0;note_on;80
144240;9;39;240;note_off;64
144240;2;32;0;note_on;80
144240;0;44;0;note_on;80
144240;2;32;240;note_off;64
144240;0;56;0;note_on;80
144240;0;60;240;note_off;64
144240;0;56;0;note_off;64
144240;0;51;0;note_on;80
144240;0;44;0;note_off;64
144240;0;51;0;note_off;64
144240;0;60;0;note_on;80
144480;4;70;240;note_off;64
144480;2;32;0;note_on;80
144480;9;39;240;note_on;80
144480;2;32;240;note_off;64
144480;6;65;240;note_off;64
144480;6;65;0;note_on;72
144480;4;72;0;note_on;80
144720;6;66;0;note_on;72
144720;0;51;0;note_on;80
144720;6;65;240;note_off;64
144720;0;44;0;note_on;80
144720;0;56;0;note_on;80
144720;9;39;240;note_off;64
144720;0;44;0;note_off;64
144720;0;51;0;note_off;64
144720;0;56;0;note_off;64
144720;0;60;480;note_off;64
144720;4;72;240;note_off;64
144720;2;32;0;note_on;80
144720;2;32;240;note_off;64
144720;0;60;0;note_on;80
144720;4;73;0;note_on;80
144960;0;51;0;note_on;80
144960;6;66;240;note_off;64
144960;6;65;0;note_on;72
144960;4;65;0;note_on;80
144960;4;73;240;note_off;64
144960;9;39;240;note_on;80
144960;0;44;0;note_off;64
144960;0;58;0;note_on;80
144960;2;32;240;note_off;64
144960;2;27;0;note_on;80
144960;0;55;0;note_on;80
144960;0;60;240;note_off;64
144960;0;56;0;note_off;64
144960;0;51;0;note_off;64
144960;0;43;0;note_on;80
145200;0;51;0;note_on;80
145200;0;55;0;note_on;80
145200;0;55;0;note_off;64
145200;0;51;0;note_off;64
145200;0;58;240;note_off;64
145200;0;43;0;note_off;64
145200;0;58;0;note_on;80
145200;4;65;240;note_off;64
145200;4;70;0;note_on;80
145200;2;27;240;note_off;64
145200;2;27;0;note_on;80
145200;9;39;240;note_off;64
145200;0;43;0;note_on;80
145440;2;27;240;note_off;64
145440;2;27;0;note_on;80
145440;4;70;240;note_off;64
145440;4;72;0;note_on;80
145440;6;65;480;note_off;64
145440;6;63;0;note_on;72
145440;9;39;240;note_on;80
145680;0;51;0;note_off;64
145680;2;27;240;note_off;64
145680;4;72;240;note_off;64
145680;4;73;0;note_on;80
145680;2;27;0;note_on;80
145680;0;43;0;note_off;64
145680;9;39;240;note_off;64
145680;0;58;0;note_on;80
145680;0;55;0;note_on;80
145680;0;51;0;note_on;80
145680;0;43;0;note_on;80
145680;0;58;480;note_off;64
145680;0;55;0;note_off;64
145800;9;39;120;note_on;80
145920;0;61;0;note_on;80
145920;0;70;0;note_on;80
145920;0;43;0;note_off;64
145920;0;51;0;note_off;64
145920;0;46;0;note_on;80
145920;6;63;480;note_off;64
145920;0;55;0;note_off;64
145920;4;73;240;note_off;64
145920;9;39;0;note_on;80
145920;9;39;120;note_off;64
145920;2;34;0;note_on;80
145920;2;27;240;note_off;64
145920;0;58;0;note_on;80
145920;0;58;240;note_off;64
145920;4;70;0;note_on;80
146160;4;70;240;note_off;64
146160;4;70;0;note_on;80
146160;0;58;0;note_off;64
146160;0;46;0;note_off;64
146160;0;70;0;note_on;80
146160;0;61;0;note_on;80
146160;0;58;0;note_on;80
146160;0;61;0;note_off;64
146160;0;46;0;note_on;80
146160;0;70;240;note_off;64
146160;2;34;0;note_on;80
146160;2;34;240;note_off;64
146160;9;39;240;note_off;64
146400;2;34;0;note_on;80
146400;2;34;240;note_off;64
146400;4;72;0;note_on;80
146400;4;70;240;note_off;64
146400;9;39;240;note_on;80
146640;0;61;0;note_off;64
146640;2;34;0;note_on;80
146640;0;58;0;note_on;80
146640;0;61;0;note_on;80
146640;0;70;0;note_on;80
146640;0;70;480;note_off;64
146640;2;34;240;note_off;64
146640;0;46;0;note_on;80
146640;4;72;240;note_off;64
146640;9;39;240;note_off;64
146640;6;58;720;note_on;80
146640;0;46;0;note_off;64
146640;0;58;0;note_off;64
146640;4;73;0;note_on;80
146880;0;46;0;note_off;64
146880;0;70;240;note_off;64
146880;0;61;0;note_off;64
146880;2;34;0;note_on;80
146880;2;34;240;note_off;64
146880;9;39;240;note_on;80
146880;4;73;240;note_off;64
146880;0;58;0;note_off;64
146880;0;70;0;note_on;80
146880;4;75;0;note_on;80
146880;0;58;0;note_on;80
146880;0;61;0;note_on;80
146880;0;46;0;note_on;80
147120;0;70;240;note_off;64
147120;2;34;0;note_on;80
147120;2;34;240;note_off;64
147120;6;56;0;note_on;80
147120;0;46;0;note_on;80
147120;0;61;0;note_on;80
147120;9;39;240;note_off;64
147120;0;58;0;note_on;80
147120;0;70;0;note_on;80
147120;6;58;480;note_off;64
147120;0;46;0;note_off;64
147120;4;75;240;note_off;64
147120;0;58;0;note_off;64
147120;0;61;0;note_off;64
147120;4;73;0;note_on;80
147360;4;72;0;note_on;80
147360;4;73;240;note_off;64
147360;2;34;240;note_off;64
147360;2;34;0;note_on;80
147360;9;39;240;note_on;80
147600;0;58;0;note_off;64
147600;0;61;0;note_off;64
147600;2;34;0;note_on;80
147600;2;34;240;note_off;64
147600;9;39;240;note_off;64
147600;4;70;0;note_on;80
147600;0;70;480;note_off;64
147600;4;72;240;note_off;64
147600;0;46;0;note_on;80
147600;0;58;0;note_on;80
147600;0;61;0;note_on;80
147600;0;70;0;note_on;80
147600;0;46;0;note_off;64
147840;0;61;0;note_off;64
147840;0;58;0;note_off;64
147840;0;60;0;note_on;80
147840;0;56;0;note_on;80
147840;6;68;0;note_on;72
147840;6;56;720;note_off;64
147840;2;34;240;note_off;64
147840;2;32;0;note_on;80
147840;0;44;0;note_on;80
147840;0;70;240;note_off;64
147840;0;51;0;note_on;80
147840;0;46;0;note_off;64
147840;9;39;240;note_on;80
147840;4;65;0;note_on;80
147840;4;70;240;note_off;64
148080;6;68;240;note_off;64
148080;6;68;0;note_on;72
148080;0;44;0;note_on;80
148080;0;51;0;note_on;80
148080;0;56;0;note_on;80
148080;2;32;0;note_on;80
148080;0;44;0;note_off;64
148080;0;51;0;note_off;64
148080;0;56;0;note_off;64
148080;0;60;240;note_off;64
148080;4;70;0;note_on;80
148080;4;65;240;note_off;64
148080;2;32;240;note_off;64
148080;0;60;0;note_on;80
148080;9;39;240;note_off;64
148320;2;32;240;note_off;64
148320;2;32;0;note_on;80
148320;4;72;0;note_on;80
148320;9;39;240;note_on;80
148320;6;66;0;note_on;72
148320;6;68;240;note_off;64
148320;4;70;240;note_off;64
148560;2;32;0;note_on;80
148560;2;32;240;note_off;64
148560;0;51;0;note_on;80
148560;9;39;240;note_off;64
148560;0;56;0;note_on;80
148560;0;44;0;note_on;80
148560;0;44;0;note_off;64
148560;0;51;0;note_off;64
148560;0;56;0;note_off;64
148560;0;60;480;note_off;64
148560;0;60;0;note_on;80
148560;4;72;240;note_off;64
148560;6;66;0;note_on;72
148560;6;66;240;note_off;64
148560;4;73;0;note_on;80
148800;0;51;0;note_off;64
148800;9;39;240;note_on;80
148800;4;73;240;note_off;64
148800;4;65;0;note_on;80
148800;0;60;240;note_off;64
148800;0;56;0;note_off;64
148800;6;65;0;note_on;72
148800;2;32;240;note_off;64
148800;0;58;0;note_on;80
148800;0;55;0;note_on;80
148800;0;51;0;note_on;80
148800;0;43;0;note_on;80
148800;2;27;0;note_on;80
148800;6;66;240;note_off;64
148800;0;44;0;note_off;64
149040;4;65;240;note_off;64
149040;2;27;0;note_on;80
149040;2;27;240;note_off;64
149040;4;70;0;note_on;80
149040;0;51;0;note_on;80
149040;0;55;0;note_off;64
149040;0;55;0;note_on;80
149040;0;58;0;note_on;80
149040;9;39;240;note_off;64
149040;0;43;0;note_on;80
149040;0;58;240;note_off;64
149040;0;51;0;note_off;64
149040;0;43;0;note_off;64
149280;2;27;240;note_off;64
149280;2;27;0;note_on;80
149280;4;70;240;note_off;64
149280;4;72;0;note_on;80
149280;6;65;0;note_on;72
149280;6;65;480;note_off;64
149280;9;39;240;note_on;80
149520;0;58;0;note_on;80
149520;0;58;480;note_off;64
149520;0;55;0;note_off;64
149520;4;72;240;note_off;64
149520;9;39;240;note_off;64
149520;0;55;0;note_on;80
149520;4;73;0;note_on;80
149520;0;51;0;note_off;64
149520;2;27;0;note_on;80
149520;2;27;240;note_off;64
149520;0;43;0;note_off;64
149520;0;43;0;note_on;80
149520;0;51;0;note_on;80
149640;9;39;120;note_on;80
149760;0;55;0;note_off;64
149760;9;39;120;note_off;64
149760;0;58;240;note_off;64
149760;2;34;0;note_on;80
149760;4;73;240;note_off;64
149760;2;27;240;note_off;64
149760;6;65;480;note_off;64
149760;0;46;0;note_on;80
149760;4;70;0;note_on;80
149760;0;58;0;note_on;80
149760;0;70;0;note_on;80
149760;0;43;0;note_off;64
149760;0;51;0;note_off;64
149760;9;39;0;note_on;80
149760;0;61;0;note_on;80
150000;0;70;0;note_on;80
150000;0;61;0;note_on;80
150000;0;58;0;note_on;80
150000;0;46;0;note_off;64
150000;0;70;240;note_off;64
150000;0;61;0;note_off;64
150000;4;70;240;note_off;64
150000;0;58;0;note_off;64
150000;2;34;240;note_off;64
150000;2;34;0;note_on;80
150000;0;46;0;note_on;80
150000;9;39;240;note_off;64
150000;4;70;0;note_on;80
150240;9;39;240;note_on;80
150240;4;70;240;note_off;64
150240;2;34;240;note_off;64
150240;2;34;0;note_on;80
150240;4;72;0;note_on;80
150480;0;46;0;note_on;80
150480;0;61;0;note_off;64
150480;0;58;0;note_off;64
150480;0;46;0;note_off;64
150480;0;70;0;note_on;80
150480;0;61;0;note_on;80
150480;0;58;0;note_on;80
150480;0;70;480;note_off;64
150480;9;39;240;note_off;64
150480;2;34;0;note_on;80
150480;2;34;240;note_off;64
150480;4;72;240;note_off;64
150480;6;58;720;note_on;80
150480;4;73;0;note_on;80
150720;0;61;0;note_on;80
150720;9;39;240;note_on;80
150720;0;70;240;note_off;64
150720;0;61;0;note_off;64
150720;0;58;0;note_off;64
150720;0;46;0;note_off;64
150720;0;70;0;note_on;80
150720;2;34;0;note_on;80
150720;0;58;0;note_on;80
150720;0;46;0;note_on;80
150720;4;73;240;note_off;64
150720;4;75;0;note_on;80
150720;2;34;240;note_off;64
150960;6;56;0;note_on;80
150960;6;58;480;note_off;64
150960;4;75;240;note_off;64
150960;4;73;0;note_on;80
150960;9;39;240;note_off;64
150960;2;34;0;note_on;80
150960;0;61;0;note_on;80
150960;0;70;240;note_off;64
150960;0;61;0;note_off;64
150960;0;58;0;note_off;64
150960;0;46;0;note_off;64
150960;0;70;0;note_on;80
150960;2;34;240;note_off;64
150960;0;58;0;note_on;80
150960;0;46;0;note_on;80
151200;4;72;0;note_on;80
151200;4;73;240;note_off;64
151200;9;39;240;note_on;80
151200;2;34;240;note_off;64
151200;2;34;0;note_on;80
151440;4;72;240;note_off;64
151440;4;70;0;note_on;80
151440;9;39;240;note_off;64
151440;0;70;480;note_off;64
151440;0;58;0;note_off;64
151440;0;46;0;note_off;64
151440;0;70;0;note_on;80
151440;0;61;0;note_on;80
151440;0;58;0;note_on;80
151440;0;46;0;note_on;80
151440;2;34;0;note_on;80
151440;2;34;240;note_off;64
151440;0;61;0;note_off;64
151680;6;65;0;note_on;72
151680;6;56;720;note_off;64
151680;4;65;0;note_on;80
151680;2;32;0;note_on;80
151680;4;70;240;note_off;64
151680;2;34;240;note_off;64
151680;0;46;0;note_off;64
151680;0;70;240;note_off;64
151680;0;61;0;note_off;64
151680;0;58;0;note_off;64
151680;0;44;0;note_on;80
151680;0;51;0;note_on;80
151680;0;60;0;note_on;80
151680;0;56;0;note_on;80
151920;2;32;240;note_off;64
151920;2;32;0;note_on;80
151920;6;65;0;note_on;72
151920;6;65;240;note_off;64
151920;0;60;240;note_off;64
151920;0;56;0;note_off;64
151920;4;70;0;note_on;80
151920;0;51;0;note_off;64
151920;0;44;0;note_on;80
151920;0;51;0;note_on;80
151920;4;65;240;note_off;64
151920;0;44;0;note_off;64
151920;0;56;0;note_on;80
151920;0;60;0;note_on;80
152160;4;70;240;note_off;64
152160;4;72;0;note_on;80
152160;6;65;240;note_off;64
152160;6;65;0;note_on;72
152160;9;39;720;note_on;80
152160;2;32;0;note_on;80
152160;2;32;240;note_off;64
152400;6;65;240;note_off;64
152400;4;72;240;note_off;64
152400;6;66;0;note_on;72
152400;4;73;0;note_on;80
152400;9;39;240;note_off;64
152400;2;32;0;note_on;80
152400;0;60;480;note_off;64
152400;0;56;0;note_off;64
152400;0;51;0;note_off;64
152400;0;44;0;note_off;64
152400;0;60;0;note_on;80
152400;0;56;0;note_on;80
152400;0;51;0;note_on;80
152400;2;32;240;note_off;64
152400;0;44;0;note_on;80
152640;0;60;240;note_off;64
152640;0;51;0;note_off;64
152640;0;44;0;note_off;64
152640;0;58;0;note_on;80
152640;0;43;0;note_on;80
152640;2;27;0;note_on;80
152640;2;32;240;note_off;64
152640;6;66;240;note_off;64
152640;6;65;0;note_on;72
152640;4;73;240;note_off;64
152640;4;65;0;note_on;80
152640;0;56;0;note_off;64
152640;0;51;0;note_on;80
152640;0;55;0;note_on;80
152880;0;43;0;note_off;64
152880;0;58;240;note_off;64
152880;0;55;0;note_off;64
152880;0;51;0;note_off;64
152880;4;70;0;note_on;80
152880;0;55;0;note_on;80
152880;0;58;0;note_on;80
152880;0;43;0;note_on;80
152880;2;27;240;note_off;64
152880;2;27;0;note_on;80
152880;0;51;0;note_on;80
152880;4;65;240;note_off;64
153120;2;27;240;note_off;64
153120;2;27;0;note_on;80
153120;4;70;240;note_off;64
153120;6;63;0;note_on;72
153120;6;65;480;note_off;64
153120;4;72;0;note_on;80
153120;9;39;720;note_on;80
153360;9;39;240;note_off;64
153360;2;27;0;note_on;80
153360;2;27;240;note_off;64
153360;0;43;0;note_on;80
153360;0;51;0;note_on;80
153360;0;55;0;note_on;80
153360;0;43;0;note_off;64
153360;0;51;0;note_off;64
153360;0;55;0;note_off;64
153360;0;58;480;note_off;64
153360;4;73;0;note_on;80
153360;4;72;240;note_off;64
153360;6;56;0;note_on;80
153360;6;63;240;note_off;64
153360;0;58;0;note_on;80
153480;9;39;120;note_on;80
153600;4;73;240;note_off;64
153600;6;58;0;note_on;80
153600;6;56;240;note_off;64
153600;9;39;0;note_on;80
153600;0;58;240;note_off;64
153600;0;55;0;note_off;64
153600;0;43;0;note_off;64
153600;9;39;120;note_off;64
153600;0;51;0;note_off;64
153600;2;34;0;note_on;80
153600;2;27;240;note_off;64
153840;2;34;240;note_off;64
153840;6;56;0;note_on;80
153840;2;34;0;note_on;80
153840;6;58;240;note_off;64
154080;9;39;480;note_off;64
154080;9;39;0;note_on;80
154080;2;34;0;note_on;80
154080;2;34;240;note_off;64
154320;2;34;0;note_on;80
154320;6;56;480;note_off;64
154320;6;53;0;note_on;80
154320;2;34;240;note_off;64
154560;2;34;240;note_off;64
154560;9;39;0;note_on;80
154560;9;39;480;note_off;64
154560;2;34;0;note_on;80
154800;2;34;0;note_on;80
154800;2;34;240;note_off;64
154800;6;51;0;note_on;80
154800;6;53;480;note_off;64
155040;9;39;480;note_off;64
155040;9;39;0;note_on;80
155040;2;34;240;note_off;64
155040;2;34;0;note_on;80
155280;6;51;480;note_off;64
155280;2;34;0;note_on;80
155280;2;34;240;note_off;64
155280;6;48;0;note_on;80
155520;6;48;240;note_off;64
155520;2;34;240;note_off;64
155520;2;34;0;note_on;80
155520;9;39;0;note_on;80
155520;9;39;480;note_off;64
155760;2;34;0;note_on;80
155760;6;46;240;note_on;72
155760;2;34;240;note_off;64
155820;6;48;0;note_on;80
155820;6;46;60;note_off;64
156000;9;39;480;note_off;64
156000;2;34;0;note_on;80
156000;2;34;240;note_off;64
156000;9;39;0;note_on;80
156240;2;34;240;note_off;64
156240;2;34;0;note_on;80
156240;6;48;420;note_off;64
156240;6;46;0;note_on;80
156480;2;34;240;note_off;64
156480;2;34;0;note_on;80
156480;9;39;480;note_off;64
156480;9;39;0;note_on;80
156720;2;34;240;note_off;64
156720;2;34;0;note_on;80
156960;9;39;0;note_on;80
156960;2;34;240;note_off;64
156960;2;34;0;note_on;80
156960;9;39;480;note_off;64
156960;6;46;720;note_off;64
157200;2;34;0;note_on;80
157200;2;34;240;note_off;64
157200;6;56;240;note_on;80
157320;9;39;360;note_off;64
157320;9;39;0;note_on;80
157440;2;34;240;note_off;64
157440;9;39;120;note_off;64
157440;6;58;0;note_on;80
157440;2;34;0;note_on;80
157440;6;56;240;note_off;64
157440;9;39;0;note_on;80
157680;6;58;240;note_off;64
157680;6;56;0;note_on;80
157680;2;34;0;note_on;80
157680;2;34;240;note_off;64
157920;9;39;0;note_on;80
157920;9;39;480;note_off;64
157920;2;34;240;note_off;64
157920;2;34;0;note_on;80
158160;2;34;240;note_off;64
158160;6;53;0;note_on;80
158160;2;34;0;note_on;80
158160;6;56;480;note_off;64
158400;2;34;240;note_off;64
158400;2;34;0;note_on;80
158400;9;39;480;note_off;64
158400;9;39;0;note_on;80
158640;6;53;480;note_off;64
158640;6;51;0;note_on;80
158640;2;34;0;note_on;80
158640;2;34;240;note_off;64
158880;2;34;240;note_off;64
158880;2;34;0;note_on;80
158880;9;39;0;note_on;80
158880;9;39;480;note_off;64
159120;2;34;240;note_off;64
159120;6;48;0;note_on;80
159120;6;51;480;note_off;64
159120;2;34;0;note_on;80
159360;9;39;480;note_off;64
159360;9;39;0;note_on;80
159360;2;34;240;note_off;64
159360;2;34;0;note_on;80
159360;6;48;240;note_off;64
159600;2;34;240;note_off;64
159600;6;46;240;note_on;72
159600;2;34;0;note_on;80
159660;6;46;60;note_off;64
159660;6;48;0;note_on;80
159840;2;34;240;note_off;64
159840;2;34;0;note_on;80
159840;9;39;480;note_off;64
159840;9;39;0;note_on;80
160080;2;34;0;note_on;80
160080;2;34;240;note_off;64
160080;6;46;0;note_on;80
160080;6;48;420;note_off;64
160320;9;39;0;note_on;80
160320;9;39;480;note_off;64
160320;2;34;0;note_on;80
160320;2;34;240;note_off;64
160560;2;34;240;note_off;64
160560;2;34;0;note_on;80
160800;2;34;0;note_on;80
160800;9;39;0;note_on;80
160800;6;46;720;note_off;64
160800;9;39;480;note_off;64
160800;2;34;240;note_off;64
161040;6;56;240;note_on;80
161040;2;34;0;note_on;80
161040;2;34;240;note_off;64
161160;9;39;0;note_on;80
161160;9;39;360;note_off;64
161280;6;58;0;note_on;80
161280;6;56;240;note_off;64
161280;9;39;0;note_on;80
161280;9;39;120;note_off;64
161280;2;34;240;note_off;64
161280;2;34;0;note_on;80
161520;2;34;0;note_on;80
161520;2;34;240;note_off;64
161520;6;58;240;note_off;64
161520;6;56;0;note_on;80
161760;2;34;0;note_on;80
161760;2;34;240;note_off;64
161760;9;39;480;note_off;64
161760;9;39;0;note_on;80
162000;6;56;480;note_off;64
162000;6;53;0;note_on;80
162000;2;34;0;note_on;80
162000;2;34;240;note_off;64
162240;9;39;0;note_on;80
162240;9;39;480;note_off;64
162240;2;34;0;note_on;80
162240;2;34;240;note_off;64
162480;2;34;0;note_on;80
162480;2;34;240;note_off;64
162480;6;51;0;note_on;80
162480;6;53;480;note_off;64
162720;9;39;0;note_on;80
162720;9;39;480;note_off;64
162720;2;34;0;note_on;80
162720;2;34;240;note_off;64
162960;6;48;0;note_on;80
162960;2;34;0;note_on;80
162960;2;34;240;note_off;64
162960;6;51;480;note_off;64
163200;9;39;0;note_on;80
163200;2;34;240;note_off;64
163200;2;34;0;note_on;80
163200;6;48;240;note_off;64
163200;9;39;480;note_off;64
163440;6;46;240;note_on;72
163440;2;34;240;note_off;64
163440;2;34;0;note_on;80
163500;6;46;60;note_off;64
163500;6;48;0;note_on;80
163680;2;34;240;note_off;64
163680;2;34;0;note_on;80
163680;9;39;480;note_off;64
163680;9;39;0;note_on;80
163920;6;48;420;note_off;64
163920;6;46;0;note_on;80
163920;2;34;0;note_on;80
163920;2;34;240;note_off;64
164160;9;39;480;note_off;64
164160;2;34;240;note_off;64
164160;9;39;0;note_on;80
164160;2;34;0;note_on;80
164400;2;34;0;note_on;80
164400;2;34;240;note_off;64
164640;9;39;480;note_off;64
164640;2;34;240;note_off;64
164640;6;46;720;note_off;64
164640;2;34;0;note_on;80
164640;9;39;0;note_on;80
164880;6;56;240;note_on;80
164880;2;34;240;note_off;64
164880;2;34;0;note_on;80
165000;9;39;360;note_off;64
165000;9;39;0;note_on;80
165120;9;39;0;note_on;80
165120;2;34;0;note_on;80
165120;6;56;240;note_off;64
165120;6;58;0;note_on;80
165120;2;34;240;note_off;64
165120;9;39;120;note_off;64
165360;6;56;0;note_on;80
165360;6;58;240;note_off;64
165360;2;34;0;note_on;80
165360;2;34;240;note_off;64
165600;2;34;240;note_off;64
165600;2;34;0;note_on;80
165600;9;39;0;note_on;80
165600;9;39;480;note_off;64
165840;2;34;0;note_on;80
165840;2;34;240;note_off;64
165840;6;56;480;note_off;64
165840;6;53;0;note_on;80
166080;9;39;0;note_on;80
166080;2;34;240;note_off;64
166080;2;34;0;note_on;80
166080;9;39;480;note_off;64
166320;2;34;0;note_on;80
166320;2;34;240;note_off;64
166320;6;53;480;note_off;64
166320;6;51;0;note_on;80
166560;9;39;480;note_off;64
166560;9;39;0;note_on;80
166560;2;34;0;note_on;80
166560;2;34;240;note_off;64
166800;6;48;0;note_on;80
166800;2;34;0;note_on;80
166800;2;34;240;note_off;64
166800;6;51;480;note_off;64
167040;6;48;240;note_off;64
167040;2;34;0;note_on;80
167040;2;34;240;note_off;64
167040;9;39;480;note_off;64
167040;9;39;0;note_on;80
167280;6;46;240;note_on;72
167280;2;34;240;note_off;64
167280;2;34;0;note_on;80
167340;6;48;0;note_on;80
167340;6;46;60;note_off;64
167520;9;39;480;note_off;64
167520;2;34;0;note_on;80
167520;2;34;240;note_off;64
167520;9;39;0;note_on;80
167760;2;34;240;note_off;64
167760;2;34;0;note_on;80
167760;6;46;0;note_on;80
167760;6;48;420;note_off;64
168000;9;39;480;note_off;64
168000;2;34;240;note_off;64
168000;2;34;0;note_on;80
168000;9;39;0;note_on;80
168240;2;34;0;note_on;80
168240;2;34;240;note_off;64
168480;2;34;240;note_off;64
168480;9;39;0;note_on;80
168480;9;39;480;note_off;64
168480;6;46;720;note_off;64
168480;2;34;0;note_on;80
168720;6;56;240;note_on;80
168720;2;34;240;note_off;64
168720;2;34;0;note_on;80
168840;9;39;0;note_on;80
168840;9;39;360;note_off;64
168960;9;39;0;note_on;80
168960;2;34;240;note_off;64
168960;2;34;0;note_on;80
168960;6;56;240;note_off;64
168960;6;58;0;note_on;80
168960;0;58;0;note_on;80
168960;0;61;0;note_on;80
168960;0;46;0;note_on;80
168960;0;70;15360;note_on;80
168960;9;39;120;note_off;64
169200;2;34;240;note_off;64
169200;0;61;0;note_on;80
169200;0;70;0;note_on;80
169200;0;46;0;note_off;64
169200;0;58;0;note_off;64
169200;0;61;0;note_off;64
169200;0;70;240;note_off;64
169200;0;46;0;note_on;80
169200;6;58;240;note_off;64
169200;6;56;0;note_on;80
169200;0;58;0;note_on;80
169200;2;34;0;note_on;80
169440;2;34;240;note_off;64
169440;2;34;0;note_on;80
169440;9;39;0;note_on;80
169440;9;39;480;note_off;64
169680;0;70;480;note_off;64
169680;0;58;0;note_off;64
169680;0;46;0;note_off;64
169680;0;70;0;note_on;80
169680;0;61;0;note_on;80
169680;0;58;0;note_on;80
169680;0;46;0;note_on;80
169680;0;61;0;note_off;64
169680;2;34;0;note_on;80
169680;2;34;240;note_off;64
169680;6;53;0;note_on;80
169680;6;56;480;note_off;64
169920;2;34;0;note_on;80
169920;2;34;240;note_off;64
169920;0;58;0;note_on;80
169920;9;39;0;note_on;80
169920;0;61;0;note_on;80
169920;0;70;0;note_on;80
169920;0;46;0;note_off;64
169920;0;58;0;note_off;64
169920;0;61;0;note_off;64
169920;0;70;240;note_off;64
169920;0;46;0;note_on;80
169920;9;39;480;note_off;64
170160;6;53;480;note_off;64
170160;6;51;0;note_on;80
170160;2;34;0;note_on;80
170160;2;34;240;note_off;64
170160;0;70;240;note_off;64
170160;0;46;0;note_off;64
170160;0;58;0;note_off;64
170160;0;61;0;note_off;64
170160;0;70;0;note_on;80
170160;0;46;0;note_on;80
170160;0;58;0;note_on;80
170160;0;61;0;note_on;80
170400;9;39;0;note_on;80
170400;2;34;240;note_off;64
170400;2;34;0;note_on;80
170400;9;39;480;note_off;64
170640;0;70;480;note_off;64
170640;0;61;0;note_off;64
170640;0;70;0;note_on;80
170640;2;34;240;note_off;64
170640;2;34;0;note_on;80
170640;0;61;0;note_on;80
170640;0;46;0;note_on;80
170640;6;48;0;note_on;80
170640;0;58;0;note_on;80
170640;0;46;0;note_off;64
170640;0;58;0;note_off;64
170640;6;51;480;note_off;64
170880;2;34;240;note_off;64
170880;2;32;0;note_on;80
170880;9;39;0;note_on;80
170880;0;61;0;note_off;64
170880;0;58;0;note_off;64
170880;0;70;240;note_off;64
170880;6;48;240;note_off;64
170880;0;56;0;note_on;80
170880;0;51;0;note_on;80
170880;0;44;0;note_on;80
170880;9;39;480;note_off;64
170880;0;46;0;note_off;64
170880;0;60;0;note_on;80
171120;0;60;0;note_on;80
171120;0;56;0;note_on;80
171120;0;44;0;note_on;80
171120;0;51;0;note_on;80
171120;0;51;0;note_off;64
171120;0;44;0;note_off;64
171120;6;46;240;note_on;72
171120;0;56;0;note_off;64
171120;0;60;240;note_off;64
171120;2;32;0;note_on;80
171120;2;32;240;note_off;64
171180;6;46;60;note_off;64
171180;6;48;0;note_on;80
171360;2;32;240;note_off;64
171360;2;32;0;note_on;80
171360;9;39;480;note_off;64
171360;9;39;0;note_on;80
171600;6;48;420;note_off;64
171600;0;44;0;note_on;80
171600;0;51;0;note_on;80
171600;0;56;0;note_on;80
171600;0;60;0;note_on;80
171600;0;44;0;note_off;64
171600;0;51;0;note_off;64
171600;0;56;0;note_off;64
171600;6;46;0;note_on;80
171600;2;32;0;note_on;80
171600;2;32;240;note_off;64
171600;0;60;480;note_off;64
171840;9;39;480;note_off;64
171840;2;32;240;note_off;64
171840;2;27;0;note_on;80
171840;0;55;0;note_on;80
171840;0;51;0;note_on;80
171840;0;43;0;note_on;80
171840;0;58;0;note_on;80
171840;0;51;0;note_off;64
171840;0;56;0;note_off;64
171840;0;60;240;note_off;64
171840;0;44;0;note_off;64
171840;9;39;0;note_on;80
172080;0;58;240;note_off;64
172080;0;55;0;note_off;64
172080;0;51;0;note_off;64
172080;0;43;0;note_off;64
172080;0;58;0;note_on;80
172080;0;55;0;note_on;80
172080;0;43;0;note_on;80
172080;0;51;0;note_on;80
172080;2;27;240;note_off;64
172080;2;27;0;note_on;80
172320;9;39;0;note_on;80
172320;6;46;720;note_off;64
172320;2;27;240;note_off;64
172320;2;27;0;note_on;80
172320;9;39;480;note_off;64
172560;0;55;0;note_off;64
172560;0;43;0;note_off;64
172560;0;58;0;note_on;80
172560;0;55;0;note_on;80
172560;0;51;0;note_on;80
172560;0;51;0;note_off;64
172560;0;43;0;note_on;80
172560;6;56;240;note_on;80
172560;2;27;240;note_off;64
172560;2;27;0;note_on;80
172560;0;58;480;note_off;64
172680;9;39;360;note_off;64
172680;9;39;0;note_on;80
172800;2;27;240;note_off;64
172800;2;34;0;note_on;80
172800;0;58;0;note_on;80
172800;0;43;0;note_off;64
172800;0;58;240;note_off;64
172800;0;55;0;note_off;64
172800;0;51;0;note_off;64
172800;0;70;0;note_on;80
172800;0;61;0;note_on;80
172800;9;39;0;note_on;80
172800;9;39;120;note_off;64
172800;0;46;0;note_on;80
172800;6;56;240;note_off;64
172800;6;58;0;note_on;80
173040;0;70;240;note_off;64
173040;0;61;0;note_off;64
173040;0;58;0;note_off;64
173040;0;46;0;note_off;64
173040;0;70;0;note_on;80
173040;0;61;0;note_on;80
173040;0;58;0;note_on;80
173040;0;46;0;note_on;80
173040;6;56;0;note_on;80
173040;6;58;240;note_off;64
173040;2;34;0;note_on;80
173040;2;34;240;note_off;64
173280;2;34;240;note_off;64
173280;9;39;480;note_off;64
173280;2;34;0;note_on;80
173280;9;39;0;note_on;80
173520;6;56;480;note_off;64
173520;0;61;0;note_on;80
173520;0;70;0;note_on;80
173520;0;46;0;note_off;64
173520;0;58;0;note_off;64
173520;0;61;0;note_off;64
173520;0;70;480;note_off;64
173520;0;46;0;note_on;80
173520;2;34;0;note_on;80
173520;2;34;240;note_off;64
173520;0;58;0;note_on;80
173520;6;53;0;note_on;80
173760;0;61;0;note_on;80
173760;0;70;0;note_on;80
173760;0;58;0;note_off;64
173760;0;46;0;note_off;64
173760;2;34;0;note_on;80
173760;2;34;240;note_off;64
173760;0;58;0;note_on;80
173760;9;39;480;note_off;64
173760;9;39;0;note_on;80
173760;0;61;0;note_off;64
173760;0;46;0;note_on;80
173760;0;70;240;note_off;64
174000;2;34;240;note_off;64
174000;0;46;0;note_on;80
174000;0;58;0;note_on;80
174000;0;61;0;note_on;80
174000;0;70;0;note_on;80
174000;0;58;0;note_off;64
174000;0;61;0;note_off;64
174000;0;70;240;note_off;64
174000;0;46;0;note_off;64
174000;2;34;0;note_on;80
174000;6;53;480;note_off;64
174000;6;51;0;note_on;80
174240;9;39;0;note_on;80
174240;2;34;0;note_on;80
174240;2;34;240;note_off;64
174240;9;39;480;note_off;64
174480;6;48;0;note_on;80
174480;6;51;480;note_off;64
174480;0;70;480;note_off;64
174480;0;61;0;note_off;64
174480;0;58;0;note_off;64
174480;0;46;0;note_off;64
174480;0;70;0;note_on;80
174480;0;61;0;note_on;80
174480;0;46;0;note_on;80
174480;0;58;0;note_on;80
174480;2;34;240;note_off;64
174480;2;34;0;note_on;80
174720;6;48;240;note_off;64
174720;9;39;480;note_off;64
174720;9;39;0;note_on;80
174720;2;32;0;note_on;80
174720;0;70;240;note_off;64
174720;0;61;0;note_off;64
174720;0;58;0;note_off;64
174720;0;46;0;note_off;64
174720;0;60;0;note_on;80
174720;0;51;0;note_on;80
174720;0;44;0;note_on;80
174720;0;56;0;note_on;80
174720;2;34;240;note_off;64
174960;0;51;0;note_on;80
174960;0;56;0;note_on;80
174960;0;60;0;note_on;80
174960;0;44;0;note_off;64
174960;0;51;0;note_off;64
174960;0;56;0;note_off;64
174960;0;60;240;note_off;64
174960;2;32;240;note_off;64
174960;2;32;0;note_on;80
174960;6;46;240;note_on;72
174960;0;44;0;note_on;80
175020;6;46;60;note_off;64
175020;6;48;0;note_on;80
175200;2;32;0;note_on;80
175200;9;39;480;note_off;64
175200;9;39;0;note_on;80
175200;2;32;240;note_off;64
175440;6;46;0;note_on;80
175440;2;32;0;note_on;80
175440;2;32;240;note_off;64
175440;0;56;0;note_on;80
175440;0;44;0;note_on;80
175440;0;44;0;note_off;64
175440;0;60;0;note_on;80
175440;0;51;0;note_off;64
175440;0;56;0;note_off;64
175440;0;60;480;note_off;64
175440;6;48;420;note_off;64
175440;0;51;0;note_on;80
175680;2;27;0;note_on;80
175680;2;32;240;note_off;64
175680;9;39;0;note_on;80
175680;9;39;480;note_off;64
175680;0;58;0;note_on;80
175680;0;43;0;note_on;80
175680;0;44;0;note_off;64
175680;0;55;0;note_on;80
175680;0;51;0;note_off;64
175680;0;56;0;note_off;64
175680;0;60;240;note_off;64
175680;0;51;0;note_on;80
175920;2;27;0;note_on;80
175920;0;51;0;note_off;64
175920;0;43;0;note_off;64
175920;0;58;0;note_on;80
175920;0;55;0;note_on;80
175920;0;51;0;note_on;80
175920;2;27;240;note_off;64
175920;0;58;240;note_off;64
175920;0;43;0;note_on;80
175920;0;55;0;note_off;64
176160;2;27;0;note_on;80
176160;9;39;0;note_on;80
176160;9;39;480;note_off;64
176160;6;46;720;note_off;64
176160;2;27;240;note_off;64
176400;2;27;0;note_on;80
176400;6;56;240;note_on;80
176400;0;43;0;note_on;80
176400;2;27;240;note_off;64
176400;0;51;0;note_on;80
176400;0;58;480;note_off;64
176400;0;55;0;note_off;64
176400;0;51;0;note_off;64
176400;0;43;0;note_off;64
176400;0;55;0;note_on;80
176400;0;58;0;note_on;80
176520;9;39;0;note_on;80
176520;9;39;360;note_off;64
176640;6;56;240;note_off;64
176640;9;39;0;note_on;80
176640;9;39;120;note_off;64
176640;6;58;0;note_on;80
176640;0;58;0;note_on;80
176640;2;34;0;note_on;80
176640;0;58;240;note_off;64
176640;2;27;240;note_off;64
176640;0;51;0;note_off;64
176640;0;43;0;note_off;64
176640;0;55;0;note_off;64
176640;0;61;0;note_on;80
176640;0;46;0;note_on;80
176640;0;70;0;note_on;80
176880;6;58;240;note_off;64
176880;6;56;0;note_on;80
176880;2;34;0;note_on;80
176880;2;34;240;note_off;64
176880;0;70;240;note_off;64
176880;0;61;0;note_off;64
176880;0;58;0;note_off;64
176880;0;46;0;note_off;64
176880;0;70;0;note_on;80
176880;0;61;0;note_on;80
176880;0;58;0;note_on;80
176880;0;46;0;note_on;80
177120;9;39;0;note_on;80
177120;9;39;480;note_off;64
177120;2;34;240;note_off;64
177120;2;34;0;note_on;80
177360;0;58;0;note_off;64
177360;6;53;0;note_on;80
177360;6;56;480;note_off;64
177360;2;34;0;note_on;80
177360;0;70;480;note_off;64
177360;0;61;0;note_off;64
177360;0;46;0;note_off;64
177360;0;70;0;note_on;80
177360;0;61;0;note_on;80
177360;0;58;0;note_on;80
177360;0;46;0;note_on;80
177360;2;34;240;note_off;64
177600;2;34;240;note_off;64
177600;2;34;0;note_on;80
177600;0;46;0;note_on;80
177600;9;39;480;note_off;64
177600;0;58;0;note_on;80
177600;0;61;0;note_on;80
177600;9;39;0;note_on;80
177600;0;46;0;note_off;64
177600;0;70;240;note_off;64
177600;0;58;0;note_off;64
177600;0;61;0;note_off;64
177600;0;70;0;note_on;80
177840;2;34;0;note_on;80
177840;2;34;240;note_off;64
177840;0;61;0;note_on;80
177840;0;46;0;note_on;80
177840;6;53;480;note_off;64
177840;6;51;0;note_on;80
177840;0;58;0;note_on;80
177840;0;70;0;note_on;80
177840;0;46;0;note_off;64
177840;0;70;240;note_off;64
177840;0;61;0;note_off;64
177840;0;58;0;note_off;64
178080;9;39;0;note_on;80
178080;9;39;480;note_off;64
178080;2;34;240;note_off;64
178080;2;34;0;note_on;80
178320;0;70;0;note_on;80
178320;0;46;0;note_off;64
178320;0;70;480;note_off;64
178320;0;58;0;note_on;80
178320;0;46;0;note_on;80
178320;2;34;0;note_on;80
178320;6;48;0;note_on;80
178320;2;34;240;note_off;64
178320;0;58;0;note_off;64
178320;0;61;0;note_off;64
178320;0;61;0;note_on;80
178320;6;51;480;note_off;64
178560;2;32;0;note_on;80
178560;2;34;240;note_off;64
178560;0;44;0;note_on;80
178560;6;48;240;note_off;64
178560;9;39;0;note_on;80
178560;9;39;480;note_off;64
178560;0;70;240;note_off;64
178560;0;61;0;note_off;64
178560;0;58;0;note_off;64
178560;0;46;0;note_off;64
178560;0;60;0;note_on;80
178560;0;56;0;note_on;80
178560;0;51;0;note_on;80
178800;6;46;240;note_on;72
178800;2;32;0;note_on;80
178800;2;32;240;note_off;64
178800;0;60;240;note_off;64
178800;0;60;0;note_on;80
178800;0;44;0;note_on;80
178800;0;51;0;note_on;80
178800;0;56;0;note_on;80
178800;0;44;0;note_off;64
178800;0;51;0;note_off;64
178800;0;56;0;note_off;64
178860;6;48;0;note_on;80
178860;6;46;60;note_off;64
179040;9;39;480;note_off;64
179040;9;39;0;note_on;80
179040;2;32;0;note_on;80
179040;2;32;240;note_off;64
179280;2;32;240;note_off;64
179280;2;32;0;note_on;80
179280;0;44;0;note_off;64
179280;6;48;420;note_off;64
179280;6;46;0;note_on;80
179280;0;60;480;note_off;64
179280;0;56;0;note_off;64
179280;0;51;0;note_off;64
179280;0;60;0;note_on;80
179280;0;56;0;note_on;80
179280;0;51;0;note_on;80
179280;0;44;0;note_on;80
179520;0;43;0;note_on;80
179520;2;27;0;note_on;80
179520;2;32;240;note_off;64
179520;0;44;0;note_off;64
179520;0;58;0;note_on;80
179520;0;55;0;note_on;80
179520;9;39;0;note_on;80
179520;9;39;480;note_off;64
179520;0;51;0;note_off;64
179520;0;56;0;note_off;64
179520;0;60;240;note_off;64
179520;0;51;0;note_on;80
179760;0;51;0;note_on;80
179760;2;27;0;note_on;80
179760;0;43;0;note_on;80
179760;2;27;240;note_off;64
179760;0;58;240;note_off;64
179760;0;55;0;note_off;64
179760;0;51;0;note_off;64
179760;0;43;0;note_off;64
179760;0;58;0;note_on;80
179760;0;55;0;note_on;80
180000;9;39;480;note_off;64
180000;2;27;0;note_on;80
180000;6;46;720;note_off;64
180000;2;27;240;note_off;64
180000;9;39;0;note_on;80
180240;6;56;240;note_on;80
180240;2;27;240;note_off;64
180240;2;27;0;note_on;80
180240;0;43;0;note_on;80
180240;0;58;480;note_off;64
180240;0;55;0;note_off;64
180240;0;51;0;note_off;64
180240;0;43;0;note_off;64
180240;0;58;0;note_on;80
180240;0;55;0;note_on;80
180240;0;51;0;note_on;80
180360;9;39;0;note_on;80
180360;9;39;360;note_off;64
180480;0;46;0;note_on;80
180480;0;58;0;note_on;80
180480;0;61;0;note_on;80
180480;0;70;0;note_on;80
180480;0;43;0;note_off;64
180480;2;27;240;note_off;64
180480;0;55;0;note_off;64
180480;0;58;240;note_off;64
180480;9;39;120;note_off;64
180480;6;56;240;note_off;64
180480;6;58;0;note_on;80
180480;2;34;0;note_on;80
180480;0;51;0;note_off;64
180480;9;39;0;note_on;80
180720;0;46;0;note_on;80
180720;0;70;240;note_off;64
180720;6;58;240;note_off;64
180720;2;34;240;note_off;64
180720;0;61;0;note_off;64
180720;0;58;0;note_off;64
180720;0;46;0;note_off;64
180720;0;70;0;note_on;80
180720;0;61;0;note_on;80
180720;0;58;0;note_on;80
180720;6;56;0;note_on;80
180720;2;34;0;note_on;80
180960;9;39;480;note_off;64
180960;2;34;240;note_off;64
180960;9;39;0;note_on;80
180960;2;34;0;note_on;80
181200;2;34;240;note_off;64
181200;2;34;0;note_on;80
181200;0;70;480;note_off;64
181200;0;61;0;note_off;64
181200;0;58;0;note_off;64
181200;0;46;0;note_off;64
181200;0;70;0;note_on;80
181200;0;61;0;note_on;80
181200;0;58;0;note_on;80
181200;0;46;0;note_on;80
181200;6;56;480;note_off;64
181200;6;53;0;note_on;80
181440;2;34;240;note_off;64
181440;0;46;0;note_on;80
181440;0;58;0;note_on;80
181440;0;61;0;note_on;80
181440;0;70;0;note_on;80
181440;0;46;0;note_off;64
181440;9;39;480;note_off;64
181440;9;39;0;note_on;80
181440;0;70;240;note_off;64
181440;0;61;0;note_off;64
181440;2;34;0;note_on;80
181440;0;58;0;note_off;64
181680;6;51;0;note_on;80
181680;6;53;480;note_off;64
181680;2;34;0;note_on;80
181680;2;34;240;note_off;64
181680;0;61;0;note_on;80
181680;0;58;0;note_on;80
181680;0;70;240;note_off;64
181680;0;61;0;note_off;64
181680;0;58;0;note_off;64
181680;0;46;0;note_off;64
181680;0;46;0;note_on;80
181680;0;70;0;note_on;80
181920;2;34;0;note_on;80
181920;2;34;240;note_off;64
181920;9;39;0;note_on;80
181920;9;39;480;note_off;64
182160;6;51;480;note_off;64
182160;2;34;0;note_on;80
182160;2;34;240;note_off;64
182160;0;61;0;note_off;64
182160;6;48;0;note_on;80
182160;0;70;480;note_off;64
182160;0;58;0;note_off;64
182160;0;70;0;note_on;80
182160;0;61;0;note_on;80
182160;0;58;0;note_on;80
182160;0;46;0;note_on;80
182160;0;46;0;note_off;64
182400;2;34;240;note_off;64
182400;9;39;480;note_off;64
182400;9;39;0;note_on;80
182400;0;61;0;note_off;64
182400;0;58;0;note_off;64
182400;0;46;0;note_off;64
182400;0;60;0;note_on;80
182400;0;56;0;note_on;80
182400;0;51;0;note_on;80
182400;2;32;0;note_on;80
182400;0;70;240;note_off;64
182400;0;44;0;note_on;80
182400;6;48;240;note_off;64
182640;0;44;0;note_off;64
182640;0;51;0;note_off;64
182640;0;56;0;note_off;64
182640;0;60;240;note_off;64
182640;0;56;0;note_on;80
182640;0;51;0;note_on;80
182640;0;44;0;note_on;80
182640;2;32;0;note_on;80
182640;2;32;240;note_off;64
182640;6;46;240;note_on;72
182640;0;60;0;note_on;80
182700;6;48;0;note_on;80
182700;6;46;60;note_off;64
182880;2;32;0;note_on;80
182880;2;32;240;note_off;64
182880;9;39;0;note_on;80
182880;9;39;480;note_off;64
183120;0;51;0;note_on;80
183120;0;44;0;note_on;80
183120;0;60;0;note_on;80
183120;0;44;0;note_off;64
183120;6;48;420;note_off;64
183120;6;46;0;note_on;80
183120;0;51;0;note_off;64
183120;0;56;0;note_off;64
183120;0;60;480;note_off;64
183120;2;32;240;note_off;64
183120;0;56;0;note_on;80
183120;2;32;0;note_on;80
183360;0;58;0;note_on;80
183360;0;51;0;note_on;80
183360;2;27;0;note_on;80
183360;2;32;240;note_off;64
183360;0;55;0;note_on;80
183360;0;60;240;note_off;64
183360;0;56;0;note_off;64
183360;0;51;0;note_off;64
183360;0;43;0;note_on;80
183360;0;44;0;note_off;64
183360;9;39;480;note_off;64
183600;0;51;0;note_on;80
183600;0;55;0;note_on;80
183600;2;27;0;note_on;80
183600;0;55;0;note_off;64
183600;0;58;240;note_off;64
183600;0;43;0;note_on;80
183600;0;58;0;note_on;80
183600;2;27;240;note_off;64
183600;0;51;0;note_off;64
183600;0;43;0;note_off;64
183840;6;46;720;note_off;64
183840;2;27;240;note_off;64
183840;9;39;480;note_on;80
183840;2;27;0;note_on;80
184080;0;58;480;note_off;64
184080;0;51;0;note_off;64
184080;0;43;0;note_off;64
184080;0;58;0;note_on;80
184080;0;55;0;note_on;80
184080;0;51;0;note_on;80
184080;0;43;0;note_on;80
184080;0;55;0;note_off;64
184080;2;27;0;note_on;80
184080;2;27;240;note_off;64
184200;9;39;360;note_off;64
184200;9;39;0;note_on;80
184320;0;43;0;note_off;64
184320;0;46;0;note_on;80
184320;0;58;0;note_on;80
184320;0;61;0;note_on;80
184320;0;70;0;note_on;80
184320;0;51;0;note_off;64
184320;0;55;0;note_off;64
184320;0;58;240;note_off;64
184320;9;39;0;note_on;80
184320;4;70;30720;note_on;80
184320;9;39;120;note_off;64
184320;2;27;240;note_off;64
184320;2;34;0;note_on;80
184560;0;46;0;note_on;80
184560;0;58;0;note_on;80
184560;0;61;0;note_on;80
184560;0;70;0;note_on;80
184560;0;46;0;note_off;64
184560;0;58;0;note_off;64
184560;0;61;0;note_off;64
184560;0;70;240;note_off;64
184560;4;70;0;note_on;80
184560;9;39;240;note_off;64
184560;2;34;240;note_off;64
184560;2;34;0;note_on;80
184560;4;70;240;note_off;64
184800;2;34;0;note_on;80
184800;2;34;240;note_off;64
184800;4;70;240;note_off;64
184800;4;72;0;note_on;80
184800;9;39;240;note_on;80
185040;6;56;1200;note_on;80
185040;4;73;0;note_on;80
185040;4;72;240;note_off;64
185040;2;34;0;note_on;80
185040;2;34;240;note_off;64
185040;0;70;480;note_off;64
185040;0;61;0;note_off;64
185040;9;39;240;note_off;64
185040;0;58;0;note_off;64
185040;0;46;0;note_off;64
185040;0;70;0;note_on;80
185040;0;46;0;note_on;80
185040;0;61;0;note_on;80
185040;0;58;0;note_on;80
185280;4;73;240;note_off;64
185280;0;70;240;note_off;64
185280;0;61;0;note_off;64
185280;0;58;0;note_off;64
185280;0;46;0;note_off;64
185280;0;70;0;note_on;80
185280;0;61;0;note_on;80
185280;0;58;0;note_on;80
185280;0;46;0;note_on;80
185280;2;34;240;note_off;64
185280;4;75;0;note_on;80
185280;2;34;0;note_on;80
185280;9;39;240;note_on;80
185520;2;34;0;note_on;80
185520;0;61;0;note_on;80
185520;0;70;0;note_on;80
185520;0;46;0;note_off;64
185520;0;58;0;note_off;64
185520;0;61;0;note_off;64
185520;0;70;240;note_off;64
185520;4;75;240;note_off;64
185520;4;73;0;note_on;80
185520;2;34;240;note_off;64
185520;0;58;0;note_on;80
185520;6;56;480;note_off;64
185520;6;53;0;note_on;80
185520;9;39;240;note_off;64
185520;0;46;0;note_on;80
185760;4;72;0;note_on;80
185760;4;73;240;note_off;64
185760;9;39;240;note_on;80
185760;2;34;0;note_on;80
185760;2;34;240;note_off;64
186000;0;70;0;note_on;80
186000;0;46;0;note_off;64
186000;0;58;0;note_off;64
186000;0;58;0;note_on;80
186000;0;46;0;note_on;80
186000;0;61;0;note_off;64
186000;0;61;0;note_on;80
186000;9;39;240;note_off;64
186000;4;72;240;note_off;64
186000;4;70;0;note_on;80
186000;2;34;0;note_on;80
186000;2;34;240;note_off;64
186000;0;70;480;note_off;64
186240;9;39;240;note_on;80
186240;4;70;240;note_off;64
186240;4;65;0;note_on;80
186240;0;70;240;note_off;64
186240;0;61;0;note_off;64
186240;0;58;0;note_off;64
186240;0;46;0;note_off;64
186240;0;51;0;note_on;80
186240;0;56;0;note_on;80
186240;0;44;0;note_on;80
186240;0;60;0;note_on;80
186240;6;68;0;note_on;72
186240;2;32;0;note_on;80
186240;2;34;240;note_off;64
186240;6;53;720;note_off;64
186480;6;68;240;note_off;64
186480;6;68;0;note_on;72
186480;4;70;0;note_on;80
186480;4;65;240;note_off;64
186480;2;32;240;note_off;64
186480;2;32;0;note_on;80
186480;9;39;240;note_off;64
186480;0;60;240;note_off;64
186480;0;56;0;note_off;64
186480;0;44;0;note_on;80
186480;0;51;0;note_on;80
186480;0;51;0;note_off;64
186480;0;44;0;note_off;64
186480;0;56;0;note_on;80
186480;0;60;0;note_on;80
186720;4;70;240;note_off;64
186720;4;72;0;note_on;80
186720;2;32;240;note_off;64
186720;2;32;0;note_on;80
186720;6;66;0;note_on;72
186720;6;68;240;note_off;64
186720;9;39;240;note_on;80
186960;0;56;0;note_on;80
186960;0;56;0;note_off;64
186960;0;51;0;note_off;64
186960;6;66;0;note_on;72
186960;2;32;0;note_on;80
186960;2;32;240;note_off;64
186960;9;39;240;note_off;64
186960;0;51;0;note_on;80
186960;0;44;0;note_off;64
186960;4;72;240;note_off;64
186960;4;73;0;note_on;80
186960;6;66;240;note_off;64
186960;0;44;0;note_on;80
186960;0;60;480;note_off;64
186960;0;60;0;note_on;80
187200;2;32;240;note_off;64
187200;2;27;0;note_on;80
187200;4;73;240;note_off;64
187200;4;65;0;note_on;80
187200;6;66;240;note_off;64
187200;9;39;240;note_on;80
187200;6;65;0;note_on;72
187200;0;60;240;note_off;64
187200;0;56;0;note_off;64
187200;0;51;0;note_off;64
187200;0;44;0;note_off;64
187200;0;58;0;note_on;80
187200;0;51;0;note_on;80
187200;0;55;0;note_on;80
187200;0;43;0;note_on;80
187440;0;51;0;note_off;64
187440;0;58;0;note_on;80
187440;9;39;240;note_off;64
187440;0;51;0;note_on;80
187440;0;43;0;note_on;80
187440;2;27;240;note_off;64
187440;2;27;0;note_on;80
187440;0;55;0;note_on;80
187440;0;55;0;note_off;64
187440;0;43;0;note_off;64
187440;4;65;240;note_off;64
187440;4;70;0;note_on;80
187440;0;58;240;note_off;64
187680;6;65;0;note_on;72
187680;6;65;480;note_off;64
187680;2;27;0;note_on;80
187680;4;70;240;note_off;64
187680;4;72;0;note_on;80
187680;2;27;240;note_off;64
187680;9;39;240;note_on;80
187920;0;55;0;note_on;80
187920;0;58;0;note_on;80
187920;0;43;0;note_off;64
187920;0;51;0;note_off;64
187920;0;55;0;note_off;64
187920;9;39;240;note_off;64
187920;4;73;0;note_on;80
187920;0;51;0;note_on;80
187920;0;43;0;note_on;80
187920;4;72;240;note_off;64
187920;2;27;240;note_off;64
187920;0;58;480;note_off;64
187920;2;27;0;note_on;80
188040;9;39;120;note_on;80
188160;4;73;240;note_off;64
188160;4;70;0;note_on;80
188160;2;27;240;note_off;64
188160;2;34;0;note_on;80
188160;6;65;480;note_off;64
188160;0;61;0;note_on;80
188160;0;70;0;note_on;80
188160;0;43;0;note_off;64
188160;0;51;0;note_off;64
188160;0;55;0;note_off;64
188160;0;58;240;note_off;64
188160;9;39;120;note_off;64
188160;0;46;0;note_on;80
188160;9;39;0;note_on;80
188160;0;58;0;note_on;80
188400;0;58;0;note_on;80
188400;4;70;240;note_off;64
188400;4;70;0;note_on;80
188400;0;61;0;note_on;80
188400;0;70;0;note_on;80
188400;0;46;0;note_off;64
188400;0;58;0;note_off;64
188400;0;61;0;note_off;64
188400;0;46;0;note_on;80
188400;0;70;240;note_off;64
188400;2;34;240;note_off;64
188400;2;34;0;note_on;80
188400;9;39;240;note_off;64
188640;4;70;240;note_off;64
188640;2;34;240;note_off;64
188640;2;34;0;note_on;80
188640;9;39;240;note_on;80
188640;4;72;0;note_on;80
188880;2;34;240;note_off;64
188880;4;73;0;note_on;80
188880;4;72;240;note_off;64
188880;6;53;720;note_on;80
188880;2;34;0;note_on;80
188880;9;39;240;note_off;64
188880;0;70;480;note_off;64
188880;0;61;0;note_off;64
188880;0;58;0;note_off;64
188880;0;46;0;note_off;64
188880;0;70;0;note_on;80
188880;0;61;0;note_on;80
188880;0;46;0;note_on;80
188880;0;58;0;note_on;80
189120;9;39;240;note_on;80
189120;2;34;240;note_off;64
189120;0;70;240;note_off;64
189120;0;61;0;note_off;64
189120;4;75;0;note_on;80
189120;0;58;0;note_off;64
189120;4;73;240;note_off;64
189120;0;46;0;note_off;64
189120;2;34;0;note_on;80
189120;0;70;0;note_on;80
189120;0;61;0;note_on;80
189120;0;58;0;note_on;80
189120;0;46;0;note_on;80
189360;0;61;0;note_on;80
189360;0;70;240;note_off;64
189360;0;61;0;note_off;64
189360;0;58;0;note_off;64
189360;0;46;0;note_off;64
189360;6;51;0;note_on;80
189360;0;58;0;note_on;80
189360;0;46;0;note_on;80
189360;2;34;0;note_on;80
189360;2;34;240;note_off;64
189360;6;53;480;note_off;64
189360;9;39;240;note_off;64
189360;4;75;240;note_off;64
189360;4;73;0;note_on;80
189360;0;70;0;note_on;80
189600;4;72;0;note_on;80
189600;2;34;0;note_on;80
189600;2;34;240;note_off;64
189600;4;73;240;note_off;64
189600;9;39;240;note_on;80
189840;4;72;240;note_off;64
189840;0;46;0;note_on;80
189840;0;58;0;note_on;80
189840;0;61;0;note_on;80
189840;0;70;0;note_on;80
189840;0;46;0;note_off;64
189840;0;58;0;note_off;64
189840;9;39;240;note_off;64
189840;2;34;0;note_on;80
189840;2;34;240;note_off;64
189840;0;61;0;note_off;64
189840;0;70;480;note_off;64
189840;4;70;0;note_on;80
190080;0;70;240;note_off;64
190080;4;70;240;note_off;64
190080;2;34;240;note_off;64
190080;2;32;0;note_on;80
190080;9;39;240;note_on;80
190080;0;61;0;note_off;64
190080;0;58;0;note_off;64
190080;0;46;0;note_off;64
190080;0;60;0;note_on;80
190080;0;56;0;note_on;80
190080;0;51;0;note_on;80
190080;0;44;0;note_on;80
190080;4;65;0;note_on;80
190080;6;51;720;note_off;64
190080;6;65;0;note_on;72
190320;0;51;0;note_off;64
190320;0;44;0;note_off;64
190320;0;56;0;note_off;64
190320;0;51;0;note_on;80
190320;0;56;0;note_on;80
190320;0;44;0;note_on;80
190320;0;60;0;note_on;80
190320;4;65;240;note_off;64
190320;0;60;240;note_off;64
190320;6;65;0;note_on;72
190320;6;65;240;note_off;64
190320;4;70;0;note_on;80
190320;2;32;240;note_off;64
190320;2;32;0;note_on;80
190320;9;39;240;note_off;64
190560;4;70;240;note_off;64
190560;6;65;0;note_on;72
190560;2;32;0;note_on;80
190560;9;39;240;note_on;80
190560;6;65;240;note_off;64
190560;2;32;240;note_off;64
190560;4;72;0;note_on;80
190800;0;51;0;note_on;80
190800;0;44;0;note_off;64
190800;0;51;0;note_off;64
190800;0;56;0;note_off;64
190800;4;73;0;note_on;80
190800;0;60;480;note_off;64
190800;0;44;0;note_on;80
190800;0;56;0;note_on;80
190800;6;66;0;note_on;72
190800;6;65;240;note_off;64
190800;4;72;240;note_off;64
190800;2;32;0;note_on;80
190800;2;32;240;note_off;64
190800;0;60;0;note_on;80
190800;9;39;240;note_off;64
191040;9;39;240;note_on;80
191040;6;66;240;note_off;64
191040;6;65;0;note_on;72
191040;0;56;0;note_off;64
191040;0;51;0;note_off;64
191040;0;44;0;note_off;64
191040;0;58;0;note_on;80
191040;0;55;0;note_on;80
191040;0;43;0;note_on;80
191040;4;73;240;note_off;64
191040;2;27;0;note_on;80
191040;2;32;240;note_off;64
191040;4;65;0;note_on;80
191040;0;60;240;note_off;64
191040;0;51;0;note_on;80
191280;2;27;0;note_on;80
191280;2;27;240;note_off;64
191280;0;58;240;note_off;64
191280;0;51;0;note_off;64
191280;0;55;0;note_off;64
191280;4;65;240;note_off;64
191280;9;39;240;note_off;64
191280;0;43;0;note_on;80
191280;4;70;0;note_on;80
191280;0;55;0;note_on;80
191280;0;51;0;note_on;80
191280;0;58;0;note_on;80
191280;0;43;0;note_off;64
191520;2;27;0;note_on;80
191520;2;27;240;note_off;64
191520;6;63;0;note_on;72
191520;6;65;480;note_off;64
191520;9;39;240;note_on;80
191520;4;72;0;note_on;80
191520;4;70;240;note_off;64
191760;0;55;0;note_on;80
191760;0;58;480;note_off;64
191760;0;51;0;note_on;80
191760;0;43;0;note_on;80
191760;0;58;0;note_on;80
191760;0;43;0;note_off;64
191760;4;72;240;note_off;64
191760;2;27;240;note_off;64
191760;4;73;0;note_on;80
191760;9;39;240;note_off;64
191760;0;55;0;note_off;64
191760;0;51;0;note_off;64
191760;2;27;0;note_on;80
191880;9;39;120;note_on;80
192000;2;34;0;note_on;80
192000;6;63;480;note_off;64
192000;0;51;0;note_off;64
192000;4;73;240;note_off;64
192000;9;39;0;note_on;80
192000;9;39;120;note_off;64
192000;0;58;240;note_off;64
192000;0;55;0;note_off;64
192000;0;43;0;note_off;64
192000;0;70;0;note_on;80
192000;2;27;240;note_off;64
192000;0;58;0;note_on;80
192000;0;46;0;note_on;80
192000;0;61;0;note_on;80
192000;4;70;0;note_on;80
192240;0;46;0;note_on;80
192240;0;58;0;note_on;80
192240;0;61;0;note_on;80
192240;0;70;0;note_on;80
192240;0;46;0;note_off;64
192240;0;58;0;note_off;64
192240;0;61;0;note_off;64
192240;0;70;240;note_off;64
192240;2;34;0;note_on;80
192240;9;39;240;note_off;64
192240;2;34;240;note_off;64
192240;4;70;240;note_off;64
192240;4;70;0;note_on;80
192480;2;34;0;note_on;80
192480;2;34;240;note_off;64
192480;9;39;240;note_on;80
192480;4;72;0;note_on;80
192480;4;70;240;note_off;64
192720;9;39;240;note_off;64
192720;0;46;0;note_off;64
192720;0;70;0;note_on;80
192720;0;61;0;note_on;80
192720;0;58;0;note_on;80
192720;0;46;0;note_on;80
192720;2;34;0;note_on;80
192720;0;70;480;note_off;64
192720;0;61;0;note_off;64
192720;4;73;0;note_on;80
192720;6;56;720;note_on;80
192720;4;72;240;note_off;64
192720;2;34;240;note_off;64
192720;0;58;0;note_off;64
192960;2;34;240;note_off;64
192960;2;34;0;note_on;80
192960;9;39;240;note_on;80
192960;0;70;0;note_on;80
192960;4;75;0;note_on;80
192960;0;46;0;note_on;80
192960;0;58;0;note_on;80
192960;0;61;0;note_on;80
192960;0;46;0;note_off;64
192960;0;58;0;note_off;64
192960;0;61;0;note_off;64
192960;0;70;240;note_off;64
192960;4;73;240;note_off;64
193200;0;70;0;note_on;80
193200;9;39;240;note_off;64
193200;0;46;0;note_on;80
193200;0;58;0;note_on;80
193200;0;61;0;note_on;80
193200;0;46;0;note_off;64
193200;0;58;0;note_off;64
193200;0;61;0;note_off;64
193200;0;70;240;note_off;64
193200;6;53;0;note_on;80
193200;4;75;240;note_off;64
193200;4;73;0;note_on;80
193200;2;34;240;note_off;64
193200;6;56;480;note_off;64
193200;2;34;0;note_on;80
193440;4;72;0;note_on;80
193440;4;73;240;note_off;64
193440;2;34;240;note_off;64
193440;2;34;0;note_on;80
193440;9;39;240;note_on;80
193680;0;46;0;note_off;64
193680;0;58;0;note_off;64
193680;0;61;0;note_off;64
193680;0;70;480;note_off;64
193680;0;61;0;note_on;80
193680;0;58;0;note_on;80
193680;0;46;0;note_on;80
193680;2;34;0;note_on;80
193680;2;34;240;note_off;64
193680;4;72;240;note_off;64
193680;4;70;0;note_on;80
193680;9;39;240;note_off;64
193680;0;70;0;note_on;80
193920;9;39;240;note_on;80
193920;0;46;0;note_off;64
193920;0;58;0;note_off;64
193920;0;61;0;note_off;64
193920;0;70;240;note_off;64
193920;0;60;0;note_on;80
193920;0;56;0;note_on;80
193920;0;51;0;note_on;80
193920;0;44;0;note_on;80
193920;4;70;240;note_off;64
193920;4;65;0;note_on;80
193920;2;32;0;note_on;80
193920;2;34;240;note_off;64
193920;6;53;720;note_off;64
193920;6;68;0;note_on;72
194160;6;68;240;note_off;64
194160;0;51;0;note_on;80
194160;0;56;0;note_on;80
194160;0;60;0;note_on;80
194160;0;44;0;note_off;64
194160;0;51;0;note_off;64
194160;0;56;0;note_off;64
194160;0;60;240;note_off;64
194160;4;65;240;note_off;64
194160;6;68;0;note_on;72
194160;9;39;240;note_off;64
194160;0;44;0;note_on;80
194160;4;70;0;note_on;80
194160;2;32;240;note_off;64
194160;2;32;0;note_on;80
194400;6;66;0;note_on;72
194400;2;32;0;note_on;80
194400;6;68;240;note_off;64
194400;2;32;240;note_off;64
194400;4;70;240;note_off;64
194400;9;39;240;note_on;80
194400;4;72;0;note_on;80
194640;0;60;0;note_on;80
194640;0;44;0;note_on;80
194640;0;51;0;note_on;80
194640;0;56;0;note_on;80
194640;0;44;0;note_off;64
194640;0;51;0;note_off;64
194640;0;56;0;note_off;64
194640;0;60;480;note_off;64
194640;9;39;240;note_off;64
194640;6;66;0;note_on;72
194640;4;73;0;note_on;80
194640;4;72;240;note_off;64
194640;6;66;240;note_off;64
194640;2;32;0;note_on;80
194640;2;32;240;note_off;64
194880;0;51;0;note_off;64
194880;0;44;0;note_off;64
194880;0;58;0;note_on;80
194880;0;55;0;note_on;80
194880;0;51;0;note_on;80
194880;0;43;0;note_on;80
194880;9;39;240;note_on;80
194880;0;56;0;note_off;64
194880;6;65;0;note_on;72
194880;6;66;240;note_off;64
194880;0;60;240;note_off;64
194880;2;32;240;note_off;64
194880;2;27;0;note_on;80
194880;4;73;240;note_off;64
194880;4;65;0;note_on;80
195120;4;65;240;note_off;64
195120;4;70;0;note_on;80
195120;0;58;240;note_off;64
195120;0;55;0;note_off;64
195120;0;43;0;note_on;80
195120;0;51;0;note_on;80
195120;0;51;0;note_off;64
195120;2;27;240;note_off;64
195120;0;43;0;note_off;64
195120;0;58;0;note_on;80
195120;0;55;0;note_on;80
195120;2;27;0;note_on;80
195120;9;39;240;note_off;64
195360;2;27;240;note_off;64
195360;4;72;0;note_on;80
195360;9;39;240;note_on;80
195360;4;70;240;note_off;64
195360;6;65;480;note_off;64
195360;2;27;0;note_on;80
195360;6;65;0;note_on;72
195600;0;55;0;note_off;64
195600;0;58;480;note_off;64
195600;0;51;0;note_on;80
195600;0;51;0;note_off;64
195600;4;72;240;note_off;64
195600;4;73;0;note_on;80
195600;0;43;0;note_on;80
195600;9;39;240;note_off;64
195600;0;55;0;note_on;80
195600;0;43;0;note_off;64
195600;2;27;240;note_off;64
195600;2;27;0;note_on;80
195600;0;58;0;note_on;80
195720;9;39;120;note_on;80
195840;0;46;0;note_on;80
195840;0;58;240;note_off;64
195840;0;55;0;note_off;64
195840;0;51;0;note_off;64
195840;0;43;0;note_off;64
195840;0;70;0;note_on;80
195840;0;61;0;note_on;80
195840;0;58;0;note_on;80
195840;9;39;120;note_off;64
195840;9;39;0;note_on;80
195840;6;65;480;note_off;64
195840;4;70;0;note_on;80
195840;4;73;240;note_off;64
195840;2;27;240;note_off;64
195840;2;34;0;note_on;80
196080;0;46;0;note_off;64
196080;4;70;0;note_on;80
196080;4;70;240;note_off;64
196080;2;34;240;note_off;64
196080;2;34;0;note_on;80
196080;0;70;240;note_off;64
196080;0;61;0;note_off;64
196080;9;39;240;note_off;64
196080;0;70;0;note_on;80
196080;0;58;0;note_off;64
196080;0;58;0;note_on;80
196080;0;46;0;note_on;80
196080;0;61;0;note_on;80
196320;2;34;0;note_on;80
196320;2;34;240;note_off;64
196320;4;70;240;note_off;64
196320;4;72;0;note_on;80
196320;9;39;240;note_on;80
196560;0;70;480;note_off;64
196560;2;34;0;note_on;80
196560;2;34;240;note_off;64
196560;4;72;240;note_off;64
196560;6;53;720;note_on;80
196560;4;73;0;note_on;80
196560;0;46;0;note_on;80
196560;0;58;0;note_on;80
196560;0;61;0;note_on;80
196560;0;70;0;note_on;80
196560;0;46;0;note_off;64
196560;0;58;0;note_off;64
196560;0;61;0;note_off;64
196560;9;39;240;note_off;64
196800;2;34;0;note_on;80
196800;4;75;0;note_on;80
196800;2;34;240;note_off;64
196800;9;39;240;note_on;80
196800;4;73;240;note_off;64
196800;0;46;0;note_on;80
196800;0;70;240;note_off;64
196800;0;61;0;note_off;64
196800;0;58;0;note_off;64
196800;0;46;0;note_off;64
196800;0;70;0;note_on;80
196800;0;61;0;note_on;80
196800;0;58;0;note_on;80
197040;9;39;240;note_off;64
197040;6;53;480;note_off;64
197040;6;51;0;note_on;80
197040;0;46;0;note_on;80
197040;0;58;0;note_on;80
197040;0;61;0;note_off;64
197040;0;58;0;note_off;64
197040;0;46;0;note_off;64
197040;0;70;0;note_on;80
197040;0;61;0;note_on;80
197040;2;34;240;note_off;64
197040;2;34;0;note_on;80
197040;4;75;240;note_off;64
197040;4;73;0;note_on;80
197040;0;70;240;note_off;64
197280;4;73;240;note_off;64
197280;4;72;0;note_on;80
197280;2;34;0;note_on;80
197280;2;34;240;note_off;64
197280;9;39;240;note_on;80
197520;4;72;240;note_off;64
197520;2;34;240;note_off;64
197520;2;34;0;note_on;80
197520;4;70;0;note_on;80
197520;9;39;240;note_off;64
197520;0;58;0;note_off;64
197520;0;58;0;note_on;80
197520;0;61;0;note_off;64
197520;0;46;0;note_on;80
197520;0;70;0;note_on;80
197520;0;61;0;note_on;80
197520;0;46;0;note_off;64
197520;0;70;480;note_off;64
197760;2;34;240;note_off;64
197760;9;39;240;note_on;80
197760;0;70;240;note_off;64
197760;2;32;0;note_on;80
197760;0;44;0;note_on;80
197760;4;70;240;note_off;64
197760;0;51;0;note_on;80
197760;0;46;0;note_off;64
197760;0;60;0;note_on;80
197760;6;51;720;note_off;64
197760;6;65;0;note_on;72
197760;0;61;0;note_off;64
197760;0;58;0;note_off;64
197760;0;56;0;note_on;80
197760;4;65;0;note_on;80
198000;6;65;0;note_on;72
198000;6;65;240;note_off;64
198000;0;60;240;note_off;64
198000;0;56;0;note_off;64
198000;0;51;0;note_off;64
198000;0;60;0;note_on;80
198000;9;39;240;note_off;64
198000;0;44;0;note_off;64
198000;4;70;0;note_on;80
198000;2;32;0;note_on;80
198000;2;32;240;note_off;64
198000;0;44;0;note_on;80
198000;0;51;0;note_on;80
198000;4;65;240;note_off;64
198000;0;56;0;note_on;80
198240;4;70;240;note_off;64
198240;4;72;0;note_on;80
198240;2;32;240;note_off;64
198240;6;65;240;note_off;64
198240;6;65;0;note_on;72
198240;2;32;0;note_on;80
198240;9;39;240;note_on;80
198480;0;44;0;note_off;64
198480;6;65;240;note_off;64
198480;2;32;0;note_on;80
198480;2;32;240;note_off;64
198480;4;73;0;note_on;80
198480;4;72;240;note_off;64
198480;6;66;0;note_on;72
198480;0;60;480;note_off;64
198480;0;56;0;note_off;64
198480;0;60;0;note_on;80
198480;0;56;0;note_on;80
198480;0;51;0;note_on;80
198480;0;44;0;note_on;80
198480;9;39;240;note_off;64
198480;0;51;0;note_off;64
198720;2;32;240;note_off;64
198720;2;27;0;note_on;80
198720;9;39;240;note_on;80
198720;0;51;0;note_on;80
198720;0;60;240;note_off;64
198720;6;65;0;note_on;72
198720;4;73;240;note_off;64
198720;0;56;0;note_off;64
198720;0;51;0;note_off;64
198720;0;44;0;note_off;64
198720;0;58;0;note_on;80
198720;0;55;0;note_on;80
198720;4;65;0;note_on;80
198720;0;43;0;note_on;80
198720;6;66;240;note_off;64
198960;0;51;0;note_on;80
198960;0;58;240;note_off;64
198960;0;55;0;note_off;64
198960;0;43;0;note_on;80
198960;0;58;0;note_on;80
198960;0;55;0;note_on;80
198960;9;39;240;note_off;64
198960;4;65;240;note_off;64
198960;4;70;0;note_on;80
198960;2;27;240;note_off;64
198960;2;27;0;note_on;80
198960;0;43;0;note_off;64
198960;0;51;0;note_off;64
199200;4;70;240;note_off;64
199200;4;72;0;note_on;80
199200;2;27;240;note_off;64
199200;2;27;0;note_on;80
199200;6;63;0;note_on;72
199200;6;65;480;note_off;64
199200;9;39;240;note_on;80
199440;0;51;0;note_on;80
199440;2;27;0;note_on;80
199440;2;27;240;note_off;64
199440;0;58;480;note_off;64
199440;0;55;0;note_off;64
199440;0;51;0;note_off;64
199440;0;43;0;note_off;64
199440;4;72;240;note_off;64
199440;0;58;0;note_on;80
199440;9;39;240;note_off;64
199440;0;43;0;note_on;80
199440;0;55;0;note_on;80
199440;4;73;0;note_on;80
199560;9;39;120;note_on;80
199680;2;27;240;note_off;64
199680;2;34;0;note_on;80
199680;0;51;0;note_off;64
199680;4;73;240;note_off;64
199680;0;55;0;note_off;64
199680;0;43;0;note_off;64
199680;0;70;0;note_on;80
199680;0;61;0;note_on;80
199680;0;58;0;note_on;80
199680;0;46;0;note_on;80
199680;9;39;0;note_on;80
199680;9;39;120;note_off;64
199680;6;63;480;note_off;64
199680;0;58;240;note_off;64
199680;4;70;0;note_on;80
199920;2;34;0;note_on;80
199920;2;34;240;note_off;64
199920;4;70;0;note_on;80
199920;4;70;240;note_off;64
199920;0;46;0;note_on;80
199920;0;58;0;note_on;80
199920;0;61;0;note_on;80
199920;0;70;0;note_on;80
199920;0;46;0;note_off;64
199920;0;58;0;note_off;64
199920;0;61;0;note_off;64
199920;0;70;240;note_off;64
199920;9;39;240;note_off;64
200160;4;70;240;note_off;64
200160;2;34;240;note_off;64
200160;2;34;0;note_on;80
200160;9;39;240;note_on;80
200160;4;72;0;note_on;80
200400;9;39;240;note_off;64
200400;0;70;480;note_off;64
200400;0;61;0;note_off;64
200400;0;58;0;note_off;64
200400;0;46;0;note_off;64
200400;0;70;0;note_on;80
200400;0;61;0;note_on;80
200400;0;58;0;note_on;80
200400;4;72;240;note_off;64
200400;4;73;0;note_on;80
200400;6;58;720;note_on;80
200400;2;34;240;note_off;64
200400;2;34;0;note_on;80
200400;0;46;0;note_on;80
200640;4;75;0;note_on;80
200640;0;70;240;note_off;64
200640;0;61;0;note_off;64
200640;0;58;0;note_off;64
200640;2;34;240;note_off;64
200640;2;34;0;note_on;80
200640;4;73;240;note_off;64
200640;0;70;0;note_on;80
200640;0;61;0;note_on;80
200640;0;58;0;note_on;80
200640;0;46;0;note_on;80
200640;9;39;240;note_on;80
200640;0;46;0;note_off;64
200880;9;39;240;note_off;64
200880;2;34;0;note_on;80
200880;2;34;240;note_off;64
200880;0;70;240;note_off;64
200880;4;75;240;note_off;64
200880;0;58;0;note_off;64
200880;0;46;0;note_off;64
200880;0;61;0;note_off;64
200880;0;61;0;note_on;80
200880;0;58;0;note_on;80
200880;0;46;0;note_on;80
200880;6;58;480;note_off;64
200880;6;56;0;note_on;80
200880;0;70;0;note_on;80
200880;4;73;0;note_on;80
201120;4;72;0;note_on;80
201120;9;39;240;note_on;80
201120;4;73;240;note_off;64
201120;2;34;240;note_off;64
201120;2;34;0;note_on;80
201360;0;61;0;note_off;64
201360;2;34;240;note_off;64
201360;9;39;240;note_off;64
201360;2;34;0;note_on;80
201360;4;72;240;note_off;64
201360;4;70;0;note_on;80
201360;0;58;0;note_off;64
201360;0;70;480;note_off;64
201360;0;46;0;note_off;64
201360;0;70;0;note_on;80
201360;0;46;0;note_on;80
201360;0;61;0;note_on;80
201360;0;58;0;note_on;80
201600;4;65;0;note_on;80
201600;9;39;240;note_on;80
201600;0;51;0;note_on;80
201600;0;46;0;note_off;64
201600;4;70;240;note_off;64
201600;0;58;0;note_off;64
201600;0;61;0;note_off;64
201600;6;56;720;note_off;64
201600;0;70;240;note_off;64
201600;0;56;0;note_on;80
201600;0;44;0;note_on;80
201600;6;68;0;note_on;72
201600;0;60;0;note_on;80
201600;2;34;240;note_off;64
201600;2;32;0;note_on;80
201840;0;44;0;note_off;64
201840;6;68;0;note_on;72
201840;9;39;240;note_off;64
201840;0;60;240;note_off;64
201840;0;56;0;note_off;64
201840;0;51;0;note_off;64
201840;2;32;0;note_on;80
201840;6;68;240;note_off;64
201840;2;32;240;note_off;64
201840;4;70;0;note_on;80
201840;0;44;0;note_on;80
201840;0;51;0;note_on;80
201840;0;56;0;note_on;80
201840;4;65;240;note_off;64
201840;0;60;0;note_on;80
202080;2;32;240;note_off;64
202080;2;32;0;note_on;80
202080;4;70;240;note_off;64
202080;4;72;0;note_on;80
202080;9;39;240;note_on;80
202080;6;66;0;note_on;72
202080;6;68;240;note_off;64
202320;0;51;0;note_off;64
202320;2;32;0;note_on;80
202320;0;44;0;note_on;80
202320;0;51;0;note_on;80
202320;6;66;0;note_on;72
202320;6;66;240;note_off;64
202320;0;56;0;note_on;80
202320;2;32;240;note_off;64
202320;9;39;240;note_off;64
202320;0;60;0;note_on;80
202320;0;56;0;note_off;64
202320;0;60;480;note_off;64
202320;4;72;240;note_off;64
202320;4;73;0;note_on;80
202320;0;44;0;note_off;64
202560;2;32;240;note_off;64
202560;6;65;0;note_on;72
202560;6;66;240;note_off;64
202560;2;27;0;note_on;80
202560;0;51;0;note_off;64
202560;4;65;0;note_on;80
202560;0;43;0;note_on;80
202560;0;56;0;note_off;64
202560;0;60;240;note_off;64
202560;0;51;0;note_on;80
202560;4;73;240;note_off;64
202560;9;39;240;note_on;80
202560;0;55;0;note_on;80
202560;0;58;0;note_on;80
202560;0;44;0;note_off;64
202800;0;43;0;note_on;80
202800;2;27;240;note_off;64
202800;0;55;0;note_on;80
202800;0;43;0;note_off;64
202800;0;51;0;note_off;64
202800;0;55;0;note_off;64
202800;0;58;240;note_off;64
202800;0;51;0;note_on;80
202800;0;58;0;note_on;80
202800;2;27;0;note_on;80
202800;4;70;0;note_on;80
202800;4;65;240;note_off;64
202800;9;39;240;note_off;64
203040;6;65;480;note_off;64
203040;2;27;0;note_on;80
203040;2;27;240;note_off;64
203040;9;39;240;note_on;80
203040;6;65;0;note_on;72
203040;4;70;240;note_off;64
203040;4;72;0;note_on;80
203280;2;27;0;note_on;80
203280;0;58;480;note_off;64
203280;0;55;0;note_off;64
203280;0;51;0;note_off;64
203280;0;43;0;note_off;64
203280;0;58;0;note_on;80
203280;0;55;0;note_on;80
203280;0;51;0;note_on;80
203280;0;43;0;note_on;80
203280;2;27;240;note_off;64
203280;4;73;0;note_on;80
203280;4;72;240;note_off;64
203280;9;39;240;note_off;64
203400;9;39;120;note_on;80
203520;6;65;480;note_off;64
203520;9;39;0;note_on;80
203520;0;46;0;note_on;80
203520;0;61;0;note_on;80
203520;0;58;240;note_off;64
203520;0;55;0;note_off;64
203520;0;58;0;note_on;80
203520;2;34;0;note_on;80
203520;2;27;240;note_off;64
203520;0;70;0;note_on;80
203520;0;43;0;note_off;64
203520;4;70;0;note_on;80
203520;4;73;240;note_off;64
203520;9;39;120;note_off;64
203520;0;51;0;note_off;64
203760;0;46;0;note_on;80
203760;0;58;0;note_on;80
203760;0;61;0;note_on;80
203760;0;70;0;note_on;80
203760;0;46;0;note_off;64
203760;4;70;240;note_off;64
203760;0;58;0;note_off;64
203760;4;70;0;note_on;80
203760;0;70;240;note_off;64
203760;2;34;240;note_off;64
203760;9;39;240;note_off;64
203760;0;61;0;note_off;64
203760;2;34;0;note_on;80
204000;4;70;240;note_off;64
204000;9;39;240;note_on;80
204000;4;72;0;note_on;80
204000;2;34;240;note_off;64
204000;2;34;0;note_on;80
204240;0;58;0;note_on;80
204240;0;61;0;note_on;80
204240;0;70;0;note_on;80
204240;0;46;0;note_off;64
204240;0;58;0;note_off;64
204240;0;61;0;note_off;64
204240;0;70;480;note_off;64
204240;2;34;240;note_off;64
204240;2;34;0;note_on;80
204240;4;73;0;note_on;80
204240;4;72;240;note_off;64
204240;6;58;720;note_on;80
204240;9;39;240;note_off;64
204240;0;46;0;note_on;80
204480;0;70;240;note_off;64
204480;0;61;0;note_off;64
204480;0;58;0;note_off;64
204480;0;46;0;note_on;80
204480;0;58;0;note_on;80
204480;0;61;0;note_on;80
204480;0;46;0;note_off;64
204480;2;34;240;note_off;64
204480;2;34;0;note_on;80
204480;4;75;0;note_on;80
204480;4;73;240;note_off;64
204480;9;39;240;note_on;80
204480;0;70;0;note_on;80
204720;0;70;0;note_on;80
204720;6;56;0;note_on;80
204720;0;61;0;note_off;64
204720;0;58;0;note_off;64
204720;0;46;0;note_off;64
204720;0;61;0;note_on;80
204720;0;58;0;note_on;80
204720;0;46;0;note_on;80
204720;4;75;240;note_off;64
204720;4;73;0;note_on;80
204720;0;70;240;note_off;64
204720;9;39;240;note_off;64
204720;2;34;240;note_off;64
204720;2;34;0;note_on;80
204720;6;58;480;note_off;64
204960;4;73;240;note_off;64
204960;2;34;240;note_off;64
204960;4;72;0;note_on;80
204960;2;34;0;note_on;80
204960;9;39;240;note_on;80
205200;2;34;240;note_off;64
205200;0;61;0;note_off;64
205200;2;34;0;note_on;80
205200;4;72;240;note_off;64
205200;4;70;0;note_on;80
205200;9;39;240;note_off;64
205200;0;46;0;note_on;80
205200;0;70;480;note_off;64
205200;0;61;0;note_on;80
205200;0;70;0;note_on;80
205200;0;46;0;note_off;64
205200;0;58;0;note_off;64
205200;0;58;0;note_on;80
205440;6;65;0;note_on;72
205440;2;34;240;note_off;64
205440;9;39;240;note_on;80
205440;4;65;0;note_on;80
205440;4;70;240;note_off;64
205440;6;56;720;note_off;64
205440;2;32;0;note_on;80
205440;0;70;240;note_off;64
205440;0;61;0;note_off;64
205440;0;58;0;note_off;64
205440;0;46;0;note_off;64
205440;0;44;0;note_on;80
205440;0;51;0;note_on;80
205440;0;56;0;note_on;80
205440;0;60;0;note_on;80
205680;0;60;0;note_on;80
205680;6;65;0;note_on;72
205680;6;65;240;note_off;64
205680;9;39;240;note_off;64
205680;4;70;0;note_on;80
205680;4;65;240;note_off;64
205680;0;60;240;note_off;64
205680;0;56;0;note_off;64
205680;2;32;240;note_off;64
205680;2;32;0;note_on;80
205680;0;44;0;note_on;80
205680;0;51;0;note_off;64
205680;0;56;0;note_on;80
205680;0;44;0;note_off;64
205680;0;51;0;note_on;80
205920;2;32;240;note_off;64
205920;2;32;0;note_on;80
205920;6;65;0;note_on;72
205920;4;72;0;note_on;80
205920;9;39;240;note_on;80
205920;6;65;240;note_off;64
205920;4;70;240;note_off;64
206160;9;39;240;note_off;64
206160;2;32;240;note_off;64
206160;0;56;0;note_on;80
206160;0;56;0;note_off;64
206160;6;66;0;note_on;72
206160;6;65;240;note_off;64
206160;0;60;480;note_off;64
206160;4;72;240;note_off;64
206160;0;44;0;note_on;80
206160;4;73;0;note_on;80
206160;0;51;0;note_off;64
206160;0;44;0;note_off;64
206160;0;51;0;note_on;80
206160;0;60;0;note_on;80
206160;2;32;0;note_on;80
206400;0;60;240;note_off;64
206400;9;39;240;note_on;80
206400;2;32;240;note_off;64
206400;2;27;0;note_on;80
206400;6;65;0;note_on;72
206400;6;66;240;note_off;64
206400;4;65;0;note_on;80
206400;4;73;240;note_off;64
206400;0;58;0;note_on;80
206400;0;55;0;note_on;80
206400;0;43;0;note_on;80
206400;0;44;0;note_off;64
206400;0;51;0;note_off;64
206400;0;51;0;note_on;80
206400;0;56;0;note_off;64
206640;0;58;240;note_off;64
206640;2;27;240;note_off;64
206640;0;51;0;note_on;80
206640;4;70;0;note_on;80
206640;0;43;0;note_on;80
206640;0;55;0;note_off;64
206640;0;51;0;note_off;64
206640;0;43;0;note_off;64
206640;0;58;0;note_on;80
206640;0;55;0;note_on;80
206640;2;27;0;note_on;80
206640;9;39;240;note_off;64
206640;4;65;240;note_off;64
206880;6;63;0;note_on;72
206880;9;39;240;note_on;80
206880;2;27;0;note_on;80
206880;4;72;0;note_on;80
206880;4;70;240;note_off;64
206880;2;27;240;note_off;64
206880;6;65;480;note_off;64
207120;4;73;0;note_on;80
207120;2;27;0;note_on;80
207120;2;27;240;note_off;64
207120;4;72;240;note_off;64
207120;9;39;240;note_off;64
207120;0;58;480;note_off;64
207120;0;55;0;note_off;64
207120;0;51;0;note_off;64
207120;0;43;0;note_off;64
207120;0;58;0;note_on;80
207120;0;55;0;note_on;80
207120;0;51;0;note_on;80
207120;0;43;0;note_on;80
207240;9;39;120;note_on;80
207360;2;34;0;note_on;80
207360;2;27;240;note_off;64
207360;6;63;480;note_off;64
207360;9;39;0;note_on;80
207360;9;39;120;note_off;64
207360;0;46;0;note_on;80
207360;0;58;0;note_on;80
207360;0;43;0;note_off;64
207360;0;70;0;note_on;80
207360;4;70;0;note_on;80
207360;0;51;0;note_off;64
207360;0;55;0;note_off;64
207360;0;58;240;note_off;64
207360;0;61;0;note_on;80
207360;4;73;240;note_off;64
207600;2;34;240;note_off;64
207600;9;39;240;note_off;64
207600;2;34;0;note_on;80
207600;4;70;240;note_off;64
207600;4;70;0;note_on;80
207600;0;46;0;note_on;80
207600;0;58;0;note_off;64
207600;0;46;0;note_off;64
207600;0;70;0;note_on;80
207600;0;58;0;note_on;80
207600;0;61;0;note_off;64
207600;0;70;240;note_off;64
207600;0;61;0;note_on;80
207840;4;72;0;note_on;80
207840;4;70;240;note_off;64
207840;2;34;240;note_off;64
207840;2;34;0;note_on;80
207840;9;39;240;note_on;80
208080;0;58;0;note_off;64
208080;6;58;720;note_on;80
208080;4;73;0;note_on;80
208080;0;70;480;note_off;64
208080;0;61;0;note_off;64
208080;2;34;240;note_off;64
208080;2;34;0;note_on;80
208080;9;39;240;note_off;64
208080;4;72;240;note_off;64
208080;0;46;0;note_off;64
208080;0;46;0;note_on;80
208080;0;58;0;note_on;80
208080;0;61;0;note_on;80
208080;0;70;0;note_on;80
208320;0;70;0;note_on;80
208320;0;70;240;note_off;64
208320;0;58;0;note_off;64
208320;0;46;0;note_off;64
208320;4;75;0;note_on;80
208320;4;73;240;note_off;64
208320;9;39;240;note_on;80
208320;0;61;0;note_on;80
208320;0;58;0;note_on;80
208320;0;46;0;note_on;80
208320;0;61;0;note_off;64
208320;2;34;0;note_on;80
208320;2;34;240;note_off;64
208560;0;70;240;note_off;64
208560;9;39;240;note_off;64
208560;6;56;0;note_on;80
208560;6;58;480;note_off;64
208560;2;34;240;note_off;64
208560;4;73;0;note_on;80
208560;0;46;0;note_on;80
208560;0;58;0;note_on;80
208560;0;61;0;note_on;80
208560;0;70;0;note_on;80
208560;0;46;0;note_off;64
208560;0;58;0;note_off;64
208560;0;61;0;note_off;64
208560;4;75;240;note_off;64
208560;2;34;0;note_on;80
208800;4;73;240;note_off;64
208800;4;72;0;note_on;80
208800;2;34;240;note_off;64
208800;2;34;0;note_on;80
208800;9;39;240;note_on;80
209040;2;34;0;note_on;80
209040;2;34;240;note_off;64
209040;0;58;0;note_off;64
209040;9;39;240;note_off;64
209040;4;70;0;note_on;80
209040;0;61;0;note_off;64
209040;0;70;480;note_off;64
209040;0;46;0;note_on;80
209040;0;58;0;note_on;80
209040;0;61;0;note_on;80
209040;0;70;0;note_on;80
209040;0;46;0;note_off;64
209040;4;72;240;note_off;64
209280;0;44;0;note_on;80
209280;6;56;720;note_off;64
209280;0;51;0;note_on;80
209280;4;65;0;note_on;80
209280;2;32;0;note_on;80
209280;0;70;240;note_off;64
209280;0;61;0;note_off;64
209280;0;58;0;note_off;64
209280;0;46;0;note_off;64
209280;0;60;0;note_on;80
209280;0;56;0;note_on;80
209280;4;70;240;note_off;64
209280;2;34;240;note_off;64
209280;9;39;240;note_on;80
209280;6;68;0;note_on;72
209520;0;56;0;note_off;64
209520;2;32;240;note_off;64
209520;2;32;0;note_on;80
209520;6;68;240;note_off;64
209520;6;68;0;note_on;72
209520;0;60;240;note_off;64
209520;4;70;0;note_on;80
209520;4;65;240;note_off;64
209520;0;44;0;note_on;80
209520;0;51;0;note_on;80
209520;9;39;240;note_off;64
209520;0;60;0;note_on;80
209520;0;44;0;note_off;64
209520;0;51;0;note_off;64
209520;0;56;0;note_on;80
209760;6;66;0;note_on;72
209760;6;68;240;note_off;64
209760;9;39;240;note_on;80
209760;4;72;0;note_on;80
209760;4;70;240;note_off;64
209760;2;32;0;note_on;80
209760;2;32;240;note_off;64
210000;2;32;0;note_on;80
210000;6;66;240;note_off;64
210000;2;32;240;note_off;64
210000;0;60;480;note_off;64
210000;0;56;0;note_off;64
210000;0;51;0;note_off;64
210000;6;66;0;note_on;72
210000;0;44;0;note_off;64
210000;0;56;0;note_on;80
210000;0;51;0;note_on;80
210000;0;44;0;note_on;80
210000;4;73;0;note_on;80
210000;4;72;240;note_off;64
210000;9;39;240;note_off;64
210000;0;60;0;note_on;80
210240;9;39;240;note_on;80
210240;4;73;240;note_off;64
210240;4;65;0;note_on;80
210240;2;27;0;note_on;80
210240;0;55;0;note_on;80
210240;6;66;240;note_off;64
210240;2;32;240;note_off;64
210240;0;58;0;note_on;80
210240;0;60;240;note_off;64
210240;0;51;0;note_off;64
210240;0;44;0;note_off;64
210240;0;43;0;note_on;80
210240;0;51;0;note_on;80
210240;6;65;0;note_on;72
210240;0;56;0;note_off;64
210480;0;43;0;note_on;80
210480;0;51;0;note_on;80
210480;2;27;0;note_on;80
210480;0;55;0;note_on;80
210480;4;65;240;note_off;64
210480;4;70;0;note_on;80
210480;2;27;240;note_off;64
210480;0;58;240;note_off;64
210480;0;55;0;note_off;64
210480;0;51;0;note_off;64
210480;0;43;0;note_off;64
210480;0;58;0;note_on;80
210480;9;39;240;note_off;64
210720;4;70;240;note_off;64
210720;4;72;0;note_on;80
210720;2;27;240;note_off;64
210720;2;27;0;note_on;80
210720;9;39;240;note_on;80
210720;6;65;0;note_on;72
210720;6;65;480;note_off;64
210960;0;55;0;note_off;64
210960;0;43;0;note_off;64
210960;2;27;240;note_off;64
210960;2;27;0;note_on;80
210960;4;72;240;note_off;64
210960;0;58;480;note_off;64
210960;0;51;0;note_off;64
210960;4;73;0;note_on;80
210960;0;58;0;note_on;80
210960;0;55;0;note_on;80
210960;0;51;0;note_on;80
210960;0;43;0;note_on;80
210960;9;39;240;note_off;64
211080;9;39;120;note_on;80
211200;9;39;0;note_on;80
211200;0;58;240;note_off;64
211200;2;34;0;note_on;80
211200;2;27;240;note_off;64
211200;9;39;120;note_off;64
211200;4;70;0;note_on;80
211200;0;55;0;note_off;64
211200;0;51;0;note_off;64
211200;6;65;480;note_off;64
211200;0;43;0;note_off;64
211200;0;70;0;note_on;80
211200;0;61;0;note_on;80
211200;0;58;0;note_on;80
211200;0;46;0;note_on;80
211200;4;73;240;note_off;64
211440;4;70;240;note_off;64
211440;2;34;240;note_off;64
211440;2;34;0;note_on;80
211440;0;70;240;note_off;64
211440;0;61;0;note_off;64
211440;0;58;0;note_off;64
211440;9;39;240;note_off;64
211440;0;70;0;note_on;80
211440;0;61;0;note_on;80
211440;0;58;0;note_on;80
211440;0;46;0;note_on;80
211440;4;70;0;note_on;80
211440;0;46;0;note_off;64
211680;2;34;0;note_on;80
211680;2;34;240;note_off;64
211680;9;39;240;note_on;80
211680;4;72;0;note_on;80
211680;4;70;240;note_off;64
211920;9;39;240;note_off;64
211920;4;73;0;note_on;80
211920;4;72;240;note_off;64
211920;2;34;0;note_on;80
211920;6;58;720;note_on;80
211920;0;70;480;note_off;64
211920;0;61;0;note_off;64
211920;0;58;0;note_off;64
211920;0;46;0;note_off;64
211920;0;70;0;note_on;80
211920;0;61;0;note_on;80
211920;0;58;0;note_on;80
211920;0;46;0;note_on;80
211920;2;34;240;note_off;64
212160;0;70;240;note_off;64
212160;0;61;0;note_off;64
212160;0;58;0;note_off;64
212160;2;34;240;note_off;64
212160;0;61;0;note_on;80
212160;4;73;240;note_off;64
212160;4;75;0;note_on;80
212160;9;39;240;note_on;80
212160;0;58;0;note_on;80
212160;0;46;0;note_on;80
212160;2;34;0;note_on;80
212160;0;70;0;note_on;80
212160;0;46;0;note_off;64
212400;9;39;240;note_off;64
212400;2;34;0;note_on;80
212400;2;34;240;note_off;64
212400;6;58;480;note_off;64
212400;0;61;0;note_off;64
212400;6;56;0;note_on;80
212400;0;70;0;note_on;80
212400;0;61;0;note_on;80
212400;0;58;0;note_on;80
212400;0;46;0;note_on;80
212400;0;58;0;note_off;64
212400;0;46;0;note_off;64
212400;4;75;240;note_off;64
212400;4;73;0;note_on;80
212400;0;70;240;note_off;64
212640;4;73;240;note_off;64
212640;4;72;0;note_on;80
212640;9;39;240;note_on;80
212640;2;34;240;note_off;64
212640;2;34;0;note_on;80
212880;9;42;0;note_on;80
212880;4;72;240;note_off;64
212880;4;70;0;note_on;80
212880;9;35;0;note_on;80
212880;2;34;240;note_off;64
212880;0;70;480;note_off;64
212880;0;61;0;note_off;64
212880;0;58;0;note_off;64
212880;0;46;0;note_off;64
212880;0;70;0;note_on;80
212880;0;61;0;note_on;80
212880;0;58;0;note_on;80
212880;0;46;0;note_on;80
212880;9;39;240;note_off;64
212880;2;34;0;note_on;80
213120;4;70;240;note_off;64
213120;6;56;720;note_off;64
213120;0;58;0;note_off;64
213120;0;46;0;note_off;64
213120;2;34;240;note_off;64
213120;0;70;240;note_off;64
213120;0;61;0;note_off;64
213120;6;65;0;note_on;72
213360;6;65;240;note_off;64
213360;6;65;0;note_on;72
213360;9;35;0;note_off;64
213360;9;42;480;note_off;64
213360;9;38;0;note_on;80
213600;6;65;240;note_off;64
213600;6;65;0;note_on;72
213840;9;38;480;note_off;64
213840;9;42;0;note_on;80
213840;9;35;0;note_on;80
213840;6;65;240;note_off;64
213840;6;66;0;note_on;72
214080;6;66;240;note_off;64
214080;6;65;0;note_on;72
214320;9;42;480;note_off;64
214320;9;35;0;note_off;64
214320;9;38;0;note_on;80
214560;6;63;0;note_on;72
214560;6;65;480;note_off;64
214800;9;42;0;note_on;80
214800;9;38;480;note_off;64
214800;9;35;0;note_on;80
215040;6;63;480;note_off;64
215280;9;42;480;note_off;64
215280;9;35;0;note_off;64
215280;9;38;0;note_on;80
215760;9;35;0;note_on;80
215760;9;38;480;note_off;64
215760;9;42;0;note_on;80
216240;9;38;0;note_on;80
216240;9;42;480;note_off;64
216240;9;35;0;note_off;64
216600;9;38;360;note_off;64
216600;9;38;0;note_on;80
216720;9;38;120;note_off;64
216720;9;42;0;note_on;80
216720;9;35;0;note_on;80
217200;9;35;0;note_off;64
217200;9;38;0;note_on;80
217200;9;42;480;note_off;64
217680;9;38;480;note_off;64
217680;9;42;0;note_on;80
217680;9;35;0;note_on;80
218160;9;38;0;note_on;80
218160;9;42;480;note_off;64
218160;9;35;0;note_off;64
218640;9;35;0;note_on;80
218640;9;38;480;note_off;64
218640;9;42;0;note_on;80
219120;9;42;480;note_off;64
219120;9;35;0;note_off;64
219120;9;38;0;note_on;80
219600;9;38;480;note_off;64
219600;9;42;0;note_on;80
219600;9;35;0;note_on;80
220080;9;42;480;note_off;64
220080;9;35;0;note_off;64
220080;9;38;0;note_on;80
220440;9;38;0;note_on;80
220440;9;38;360;note_off;64
220560;9;38;120;note_off;64
220560;9;42;0;note_on;80
220560;9;35;0;note_on;80
221040;9;42;480;note_off;64
221040;9;35;0;note_off;64
221040;9;38;0;note_on;80
221520;9;38;480;note_off;64
221520;9;42;0;note_on;80
221520;9;35;0;note_on;80
222000;9;38;0;note_on;80
222000;9;35;0;note_off;64
222000;9;42;480;note_off;64
222480;9;35;0;note_on;80
222480;9;38;480;note_off;64
222480;9;42;0;note_on;80
222960;9;38;0;note_on;80
222960;9;42;480;note_off;64
222960;9;35;0;note_off;64
223440;9;38;480;note_off;64
223440;9;42;0;note_on;80
223440;9;35;0;note_on;80
223920;9;42;480;note_off;64
223920;9;35;0;note_off;64
223920;9;38;0;note_on;80
224280;9;38;0;note_on;80
224280;9;38;360;note_off;64
224400;9;38;120;note_off;64
224880;9;38;480;note_on;80
225360;9;38;480;note_off;64
225840;9;38;480;note_on;80
226320;9;38;480;note_off;64
226800;9;38;480;note_on;80
227280;9;38;480;note_off;64
227760;9;38;480;note_on;80
228000;9;38;240;note_off;64
228120;9;38;120;note_on;80
228240;9;42;0;note_on;80
228240;9;35;0;note_on;80
228240;9;38;120;note_off;64
228720;9;42;480;note_off;64
228720;9;35;0;note_off;64
228720;9;38;0;note_on;80
229200;9;35;0;note_on;80
229200;9;38;480;note_off;64
229200;9;42;0;note_on;80
229680;9;35;0;note_off;64
229680;9;38;0;note_on;80
229680;9;42;480;note_off;64
230160;9;38;480;note_off;64
230160;9;42;0;note_on;80
230160;9;35;0;note_on;80
230640;9;38;0;note_on;80
230640;9;42;480;note_off;64
230640;9;35;0;note_off;64
231120;9;38;480;note_off;64
231120;9;35;0;note_on;80
231120;9;42;0;note_on;80
231600;9;35;0;note_off;64
231600;9;38;0;note_on;80
231600;9;42;480;note_off;64
231960;9;38;360;note_off;64
231960;9;38;0;note_on;80
232080;9;38;120;note_off;64
232080;9;42;0;note_on;80
232080;9;35;0;note_on;80
232560;9;38;0;note_on;80
232560;9;42;480;note_off;64
232560;9;35;0;note_off;64
233040;9;42;0;note_on;80
233040;9;35;0;note_on;80
233040;9;38;480;note_off;64
233520;9;42;480;note_off;64
233520;9;35;0;note_off;64
233520;9;38;0;note_on;80
234000;9;38;480;note_off;64
234000;9;42;0;note_on;80
234000;9;35;0;note_on;80
234480;9;38;0;note_on;80
234480;9;35;0;note_off;64
234480;9;42;480;note_off;64
234960;9;38;480;note_off;64
234960;9;42;0;note_on;80
234960;9;35;0;note_on;80
235440;9;42;480;note_off;64
235440;9;35;0;note_off;64
235440;9;38;0;note_on;80
235800;9;38;360;note_off;64
235800;9;38;0;note_on;80
235920;9;35;0;note_on;80
235920;9;38;120;note_off;64
235920;9;42;0;note_on;80
236400;9;42;480;note_off;64
236400;9;35;0;note_off;64
236400;9;38;0;note_on;80
236880;9;38;480;note_off;64
236880;9;42;0;note_on;80
236880;9;35;0;note_on;80
237360;9;42;480;note_off;64
237360;9;35;0;note_off;64
237360;9;38;0;note_on;80
237840;9;35;0;note_on;80
237840;9;38;480;note_off;64
237840;9;42;0;note_on;80
238320;9;38;0;note_on;80
238320;9;42;480;note_off;64
238320;9;35;0;note_off;64
238800;9;38;480;note_off;64
238800;9;42;0;note_on;80
238800;9;35;0;note_on;80
239280;9;42;480;note_off;64
239280;9;35;0;note_off;64
239280;9;38;0;note_on;80
239640;9;38;0;note_on;80
239640;9;38;360;note_off;64
239760;9;38;120;note_off;64
239760;9;35;0;note_on;80
239760;9;42;0;note_on;80
240240;9;42;480;note_off;64
240240;9;35;0;note_off;64
240240;9;38;0;note_on;80
240720;9;38;480;note_off;64
240720;9;42;0;note_on;80
240720;9;35;0;note_on;80
241200;9;38;0;note_on;80
241200;9;35;0;note_off;64
241200;9;42;480;note_off;64
241680;9;38;480;note_off;64
241680;9;42;0;note_on;80
241680;9;35;0;note_on;80
242160;9;42;480;note_off;64
242160;9;35;0;note_off;64
242160;9;38;0;note_on;80
242640;9;38;480;note_off;64
242640;9;42;0;note_on;80
242640;9;35;0;note_on;80
243120;9;38;0;note_on;80
243120;9;42;480;note_off;64
243120;9;35;0;note_off;64
243480;9;38;360;note_off;64
243480;9;38;0;note_on;80
243600;9;38;120;note_off;64
244080;9;38;480;note_on;80
244560;9;38;480;note_off;64
245040;9;38;480;note_on;80
245520;9;38;480;note_off;64
246000;9;38;480;note_on;80
246480;9;38;480;note_off;64
246960;9;38;480;note_on;80
247200;9;38;240;note_off;64
247320;9;38;120;note_on;80
247440;9;38;120;note_off;64
247920;9;38;480;note_on;80
248400;9;38;480;note_off;64
248880;9;38;480;note_on;80
249360;9;38;480;note_off;64
249840;9;38;480;note_on;80
250320;9;38;480;note_off;64
250800;9;38;480;note_on;80
251040;9;38;240;note_off;64
251160;9;38;120;note_on;80
251280;9;38;120;note_off;64
251760;9;38;480;note_on;80
252240;9;38;480;note_off;64
252720;9;38;480;note_on;80
253200;9;38;480;note_off;64
253680;9;38;480;note_on;80
254160;9;38;480;note_off;64
254640;9;38;480;note_on;80
254880;9;38;240;note_off;64
255000;9;38;120;note_on;80
255120;9;38;120;note_off;64
255600;9;38;480;note_on;80
256080;9;38;480;note_off;64
256560;9;38;480;note_on;80
257040;9;38;480;note_off;64
257520;9;38;480;note_on;80
258000;9;38;480;note_off;64
258480;9;38;480;note_on;80
258720;9;38;240;note_off;64
258840;9;38;120;note_on;80
258960;9;35;0;note_on;80
258960;9;38;120;note_off;64
258960;9;42;0;note_on;80
259440;9;35;0;note_off;64
259440;9;42;0;note_on;80
259440;9;38;0;note_on;80
259440;9;42;480;note_off;64
259920;9;42;480;note_off;64
259920;9;38;0;note_off;64
259920;9;42;0;note_on;80
259920;9;35;0;note_on;80
260400;9;42;480;note_off;64
260400;9;35;0;note_off;64
260400;9;42;0;note_on;80
260400;9;38;0;note_on;80
260880;9;42;0;note_on;80
260880;9;35;0;note_on;80
260880;9;42;480;note_off;64
260880;9;38;0;note_off;64
261360;9;42;480;note_off;64
261360;9;35;0;note_off;64
261360;9;42;0;note_on;80
261360;9;38;0;note_on;80
261840;9;42;0;note_on;80
261840;9;35;0;note_on;80
261840;9;42;480;note_off;64
261840;9;38;0;note_off;64
262320;9;42;480;note_off;64
262320;9;35;0;note_off;64
262320;9;42;0;note_on;80
262320;9;38;0;note_on;80
262680;9;42;360;note_off;64
262680;9;38;0;note_off;64
262680;9;38;0;note_on;80
262800;9;35;0;note_on;80
262800;9;38;120;note_off;64
262800;9;42;0;note_on;80
263280;9;35;0;note_off;64
263280;9;38;0;note_on;80
263280;9;42;480;note_off;64
263280;9;42;0;note_on;80
263760;9;42;480;note_off;64
263760;9;38;0;note_off;64
263760;9;42;0;note_on;80
263760;9;35;0;note_on;80
264240;9;42;480;note_off;64
264240;9;35;0;note_off;64
264240;9;42;0;note_on;80
264240;9;38;0;note_on;80
264720;9;42;480;note_off;64
264720;9;38;0;note_off;64
264720;9;42;0;note_on;80
264720;9;35;0;note_on;80
265200;9;38;0;note_on;80
265200;9;35;0;note_off;64
265200;9;42;0;note_on;80
265200;9;42;480;note_off;64
265680;9;42;480;note_off;64
265680;9;38;0;note_off;64
265680;9;42;0;note_on;80
265680;9;35;0;note_on;80
266160;9;42;480;note_off;64
266160;9;35;0;note_off;64
266160;9;42;0;note_on;80
266160;9;38;0;note_on;80
266520;9;38;0;note_on;80
266520;9;42;360;note_off;64
266520;9;38;0;note_off;64
266640;9;35;0;note_on;80
266640;9;38;120;note_off;64
266640;9;42;0;note_on;80
267120;9;35;0;note_off;64
267120;9;42;0;note_on;80
267120;9;38;0;note_on;80
267120;9;42;480;note_off;64
267600;9;42;480;note_off;64
267600;9;38;0;note_off;64
267600;9;42;0;note_on;80
267600;9;35;0;note_on;80
268080;9;42;480;note_off;64
268080;9;35;0;note_off;64
268080;9;42;0;note_on;80
268080;9;38;0;note_on;80
268560;9;42;0;note_on;80
268560;9;35;0;note_on;80
268560;9;42;480;note_off;64
268560;9;38;0;note_off;64
269040;9;42;480;note_off;64
269040;9;35;0;note_off;64
269040;9;42;0;note_on;80
269040;9;38;0;note_on;80
269520;9;42;0;note_on;80
269520;9;35;0;note_on;80
269520;9;42;480;note_off;64
269520;9;38;0;note_off;64
270000;9;42;480;note_off;64
270000;9;35;0;note_off;64
270000;9;42;0;note_on;80
270000;9;38;0;note_on;80
270360;9;42;360;note_off;64
270360;9;38;0;note_off;64
270360;9;38;0;note_on;80
270480;9;35;0;note_on;80
270480;9;42;0;note_on;80
270480;9;38;120;note_off;64
270960;9;38;0;note_on;80
270960;9;42;480;note_off;64
270960;9;35;0;note_off;64
270960;9;42;0;note_on;80
271440;9;42;480;note_off;64
271440;9;38;0;note_off;64
271440;9;42;0;note_on;80
271440;9;35;0;note_on;80
271920;9;42;480;note_off;64
271920;9;35;0;note_off;64
271920;9;42;0;note_on;80
271920;9;38;0;note_on;80
272400;9;42;480;note_off;64
272400;9;38;0;note_off;64
272400;9;42;0;note_on;80
272400;9;35;0;note_on;80
272880;9;38;0;note_on;80
272880;9;35;0;note_off;64
272880;9;42;480;note_off;64
272880;9;42;0;note_on;80
273360;9;42;480;note_off;64
273360;9;38;0;note_off;64
273360;9;42;0;note_on;80
273360;9;35;0;note_on;80
273840;9;42;480;note_off;64
273840;9;35;0;note_off;64
273840;9;42;0;note_on;80
273840;9;38;0;note_on;80
274200;9;42;360;note_off;64
274200;9;38;0;note_off;64
274200;9;38;0;note_on;80
274320;9;35;0;note_on;80
274320;9;42;0;note_on;80
274320;9;38;120;note_off;64
274800;9;38;0;note_on;80
274800;9;42;480;note_off;64
274800;9;35;0;note_off;64
274800;9;42;0;note_on;80
275280;9;42;480;note_off;64
275280;9;38;0;note_off;64
275280;9;42;0;note_on;80
275280;9;35;0;note_on;80
275760;9;42;480;note_off;64
275760;9;35;0;note_off;64
275760;9;42;0;note_on;80
275760;9;38;0;note_on;80
276240;9;42;0;note_on;80
276240;9;35;0;note_on;80
276240;9;42;480;note_off;64
276240;9;38;0;note_off;64
276720;9;35;0;note_off;64
276720;9;42;480;note_off;64
276720;9;42;0;note_on;80
276720;9;38;0;note_on;80
277200;9;42;0;note_on;80
277200;9;35;0;note_on;80
277200;9;42;480;note_off;64
277200;9;38;0;note_off;64
277680;9;42;480;note_off;64
277680;9;35;0;note_off;64
277680;9;42;0;note_on;80
277680;9;38;0;note_on;80
278040;9;42;360;note_off;64
278040;9;38;0;note_off;64
278040;9;38;0;note_on;80
278160;9;35;0;note_on;80
278160;9;38;120;note_off;64
278160;9;42;0;note_on;80
278640;9;35;0;note_off;64
278640;9;42;0;note_on;80
278640;9;38;0;note_on;80
278640;9;42;480;note_off;64
279120;9;42;480;note_off;64
279120;9;38;0;note_off;64
279120;9;42;0;note_on;80
279120;9;35;0;note_on;80
279600;9;42;480;note_off;64
279600;9;35;0;note_off;64
279600;9;42;0;note_on;80
279600;9;38;0;note_on;80
280080;9;42;0;note_on;80
280080;9;35;0;note_on;80
280080;9;42;480;note_off;64
280080;9;38;0;note_off;64
280560;9;42;480;note_off;64
280560;9;35;0;note_off;64
280560;9;42;0;note_on;80
280560;9;38;0;note_on;80
281040;9;42;0;note_on;80
281040;9;35;0;note_on;80
281040;9;42;480;note_off;64
281040;9;38;0;note_off;64
281520;9;42;480;note_off;64
281520;9;35;0;note_off;64
281520;9;42;0;note_on;80
281520;9;38;0;note_on;80
281880;9;42;360;note_off;64
281880;9;38;0;note_off;64
281880;9;38;0;note_on;80
282000;9;35;0;note_on;80
282000;9;42;0;note_on;80
282000;9;38;120;note_off;64
282480;9;42;480;note_off;64
282480;9;35;0;note_off;64
282480;9;42;0;note_on;80
282480;9;38;0;note_on;80
282960;9;42;480;note_off;64
282960;9;38;0;note_off;64
282960;9;42;0;note_on;80
282960;9;35;0;note_on;80
283440;9;38;0;note_on;80
283440;9;42;480;note_off;64
283440;9;35;0;note_off;64
283440;9;42;0;note_on;80
283920;9;42;480;note_off;64
283920;9;38;0;note_off;64
283920;9;42;0;note_on;80
283920;9;35;0;note_on;80
284400;9;38;0;note_on;80
284400;9;42;480;note_off;64
284400;9;35;0;note_off;64
284400;9;42;0;note_on;80
284880;9;42;480;note_off;64
284880;9;38;0;note_off;64
284880;9;42;0;note_on;80
284880;9;35;0;note_on;80
285360;9;42;480;note_off;64
285360;9;35;0;note_off;64
285360;9;42;0;note_on;80
285360;9;38;0;note_on;80
285720;9;42;360;note_off;64
285720;9;38;0;note_off;64
285720;9;38;0;note_on;80
285840;9;35;0;note_on;80
285840;9;42;0;note_on;80
285840;9;38;120;note_off;64
286320;9;38;0;note_on;80
286320;9;42;480;note_off;64
286320;9;35;0;note_off;64
286320;9;42;0;note_on;80
286800;9;38;0;note_off;64
286800;9;42;0;note_on;80
286800;9;35;0;note_on;80
286800;9;42;480;note_off;64
287280;9;42;480;note_off;64
287280;9;35;0;note_off;64
287280;9;42;0;note_on;80
287280;9;38;0;note_on;80
287760;9;35;0;note_on;80
287760;9;38;0;note_off;64
287760;9;42;480;note_off;64
287760;9;42;0;note_on;80
288240;9;42;480;note_off;64
288240;9;35;0;note_off;64
288240;9;42;0;note_on;80
288240;9;38;0;note_on;80
288720;9;42;0;note_on;80
288720;9;35;0;note_on;80
288720;9;42;480;note_off;64
288720;9;38;0;note_off;64
289200;9;42;480;note_off;64
289200;9;35;0;note_off;64
289200;9;42;0;note_on;80
289200;9;38;0;note_on;80
289560;9;42;360;note_off;64
289560;9;38;0;note_off;64
320400;9;42;30840;note_on;80
320400;9;35;0;note_on;80
320640;9;55;0;note_on;80
320640;9;35;0;note_off;64
320640;9;42;240;note_off;64
320880;9;55;240;note_off;64
320880;9;42;0;note_on;80
320880;9;38;0;note_on;80
320880;9;35;0;note_on;80
321120;9;42;240;note_off;64
321120;9;38;0;note_off;64
321120;9;35;0;note_off;64
321120;9;55;0;note_on;80
321360;9;35;0;note_on;80
321360;9;42;0;note_on;80
321360;9;55;240;note_off;64
321600;9;42;240;note_off;64
321600;9;35;0;note_off;64
321600;9;55;0;note_on;80
321840;9;55;240;note_off;64
321840;9;42;0;note_on;80
321840;9;38;0;note_on;80
321840;9;35;0;note_on;80
322080;9;55;0;note_on;80
322080;9;35;0;note_off;64
322080;9;38;0;note_off;64
322080;9;42;240;note_off;64
322320;9;55;240;note_off;64
322320;9;42;0;note_on;80
322320;9;35;0;note_on;80
322560;9;42;240;note_off;64
322560;9;35;0;note_off;64
322560;9;55;0;note_on;80
322800;9;38;0;note_on;80
322800;9;35;0;note_on;80
322800;9;55;240;note_off;64
322800;9;42;0;note_on;80
323040;9;42;240;note_off;64
323040;9;38;0;note_off;64
323040;9;35;0;note_off;64
323040;9;55;0;note_on;80
323280;9;55;240;note_off;64
323280;9;42;0;note_on;80
323280;9;35;0;note_on;80
323520;9;35;0;note_off;64
323520;9;55;0;note_on;80
323520;9;42;240;note_off;64
323760;9;55;240;note_off;64
323760;9;42;0;note_on;80
323760;9;38;0;note_on;80
323760;9;35;0;note_on;80
324000;9;42;240;note_off;64
324000;9;38;0;note_off;64
324000;9;35;0;note_off;64
324000;9;55;0;note_on;80
324120;9;38;0;note_on;80
324120;9;55;120;note_off;64
324240;9;35;0;note_on;80
324240;9;42;0;note_on;80
324240;9;38;120;note_off;64
324480;9;42;240;note_off;64
324480;9;35;0;note_off;64
324480;9;55;0;note_on;80
324720;9;55;240;note_off;64
324720;9;42;0;note_on;80
324720;9;38;0;note_on;80
324720;9;35;0;note_on;80
324960;9;42;240;note_off;64
324960;9;38;0;note_off;64
324960;9;35;0;note_off;64
324960;9;55;0;note_on;80
325200;9;55;240;note_off;64
325200;9;42;0;note_on;80
325200;9;35;0;note_on;80
325440;9;55;0;note_on;80
325440;9;35;0;note_off;64
325440;9;42;240;note_off;64
325680;9;55;240;note_off;64
325680;9;42;0;note_on;80
325680;9;38;0;note_on;80
325680;9;35;0;note_on;80
325920;9;35;0;note_off;64
325920;9;55;0;note_on;80
325920;9;42;240;note_off;64
325920;9;38;0;note_off;64
326160;9;55;240;note_off;64
326160;9;42;0;note_on;80
326160;9;35;0;note_on;80
326400;9;42;240;note_off;64
326400;9;35;0;note_off;64
326400;9;55;0;note_on;80
326640;9;35;0;note_on;80
326640;9;38;0;note_on;80
326640;9;42;0;note_on;80
326640;9;55;240;note_off;64
326880;9;42;240;note_off;64
326880;9;38;0;note_off;64
326880;9;35;0;note_off;64
326880;9;55;0;note_on;80
327120;9;55;240;note_off;64
327120;9;42;0;note_on;80
327120;9;35;0;note_on;80
327360;9;55;0;note_on;80
327360;9;42;240;note_off;64
327360;9;35;0;note_off;64
327600;9;55;240;note_off;64
327600;9;42;0;note_on;80
327600;9;38;0;note_on;80
327600;9;35;0;note_on;80
327840;9;55;0;note_on;80
327840;9;35;0;note_off;64
327840;9;38;0;note_off;64
327840;9;42;240;note_off;64
327960;9;55;120;note_off;64
327960;9;38;0;note_on;80
328080;9;38;120;note_off;64
328080;9;42;0;note_on;80
328080;9;35;0;note_on;80
328320;9;42;240;note_off;64
328320;9;35;0;note_off;64
328320;9;55;0;note_on;80
328560;9;55;240;note_off;64
328560;9;42;0;note_on;80
328560;9;38;0;note_on;80
328560;9;35;0;note_on;80
328800;9;55;0;note_on;80
328800;9;35;0;note_off;64
328800;9;38;0;note_off;64
328800;9;42;240;note_off;64
329040;9;55;240;note_off;64
329040;9;42;0;note_on;80
329040;9;35;0;note_on;80
329280;9;42;240;note_off;64
329280;9;35;0;note_off;64
329280;9;55;0;note_on;80
329520;9;35;0;note_on;80
329520;9;38;0;note_on;80
329520;9;55;240;note_off;64
329520;9;42;0;note_on;80
329760;9;42;240;note_off;64
329760;9;38;0;note_off;64
329760;9;35;0;note_off;64
329760;9;55;0;note_on;80
330000;9;35;0;note_on;80
330000;9;55;240;note_off;64
330000;9;42;0;note_on;80
330240;9;35;0;note_off;64
330240;9;55;0;note_on;80
330240;9;42;240;note_off;64
330480;9;55;240;note_off;64
330480;9;42;0;note_on;80
330480;9;38;0;note_on;80
330480;9;35;0;note_on;80
330720;9;42;240;note_off;64
330720;9;38;0;note_off;64
330720;9;35;0;note_off;64
330720;9;55;0;note_on;80
330960;9;55;240;note_off;64
330960;9;42;0;note_on;80
330960;9;35;0;note_on;80
331200;9;55;0;note_on;80
331200;9;42;240;note_off;64
331200;9;35;0;note_off;64
331440;9;35;0;note_on;80
331440;9;55;240;note_off;64
331440;9;42;0;note_on;80
331440;9;38;0;note_on;80
331680;9;35;0;note_off;64
331680;9;55;0;note_on;80
331680;9;42;240;note_off;64
331680;9;38;0;note_off;64
331800;9;55;120;note_off;64
331800;9;38;0;note_on;80
331920;9;38;120;note_off;64
331920;9;42;0;note_on;80
331920;9;35;0;note_on;80
332160;9;42;240;note_off;64
332160;9;35;0;note_off;64
332160;9;55;0;note_on;80
332400;9;35;0;note_on;80
332400;9;38;0;note_on;80
332400;9;55;240;note_off;64
332400;9;42;0;note_on;80
332640;9;42;240;note_off;64
332640;9;38;0;note_off;64
332640;9;35;0;note_off;64
332640;9;55;0;note_on;80
332880;9;55;240;note_off;64
332880;9;42;0;note_on;80
332880;9;35;0;note_on;80
333120;9;55;0;note_on;80
333120;9;42;240;note_off;64
333120;9;35;0;note_off;64
333360;9;35;0;note_on;80
333360;9;38;0;note_on;80
333360;9;55;240;note_off;64
333360;9;42;0;note_on;80
333600;9;42;240;note_off;64
333600;9;38;0;note_off;64
333600;9;35;0;note_off;64
333600;9;55;0;note_on;80
333840;9;55;240;note_off;64
333840;9;42;0;note_on;80
333840;9;35;0;note_on;80
334080;9;55;0;note_on;80
334080;9;42;240;note_off;64
334080;9;35;0;note_off;64
334320;9;55;240;note_off;64
334320;9;42;0;note_on;80
334320;9;38;0;note_on;80
334320;9;35;0;note_on;80
334560;9;55;0;note_on;80
334560;9;42;240;note_off;64
334560;9;38;0;note_off;64
334560;9;35;0;note_off;64
334800;9;35;0;note_on;80
334800;9;42;0;note_on;80
334800;9;55;240;note_off;64
335040;9;42;240;note_off;64
335040;9;35;0;note_off;64
335040;9;55;0;note_on;80
335280;9;55;240;note_off;64
335280;9;42;0;note_on;80
335280;9;38;0;note_on;80
335280;9;35;0;note_on;80
335520;9;35;0;note_off;64
335520;9;55;0;note_on;80
335520;9;42;240;note_off;64
335520;9;38;0;note_off;64
335640;9;55;120;note_off;64
335640;9;38;0;note_on;80
335760;9;35;0;note_on;80
335760;9;38;120;note_off;64
335760;9;42;0;note_on;80
336000;9;35;0;note_off;64
336000;9;55;0;note_on;80
336000;9;42;240;note_off;64
336240;9;38;0;note_on;80
336240;9;35;0;note_on;80
336240;9;55;240;note_off;64
336240;9;42;0;note_on;80
336480;9;42;240;note_off;64
336480;9;38;0;note_off;64
336480;9;35;0;note_off;64
336480;9;55;0;note_on;80
336720;9;55;240;note_off;64
336720;9;42;0;note_on;80
336720;9;35;0;note_on;80
336960;9;55;0;note_on;80
336960;9;35;0;note_off;64
336960;9;42;240;note_off;64
337200;9;55;240;note_off;64
337200;9;42;0;note_on;80
337200;9;38;0;note_on;80
337200;9;35;0;note_on;80
337440;9;42;240;note_off;64
337440;9;38;0;note_off;64
337440;9;35;0;note_off;64
337440;9;55;0;note_on;80
337680;9;42;0;note_on;80
337680;9;35;0;note_on;80
337680;9;55;240;note_off;64
337920;9;42;240;note_off;64
337920;9;35;0;note_off;64
337920;9;55;0;note_on;80
338160;9;55;240;note_off;64
338160;9;42;0;note_on;80
338160;9;38;0;note_on;80
338160;9;35;0;note_on;80
338400;9;55;0;note_on;80
338400;9;35;0;note_off;64
338400;9;42;240;note_off;64
338400;9;38;0;note_off;64
338640;9;55;240;note_off;64
338640;9;42;0;note_on;80
338640;9;35;0;note_on;80
338880;9;42;240;note_off;64
338880;9;35;0;note_off;64
338880;9;55;0;note_on;80
339120;9;38;0;note_on;80
339120;9;55;240;note_off;64
339120;9;42;0;note_on;80
339120;9;35;0;note_on;80
339360;9;55;0;note_on;80
339360;9;35;0;note_off;64
339360;9;42;240;note_off;64
339360;9;38;0;note_off;64
339480;9;55;120;note_off;64
339480;9;38;0;note_on;80
339600;9;38;120;note_off;64
339600;9;42;0;note_on;80
339600;9;35;0;note_on;80
339840;9;42;240;note_off;64
339840;9;35;0;note_off;64
339840;9;55;0;note_on;80
340080;9;35;0;note_on;80
340080;9;38;0;note_on;80
340080;9;42;0;note_on;80
340080;9;55;240;note_off;64
340320;9;42;240;note_off;64
340320;9;38;0;note_off;64
340320;9;35;0;note_off;64
340320;9;55;0;note_on;80
340560;9;55;240;note_off;64
340560;9;35;0;note_on;80
340560;9;42;0;note_on;80
340800;9;55;0;note_on;80
340800;9;42;240;note_off;64
340800;9;35;0;note_off;64
341040;9;55;240;note_off;64
341040;9;42;0;note_on;80
341040;9;38;0;note_on;80
341040;9;35;0;note_on;80
341280;9;42;240;note_off;64
341280;9;38;0;note_off;64
341280;9;35;0;note_off;64
341280;9;55;0;note_on;80
341520;9;55;240;note_off;64
341520;9;42;0;note_on;80
341520;9;35;0;note_on;80
341760;9;55;0;note_on;80
341760;9;42;240;note_off;64
341760;9;35;0;note_off;64
342000;9;38;0;note_on;80
342000;9;35;0;note_on;80
342000;9;55;240;note_off;64
342000;9;42;0;note_on;80
342240;9;35;0;note_off;64
342240;9;55;0;note_on;80
342240;9;42;240;note_off;64
342240;9;38;0;note_off;64
342480;9;55;240;note_off;64
342480;9;42;0;note_on;80
342480;9;35;0;note_on;80
342720;9;42;240;note_off;64
342720;9;35;0;note_off;64
342720;9;55;0;note_on;80
342960;9;38;0;note_on;80
342960;9;35;0;note_on;80
342960;9;55;240;note_off;64
342960;9;42;0;note_on;80
343200;9;42;240;note_off;64
343200;9;38;0;note_off;64
343200;9;35;0;note_off;64
343200;9;55;0;note_on;80
343320;9;55;120;note_off;64
343320;9;38;0;note_on;80
343440;9;35;0;note_on;80
343440;9;38;120;note_off;64
343440;9;42;0;note_on;80
343680;9;35;0;note_off;64
343680;9;55;0;note_on;80
343680;9;42;240;note_off;64
343920;9;55;240;note_off;64
343920;9;42;0;note_on;80
343920;9;38;0;note_on;80
343920;9;35;0;note_on;80
344160;9;42;240;note_off;64
344160;9;38;0;note_off;64
344160;9;35;0;note_off;64
344160;9;55;0;note_on;80
344400;9;42;0;note_on;80
344400;9;35;0;note_on;80
344400;9;55;240;note_off;64
344640;9;42;240;note_off;64
344640;9;35;0;note_off;64
344640;9;55;0;note_on;80
344880;9;55;240;note_off;64
344880;9;42;0;note_on;80
344880;9;38;0;note_on;80
344880;9;35;0;note_on;80
345120;9;42;240;note_off;64
345120;9;38;0;note_off;64
345120;9;35;0;note_off;64
345120;9;55;0;note_on;80
345360;9;35;0;note_on;80
345360;9;55;240;note_off;64
345360;9;42;0;note_on;80
345600;9;42;240;note_off;64
345600;9;35;0;note_off;64
345600;9;55;0;note_on;80
345840;9;55;240;note_off;64
345840;9;42;0;note_on;80
345840;9;38;0;note_on;80
345840;9;35;0;note_on;80
346080;9;55;0;note_on;80
346080;9;35;0;note_off;64
346080;9;38;0;note_off;64
346080;9;42;240;note_off;64
346320;9;55;240;note_off;64
346320;9;42;0;note_on;80
346320;9;35;0;note_on;80
346560;9;42;240;note_off;64
346560;9;35;0;note_off;64
346560;9;55;0;note_on;80
346800;9;38;0;note_on;80
346800;9;35;0;note_on;80
346800;9;55;240;note_off;64
346800;9;42;0;note_on;80
347040;9;55;0;note_on;80
347040;9;35;0;note_off;64
347040;9;42;240;note_off;64
347040;9;38;0;note_off;64
347160;9;55;120;note_off;64
347160;9;38;0;note_on;80
347280;9;38;120;note_off;64
347280;9;42;0;note_on;80
347280;9;35;0;note_on;80
347520;9;55;0;note_on;80
347520;9;42;240;note_off;64
347520;9;35;0;note_off;64
347760;9;55;240;note_off;64
347760;9;42;0;note_on;80
347760;9;38;0;note_on;80
347760;9;35;0;note_on;80
348000;9;35;0;note_off;64
348000;9;55;0;note_on;80
348000;9;42;240;note_off;64
348000;9;38;0;note_off;64
348240;9;42;0;note_on;80
348240;9;35;0;note_on;80
348240;9;55;240;note_off;64
348480;9;55;0;note_on;80
348480;9;42;240;note_off;64
348480;9;35;0;note_off;64
348720;9;55;240;note_off;64
348720;9;42;0;note_on;80
348720;9;38;0;note_on;80
348720;9;35;0;note_on;80
348960;9;42;240;note_off;64
348960;9;38;0;note_off;64
348960;9;35;0;note_off;64
348960;9;55;0;note_on;80
349200;9;55;240;note_off;64
349200;9;42;0;note_on;80
349200;9;35;0;note_on;80
349440;9;55;0;note_on;80
349440;9;35;0;note_off;64
349440;9;42;240;note_off;64
349680;9;55;240;note_off;64
349680;9;42;0;note_on;80
349680;9;38;0;note_on;80
349680;9;35;0;note_on;80
349920;9;42;240;note_off;64
349920;9;38;0;note_off;64
349920;9;35;0;note_off;64
349920;9;55;0;note_on;80
350160;9;55;240;note_off;64
350160;9;42;0;note_on;80
350160;9;35;0;note_on;80
350400;9;55;0;note_on;80
350400;9;42;240;note_off;64
350400;9;35;0;note_off;64
350640;9;55;240;note_off;64
350640;9;42;0;note_on;80
350640;9;38;0;note_on;80
350640;9;35;0;note_on;80
350880;9;42;240;note_off;64
350880;9;38;0;note_off;64
350880;9;35;0;note_off;64
350880;9;55;0;note_on;80
351000;9;38;0;note_on;80
351000;9;55;120;note_off;64
351120;9;35;0;note_on;80
351120;9;42;0;note_on;80
351120;9;38;120;note_off;64
351360;9;42;240;note_off;64
351360;9;35;0;note_off;64
351360;9;55;0;note_on;80
351600;9;35;0;note_on;80
351600;9;55;240;note_off;64
351600;9;42;0;note_on;80
351600;9;38;0;note_on;80
351840;9;35;0;note_off;64
351840;9;55;0;note_on;80
351840;9;42;240;note_off;64
351840;9;38;0;note_off;64
352080;9;42;0;note_on;80
352080;9;35;0;note_on;80
352080;9;55;240;note_off;64
352320;9;42;240;note_off;64
352320;9;35;0;note_off;64
352320;9;55;0;note_on;80
352560;9;55;240;note_off;64
352560;9;42;0;note_on;80
352560;9;38;0;note_on;80
352560;9;35;0;note_on;80
352800;9;42;240;note_off;64
352800;9;38;0;note_off;64
352800;9;35;0;note_off;64
352800;9;55;0;note_on;80
353040;9;35;0;note_on;80
353040;9;42;0;note_on;80
353040;9;55;240;note_off;64
353280;9;42;240;note_off;64
353280;9;35;0;note_off;64
353280;9;55;0;note_on;80
353520;9;55;240;note_off;64
353520;9;42;0;note_on;80
353520;9;38;0;note_on;80
353520;9;35;0;note_on;80
353760;9;42;240;note_off;64
353760;9;38;0;note_off;64
353760;9;35;0;note_off;64
353760;9;55;0;note_on;80
354000;9;35;0;note_on;80
354000;9;55;240;note_off;64
354000;9;42;0;note_on;80
354240;9;42;240;note_off;64
354240;9;35;0;note_off;64
354240;9;55;0;note_on;80
354480;9;55;240;note_off;64
354480;9;42;0;note_on;80
354480;9;38;0;note_on;80
354480;9;35;0;note_on;80
354720;9;35;0;note_off;64
354720;9;42;240;note_off;64
354720;9;38;0;note_off;64
354720;9;55;0;note_on;80
354840;9;38;0;note_on;80
354840;9;55;120;note_off;64
354960;9;38;120;note_off;64
354960;9;42;0;note_on;80
354960;9;35;0;note_on;80
355200;9;42;240;note_off;64
355200;9;35;0;note_off;64
355200;9;55;0;note_on;80
355440;9;38;0;note_on;80
355440;9;35;0;note_on;80
355440;9;55;240;note_off;64
355440;9;42;0;note_on;80
355680;9;35;0;note_off;64
355680;9;55;0;note_on;80
355680;9;42;240;note_off;64
355680;9;38;0;note_off;64
355920;9;42;0;note_on;80
355920;9;35;0;note_on;80
355920;9;55;240;note_off;64
356160;9;42;240;note_off;64
356160;9;35;0;note_off;64
356160;9;55;0;note_on;80
356400;9;55;240;note_off;64
356400;9;42;0;note_on;80
356400;9;38;0;note_on;80
356400;9;35;0;note_on;80
356640;9;42;240;note_off;64
356640;9;38;0;note_off;64
356640;9;35;0;note_off;64
356640;9;55;0;note_on;80
356880;9;35;0;note_on;80
356880;9;42;0;note_on;80
356880;9;55;240;note_off;64
357120;9;42;240;note_off;64
357120;9;35;0;note_off;64
357120;9;55;0;note_on;80
357360;9;55;240;note_off;64
357360;9;42;0;note_on;80
357360;9;38;0;note_on;80
357360;9;35;0;note_on;80
357600;9;42;240;note_off;64
357600;9;38;0;note_off;64
357600;9;35;0;note_off;64
357600;9;55;0;note_on;80
357840;9;42;0;note_on;80
357840;9;35;0;note_on;80
357840;9;55;240;note_off;64
358080;9;42;240;note_off;64
358080;9;35;0;note_off;64
358080;9;55;0;note_on;80
358320;9;55;240;note_off;64
358320;9;42;0;note_on;80
358320;9;38;0;note_on;80
358320;9;35;0;note_on;80
358560;9;42;240;note_off;64
358560;9;38;0;note_off;64
358560;9;35;0;note_off;64
358560;9;55;0;note_on;80
358680;9;55;120;note_off;64
358680;9;38;0;note_on;80
358800;9;35;0;note_on;80
358800;9;38;120;note_off;64
358800;9;42;0;note_on;80
359040;9;42;240;note_off;64
359040;9;35;0;note_off;64
359040;9;55;0;note_on;80
359280;9;35;0;note_on;80
359280;9;55;240;note_off;64
359280;9;42;0;note_on;80
359280;9;38;0;note_on;80
359520;9;35;0;note_off;64
359520;9;55;0;note_on;80
359520;9;42;240;note_off;64
359520;9;38;0;note_off;64
359760;9;35;0;note_on;80
359760;9;42;0;note_on;80
359760;9;55;240;note_off;64
360000;9;42;240;note_off;64
360000;9;35;0;note_off;64
360000;9;55;0;note_on;80
360240;9;55;240;note_off;64
360240;9;42;0;note_on;80
360240;9;38;0;note_on;80
360240;9;35;0;note_on;80
360480;9;42;240;note_off;64
360480;9;38;0;note_off;64
360480;9;35;0;note_off;64
360480;9;55;0;note_on;80
360720;9;35;0;note_on;80
360720;9;42;0;note_on;80
360720;9;55;240;note_off;64
360960;9;42;240;note_off;64
360960;9;35;0;note_off;64
360960;9;55;0;note_on;80
361200;9;55;240;note_off;64
361200;9;42;0;note_on;80
361200;9;38;0;note_on;80
361200;9;35;0;note_on;80
361440;9;42;240;note_off;64
361440;9;38;0;note_off;64
361440;9;55;0;note_on;80
361440;9;35;0;note_off;64
361680;9;35;0;note_on;80
361680;9;55;240;note_off;64
361680;9;42;0;note_on;80
361920;9;42;240;note_off;64
361920;9;35;0;note_off;64
361920;9;55;0;note_on;80
362160;9;55;240;note_off;64
362160;9;42;0;note_on;80
362160;9;38;0;note_on;80
362160;9;35;0;note_on;80
362400;9;35;0;note_off;64
362400;9;55;0;note_on;80
362400;9;42;240;note_off;64
362400;9;38;0;note_off;64
362520;9;55;120;note_off;64
362520;9;38;0;note_on;80
362640;9;35;0;note_on;80
362640;9;38;120;note_off;64
362640;9;42;0;note_on;80
362880;9;35;0;note_off;64
362880;9;55;0;note_on;80
362880;9;42;240;note_off;64
363120;9;38;0;note_on;80
363120;9;35;0;note_on;80
363120;9;55;240;note_off;64
363120;9;42;0;note_on;80
363360;9;35;0;note_off;64
363360;9;55;0;note_on;80
363360;9;42;240;note_off;64
363360;9;38;0;note_off;64
363600;9;35;0;note_on;80
363600;9;55;240;note_off;64
363600;9;42;0;note_on;80
363840;9;42;240;note_off;64
363840;9;35;0;note_off;64
363840;9;55;0;note_on;80
364080;9;55;240;note_off;64
364080;9;42;0;note_on;80
364080;9;38;0;note_on;80
364080;9;35;0;note_on;80
364320;9;42;240;note_off;64
364320;9;38;0;note_off;64
364320;9;35;0;note_off;64
364320;9;55;0;note_on;80
364560;9;55;0;note_on;80
364560;9;55;240;note_off;64
364800;9;55;240;note_off;64
364800;9;55;0;note_on;80
365040;9;55;240;note_off;64
365040;9;55;0;note_on;80
365040;9;38;0;note_on;80
365280;9;55;240;note_off;64
365280;9;38;0;note_off;64
365280;9;55;0;note_on;80
365520;9;55;240;note_off;64
365520;9;55;0;note_on;80
365760;9;55;0;note_on;80
365760;9;55;240;note_off;64
366000;9;38;0;note_on;80
366000;9;55;0;note_on;80
366000;9;55;240;note_off;64
366240;9;55;240;note_off;64
366240;9;38;0;note_off;64
366240;9;55;0;note_on;80
366360;9;55;120;note_off;64
366360;9;38;0;note_on;80
366480;9;38;120;note_off;64
366480;9;42;0;note_on;80
366480;9;35;0;note_on;80
366960;9;42;480;note_off;64
366960;9;35;0;note_off;64
366960;9;38;0;note_on;80
367440;9;35;0;note_on;80
367440;9;42;0;note_on;80
367440;9;38;480;note_off;64
367920;9;42;480;note_off;64
367920;9;35;0;note_off;64
367920;9;38;0;note_on;80
368400;9;38;480;note_off;64
368400;9;42;0;note_on;80
368400;9;35;0;note_on;80
368880;9;42;480;note_off;64
368880;9;35;0;note_off;64
368880;9;38;0;note_on;80
369360;9;38;480;note_off;64
369360;9;42;0;note_on;80
369360;9;35;0;note_on;80
369840;9;38;0;note_on;80
369840;9;35;0;note_off;64
369840;9;42;480;note_off;64
370200;9;38;360;note_off;64
370200;9;38;0;note_on;80
370320;9;38;120;note_off;64
370320;9;42;0;note_on;80
370320;9;35;0;note_on;80
370800;9;42;480;note_off;64
370800;9;35;0;note_off;64
370800;9;38;0;note_on;80
371280;9;38;480;note_off;64
371280;9;42;0;note_on;80
371280;9;35;0;note_on;80
371760;9;38;0;note_on;80
371760;9;35;0;note_off;64
371760;9;42;480;note_off;64
372240;9;38;480;note_off;64
372240;9;42;0;note_on;80
372240;9;35;0;note_on;80
372720;9;42;480;note_off;64
372720;9;35;0;note_off;64
372720;9;38;0;note_on;80
373200;9;38;480;note_off;64
373200;9;42;0;note_on;80
373200;9;35;0;note_on;80
373680;9;42;480;note_off;64
373680;9;35;0;note_off;64
373680;9;38;0;note_on;80
374040;9;38;0;note_on;80
374040;9;38;360;note_off;64
374160;9;38;120;note_off;64
374160;9;42;0;note_on;80
374160;9;35;0;note_on;80
374640;9;42;480;note_off;64
374640;9;35;0;note_off;64
374640;9;38;0;note_on;80
375120;9;38;480;note_off;64
375120;9;42;0;note_on;80
375120;9;35;0;note_on;80
375600;9;42;480;note_off;64
375600;9;35;0;note_off;64
375600;9;38;0;note_on;80
376080;9;35;0;note_on;80
376080;9;42;0;note_on;80
376080;9;38;480;note_off;64
376560;9;42;480;note_off;64
376560;9;35;0;note_off;64
376560;9;38;0;note_on;80
377040;9;38;480;note_off;64
377040;9;42;0;note_on;80
377040;9;35;0;note_on;80
377520;9;42;480;note_off;64
377520;9;35;0;note_off;64
377520;9;38;0;note_on;80
377880;9;38;360;note_off;64
377880;9;38;0;note_on;80
378000;9;35;0;note_on;80
378000;9;38;120;note_off;64
378000;9;42;0;note_on;80
378480;9;42;480;note_off;64
378480;9;35;0;note_off;64
378480;9;38;0;note_on;80
378960;9;38;480;note_off;64
378960;9;42;0;note_on;80
378960;9;35;0;note_on;80
379440;9;42;480;note_off;64
379440;9;35;0;note_off;64
379440;9;38;0;note_on;80
379920;9;42;0;note_on;80
379920;9;35;0;note_on;80
379920;9;38;480;note_off;64
380400;9;42;480;note_off;64
380400;9;35;0;note_off;64
380400;9;38;0;note_on;80
380880;9;38;480;note_off;64
380880;9;42;0;note_on;80
380880;9;35;0;note_on;80
381360;9;42;480;note_off;64
381360;9;35;0;note_off;64
381360;9;38;0;note_on;80
381720;9;38;0;note_on;80
381720;9;38;360;note_off;64
381840;9;42;0;note_on;80
381840;9;35;0;note_on;80
381840;9;38;120;note_off;64
382320;9;42;480;note_off;64
382320;9;35;0;note_off;64
382320;9;38;0;note_on;80
382800;9;38;480;note_off;64
382800;9;42;0;note_on;80
382800;9;35;0;note_on;80
383280;9;42;480;note_off;64
383280;9;35;0;note_off;64
383280;9;38;0;note_on;80
383760;9;35;0;note_on;80
383760;9;38;480;note_off;64
383760;9;42;0;note_on;80
384240;9;38;0;note_on;80
384240;9;42;480;note_off;64
384240;9;35;0;note_off;64
384720;9;38;480;note_off;64
384720;9;42;0;note_on;80
384720;9;35;0;note_on;80
385200;9;42;480;note_off;64
385200;9;35;0;note_off;64
385200;9;38;0;note_on;80
385560;9;38;0;note_on;80
385560;9;38;360;note_off;64
385680;9;42;0;note_on;80
385680;9;35;0;note_on;80
385680;9;38;120;note_off;64
386160;9;38;0;note_on;80
386160;9;35;0;note_off;64
386160;9;42;480;note_off;64
386640;9;38;480;note_off;64
386640;9;42;0;note_on;80
386640;9;35;0;note_on;80
387120;9;42;480;note_off;64
387120;9;35;0;note_off;64
387120;9;38;0;note_on;80
387600;9;38;480;note_off;64
387600;9;42;0;note_on;80
387600;9;35;0;note_on;80
388080;9;35;0;note_off;64
388080;9;38;0;note_on;80
388080;9;42;480;note_off;64
388560;9;38;480;note_off;64
388560;9;42;0;note_on;80
388560;9;35;0;note_on;80
389040;9;42;480;note_off;64
389040;9;35;0;note_off;64
389040;9;38;0;note_on;80
389400;9;38;360;note_off;64
389400;9;38;0;note_on;80
389520;9;38;120;note_off;64
389520;9;42;0;note_on;80
389520;9;35;0;note_on;80
390000;9;38;0;note_on;80
390000;9;35;0;note_off;64
390000;9;42;480;note_off;64
390480;9;38;480;note_off;64
390480;9;42;0;note_on;80
390480;9;35;0;note_on;80
390960;9;42;480;note_off;64
390960;9;35;0;note_off;64
390960;9;38;0;note_on;80
391440;9;35;0;note_on;80
391440;9;38;480;note_off;64
391440;9;42;0;note_on;80
391920;9;38;0;note_on;80
391920;9;42;480;note_off;64
391920;9;35;0;note_off;64
392400;9;38;480;note_off;64
392400;9;42;0;note_on;80
392400;9;35;0;note_on;80
392880;9;35;0;note_off;64
392880;9;42;480;note_off;64
392880;9;38;0;note_on;80
393240;9;38;0;note_on;80
393240;9;38;360;note_off;64
393360;9;42;0;note_on;80
393360;9;35;0;note_on;80
393360;9;38;120;note_off;64
393840;9;35;0;note_off;64
393840;9;38;0;note_on;80
393840;9;42;480;note_off;64
394320;9;42;0;note_on;80
394320;9;35;0;note_on;80
394320;9;38;480;note_off;64
394800;9;38;0;note_on;80
394800;9;42;480;note_off;64
394800;9;35;0;note_off;64
395280;9;38;480;note_off;64
395280;9;42;0;note_on;80
395280;9;35;0;note_on;80
395760;9;42;480;note_off;64
395760;9;35;0;note_off;64
395760;9;38;0;note_on;80
396240;9;38;480;note_off;64
396720;9;38;480;note_on;80
397080;9;38;360;note_off;64
397080;9;38;0;note_on;80
397200;9;35;0;note_on;80
397200;9;42;0;note_on;80
397200;9;38;120;note_off;64
397440;9;42;240;note_off;64
397440;9;35;0;note_off;64
397440;9;55;0;note_on;80
397680;9;55;240;note_off;64
397680;9;42;0;note_on;80
397680;9;38;0;note_on;80
397680;9;35;0;note_on;80
397920;9;42;240;note_off;64
397920;9;38;0;note_off;64
397920;9;35;0;note_off;64
397920;9;55;0;note_on;80
398160;9;35;0;note_on;80
398160;9;42;0;note_on;80
398160;9;55;240;note_off;64
398400;9;42;240;note_off;64
398400;9;35;0;note_off;64
398400;9;55;0;note_on;80
398640;9;55;240;note_off;64
398640;9;42;0;note_on;80
398640;9;38;0;note_on;80
398640;9;35;0;note_on;80
398880;9;42;240;note_off;64
398880;9;38;0;note_off;64
398880;9;35;0;note_off;64
398880;9;55;0;note_on;80
399120;9;35;0;note_on;80
399120;9;42;0;note_on;80
399120;9;55;240;note_off;64
399360;9;42;240;note_off;64
399360;9;35;0;note_off;64
399360;9;55;0;note_on;80
399600;9;55;240;note_off;64
399600;9;42;0;note_on;80
399600;9;38;0;note_on;80
399600;9;35;0;note_on;80
399840;9;42;240;note_off;64
399840;9;38;0;note_off;64
399840;9;35;0;note_off;64
399840;9;55;0;note_on;80
400080;9;42;0;note_on;80
400080;9;35;0;note_on;80
400080;9;55;240;note_off;64
400320;9;42;240;note_off;64
400320;9;35;0;note_off;64
400320;9;55;0;note_on;80
400560;9;55;240;note_off;64
400560;9;42;0;note_on;80
400560;9;38;0;note_on;80
400560;9;35;0;note_on;80
400800;9;42;240;note_off;64
400800;9;38;0;note_off;64
400800;9;35;0;note_off;64
400800;9;55;0;note_on;80
400920;9;55;120;note_off;64
400920;9;38;0;note_on;80
401040;9;35;0;note_on;80
401040;9;38;120;note_off;64
401040;9;42;0;note_on;80
401280;9;42;240;note_off;64
401280;9;35;0;note_off;64
401280;9;55;0;note_on;80
401520;9;55;240;note_off;64
401520;9;42;0;note_on;80
401520;9;38;0;note_on;80
401520;9;35;0;note_on;80
401760;9;55;0;note_on;80
401760;9;42;240;note_off;64
401760;9;38;0;note_off;64
401760;9;35;0;note_off;64
402000;9;35;0;note_on;80
402000;9;55;240;note_off;64
402000;9;42;0;note_on;80
402240;9;42;240;note_off;64
402240;9;35;0;note_off;64
402240;9;55;0;note_on;80
402480;9;55;240;note_off;64
402480;9;42;0;note_on;80
402480;9;38;0;note_on;80
402480;9;35;0;note_on;80
402720;9;55;0;note_on;80
402720;9;35;0;note_off;64
402720;9;38;0;note_off;64
402720;9;42;240;note_off;64
402960;9;55;240;note_off;64
402960;9;42;0;note_on;80
402960;9;35;0;note_on;80
403200;9;42;240;note_off;64
403200;9;35;0;note_off;64
403200;9;55;0;note_on;80
403440;9;38;0;note_on;80
403440;9;35;0;note_on;80
403440;9;55;240;note_off;64
403440;9;42;0;note_on;80
403680;9;35;0;note_off;64
403680;9;55;0;note_on;80
403680;9;42;240;note_off;64
403680;9;38;0;note_off;64
403920;9;35;0;note_on;80
403920;9;42;0;note_on;80
403920;9;55;240;note_off;64
404160;9;42;240;note_off;64
404160;9;35;0;note_off;64
404160;9;55;0;note_on;80
404400;9;55;240;note_off;64
404400;9;42;0;note_on;80
404400;9;38;0;note_on;80
404400;9;35;0;note_on;80
404640;9;42;240;note_off;64
404640;9;38;0;note_off;64
404640;9;35;0;note_off;64
404640;9;55;0;note_on;80
404760;9;38;0;note_on;80
404760;9;55;120;note_off;64
404880;9;38;120;note_off;64
404880;9;42;0;note_on;80
404880;9;35;0;note_on;80
405120;9;42;240;note_off;64
405120;9;35;0;note_off;64
405120;9;55;0;note_on;80
405360;9;55;240;note_off;64
405360;9;42;0;note_on;80
405360;9;38;0;note_on;80
405360;9;35;0;note_on;80
405600;9;55;0;note_on;80
405600;9;35;0;note_off;64
405600;9;42;240;note_off;64
405600;9;38;0;note_off;64
405840;9;55;240;note_off;64
405840;9;42;0;note_on;80
405840;9;35;0;note_on;80
406080;9;42;240;note_off;64
406080;9;35;0;note_off;64
406080;9;55;0;note_on;80
406320;9;35;0;note_on;80
406320;9;55;240;note_off;64
406320;9;42;0;note_on;80
406320;9;38;0;note_on;80
406560;9;55;0;note_on;80
406560;9;35;0;note_off;64
406560;9;38;0;note_off;64
406560;9;42;240;note_off;64
406800;9;55;240;note_off;64
406800;9;42;0;note_on;80
406800;9;35;0;note_on;80
407040;9;55;0;note_on;80
407040;9;42;240;note_off;64
407040;9;35;0;note_off;64
407280;9;38;0;note_on;80
407280;9;35;0;note_on;80
407280;9;55;240;note_off;64
407280;9;42;0;note_on;80
407520;9;35;0;note_off;64
407520;9;55;0;note_on;80
407520;9;42;240;note_off;64
407520;9;38;0;note_off;64
407760;9;55;240;note_off;64
407760;9;42;0;note_on;80
407760;9;35;0;note_on;80
408000;9;42;240;note_off;64
408000;9;35;0;note_off;64
408000;9;55;0;note_on;80
408240;9;55;240;note_off;64
408240;9;42;0;note_on;80
408240;9;38;0;note_on;80
408240;9;35;0;note_on;80
408480;9;55;0;note_on;80
408480;9;35;0;note_off;64
408480;9;42;240;note_off;64
408480;9;38;0;note_off;64
408600;9;55;120;note_off;64
408600;9;38;0;note_on;80
408720;9;38;120;note_off;64
408720;9;42;0;note_on;80
408720;9;35;0;note_on;80
408960;9;42;240;note_off;64
408960;9;35;0;note_off;64
408960;9;55;0;note_on;80
409200;9;55;240;note_off;64
409200;9;42;0;note_on;80
409200;9;38;0;note_on;80
409200;9;35;0;note_on;80
409440;9;55;0;note_on;80
409440;9;35;0;note_off;64
409440;9;42;240;note_off;64
409440;9;38;0;note_off;64
409680;9;55;240;note_off;64
409680;9;42;0;note_on;80
409680;9;35;0;note_on;80
409920;9;42;240;note_off;64
409920;9;35;0;note_off;64
409920;9;55;0;note_on;80
410160;9;55;240;note_off;64
410160;9;42;0;note_on;80
410160;9;38;0;note_on;80
410160;9;35;0;note_on;80
410400;9;35;0;note_off;64
410400;9;55;0;note_on;80
410400;9;38;0;note_off;64
410400;9;42;240;note_off;64
410640;9;55;240;note_off;64
410640;9;42;0;note_on;80
410640;9;35;0;note_on;80
410880;9;42;240;note_off;64
410880;9;35;0;note_off;64
410880;9;55;0;note_on;80
411120;9;55;240;note_off;64
411120;9;42;0;note_on;80
411120;9;38;0;note_on;80
411120;9;35;0;note_on;80
411360;9;55;0;note_on;80
411360;9;35;0;note_off;64
411360;9;38;0;note_off;64
411360;9;42;240;note_off;64
411600;9;55;240;note_off;64
411600;9;42;0;note_on;80
411600;9;35;0;note_on;80
411840;9;42;240;note_off;64
411840;9;35;0;note_off;64
411840;9;55;0;note_on;80
412080;9;55;240;note_off;64
412080;9;42;0;note_on;80
412080;9;38;0;note_on;80
412080;9;35;0;note_on;80
412320;9;55;0;note_on;80
412320;9;35;0;note_off;64
412320;9;42;240;note_off;64
412320;9;38;0;note_off;64
412440;9;55;120;note_off;64
412440;9;38;0;note_on;80
412560;9;38;120;note_off;64
412560;9;42;0;note_on;80
412560;9;35;0;note_on;80
412800;9;55;0;note_on;80
412800;9;42;240;note_off;64
412800;9;35;0;note_off;64
413040;9;35;0;note_on;80
413040;9;38;0;note_on;80
413040;9;55;240;note_off;64
413040;9;42;0;note_on;80
413280;9;42;240;note_off;64
413280;9;38;0;note_off;64
413280;9;35;0;note_off;64
413280;9;55;0;note_on;80
413520;9;55;240;note_off;64
413520;9;42;0;note_on;80
413520;9;35;0;note_on;80
413760;9;55;0;note_on;80
413760;9;42;240;note_off;64
413760;9;35;0;note_off;64
414000;9;35;0;note_on;80
414000;9;38;0;note_on;80
414000;9;42;0;note_on;80
414000;9;55;240;note_off;64
414240;9;42;240;note_off;64
414240;9;38;0;note_off;64
414240;9;35;0;note_off;64
414240;9;55;0;note_on;80
414480;9;35;0;note_on;80
414480;9;55;240;note_off;64
414480;9;42;0;note_on;80
414720;9;35;0;note_off;64
414720;9;55;0;note_on;80
414720;9;42;240;note_off;64
414960;9;38;0;note_on;80
414960;9;35;0;note_on;80
414960;9;55;240;note_off;64
414960;9;42;0;note_on;80
415200;9;42;240;note_off;64
415200;9;38;0;note_off;64
415200;9;35;0;note_off;64
415200;9;55;0;note_on;80
415440;9;55;240;note_off;64
415440;9;42;0;note_on;80
415440;9;35;0;note_on;80
415680;9;42;240;note_off;64
415680;9;35;0;note_off;64
415680;9;55;0;note_on;80
415920;9;35;0;note_on;80
415920;9;38;0;note_on;80
415920;9;55;240;note_off;64
415920;9;42;0;note_on;80
416160;9;42;240;note_off;64
416160;9;38;0;note_off;64
416160;9;35;0;note_off;64
416160;9;55;0;note_on;80
416280;9;55;120;note_off;64
416280;9;38;0;note_on;80
416400;9;38;120;note_off;64
416400;9;42;0;note_on;80
416400;9;35;0;note_on;80
416640;9;42;240;note_off;64
416640;9;35;0;note_off;64
416640;9;55;0;note_on;80
416880;9;35;0;note_on;80
416880;9;38;0;note_on;80
416880;9;55;240;note_off;64
416880;9;42;0;note_on;80
417120;9;42;240;note_off;64
417120;9;38;0;note_off;64
417120;9;35;0;note_off;64
417120;9;55;0;note_on;80
417360;9;55;240;note_off;64
417360;9;42;0;note_on;80
417360;9;35;0;note_on;80
417600;9;42;240;note_off;64
417600;9;35;0;note_off;64
417600;9;55;0;note_on;80
417840;9;42;0;note_on;80
417840;9;35;0;note_on;80
417840;9;55;240;note_off;64
417840;9;38;0;note_on;80
418080;9;42;240;note_off;64
418080;9;38;0;note_off;64
418080;9;35;0;note_off;64
418080;9;55;0;note_on;80
418320;9;35;0;note_on;80
418320;9;55;240;note_off;64
418320;9;42;0;note_on;80
418560;9;35;0;note_off;64
418560;9;55;0;note_on;80
418560;9;42;240;note_off;64
418800;9;35;0;note_on;80
418800;9;38;0;note_on;80
418800;9;42;0;note_on;80
418800;9;55;240;note_off;64
419040;9;42;240;note_off;64
419040;9;38;0;note_off;64
419040;9;35;0;note_off;64
419040;9;55;0;note_on;80
419280;9;55;240;note_off;64
419280;9;42;0;note_on;80
419280;9;35;0;note_on;80
419520;9;42;240;note_off;64
419520;9;35;0;note_off;64
419520;9;55;0;note_on;80
419760;9;35;0;note_on;80
419760;9;38;0;note_on;80
419760;9;55;240;note_off;64
419760;9;42;0;note_on;80
420000;9;42;240;note_off;64
420000;9;38;0;note_off;64
420000;9;35;0;note_off;64
420000;9;55;0;note_on;80
420120;9;55;120;note_off;64
420120;9;38;0;note_on;80
420240;9;35;0;note_on;80
420240;9;38;120;note_off;64
420240;9;42;0;note_on;80
420480;9;55;0;note_on;80
420480;9;35;0;note_off;64
420480;9;42;240;note_off;64
420720;9;55;240;note_off;64
420720;9;42;0;note_on;80
420720;9;38;0;note_on;80
420720;9;35;0;note_on;80
420960;9;42;240;note_off;64
420960;9;38;0;note_off;64
420960;9;35;0;note_off;64
420960;9;55;0;note_on;80
421200;9;55;240;note_off;64
421200;9;42;0;note_on;80
421200;9;35;0;note_on;80
421440;9;55;0;note_on;80
421440;9;35;0;note_off;64
421440;9;42;240;note_off;64
421680;9;55;240;note_off;64
421680;9;42;0;note_on;80
421680;9;38;0;note_on;80
421680;9;35;0;note_on;80
421920;9;42;240;note_off;64
421920;9;38;0;note_off;64
421920;9;35;0;note_off;64
421920;9;55;0;note_on;80
422160;9;55;240;note_off;64
422160;9;42;0;note_on;80
422160;9;35;0;note_on;80
422400;9;55;0;note_on;80
422400;9;35;0;note_off;64
422400;9;42;240;note_off;64
422640;9;55;240;note_off;64
422640;9;42;0;note_on;80
422640;9;38;0;note_on;80
422640;9;35;0;note_on;80
422880;9;42;240;note_off;64
422880;9;38;0;note_off;64
422880;9;35;0;note_off;64
422880;9;55;0;note_on;80
423120;9;55;240;note_off;64
423120;9;42;0;note_on;80
423120;9;35;0;note_on;80
423360;9;55;0;note_on;80
423360;9;42;240;note_off;64
423360;9;35;0;note_off;64
423600;9;55;240;note_off;64
423600;9;42;0;note_on;80
423600;9;38;0;note_on;80
423600;9;35;0;note_on;80
423840;9;42;240;note_off;64
423840;9;38;0;note_off;64
423840;9;35;0;note_off;64
423840;9;55;0;note_on;80
423960;9;38;0;note_on;80
423960;9;55;120;note_off;64
424080;9;35;0;note_on;80
424080;9;42;0;note_on;80
424080;9;38;120;note_off;64
424320;9;42;240;note_off;64
424320;9;35;0;note_off;64
424320;9;55;0;note_on;80
424560;9;55;240;note_off;64
424560;9;42;0;note_on;80
424560;9;38;0;note_on;80
424560;9;35;0;note_on;80
424800;9;42;240;note_off;64
424800;9;38;0;note_off;64
424800;9;35;0;note_off;64
424800;9;55;0;note_on;80
425040;9;35;0;note_on;80
425040;9;42;0;note_on;80
425040;9;55;240;note_off;64
425280;9;42;240;note_off;64
425280;9;35;0;note_off;64
425280;9;55;0;note_on;80
425520;9;55;240;note_off;64
425520;9;42;0;note_on;80
425520;9;38;0;note_on;80
425520;9;35;0;note_on;80
425760;9;42;240;note_off;64
425760;9;38;0;note_off;64
425760;9;35;0;note_off;64
425760;9;55;0;note_on;80
426000;9;42;0;note_on;80
426000;9;35;0;note_on;80
426000;9;55;240;note_off;64
426480;9;35;0;note_off;64
426480;9;42;0;note_on;80
426480;9;42;480;note_off;64
426480;9;35;0;note_on;80
427920;9;35;0;note_off;64
427920;9;42;1440;note_off;64
